<svg xmlns="http://www.w3.org/2000/svg" width="92" height="83" viewBox="0 0 92 83">
    <g fill="none" fill-rule="evenodd">
        <path fill="#D0DE66" fill-rule="nonzero" d="M48.545 3.662L18.4 33.588v43.31h60.107v-43.31z"/>
        <path fill="#6A7800" fill-rule="nonzero" d="M86.452 35.65L51.705 1.241c-1.672-1.656-4.46-1.656-6.503 0L10.454 35.649c-1.672 1.656-1.672 4.416 0 6.44 1.673 1.656 4.46 1.656 6.504 0l31.588-31.647L80.135 41.72c.743.736 2.044 1.288 3.159 1.288 1.114 0 2.415-.368 3.158-1.288 1.673-1.656 1.673-4.416 0-6.072z"/>
        <path fill="#FFF" fill-rule="nonzero" d="M32.916 50.654v8.019H27.19v-8.019c-3.324 1.094-5.724 4.374-5.724 8.019 0 3.645 2.4 6.743 5.724 8.019v10.205h5.725V66.692c3.323-1.276 5.724-4.374 5.724-8.019 0-3.645-2.4-6.743-5.724-8.019z"/>
        <path fill="#8DA000" d="M89.286 83H3.327C1.48 83 0 81.644 0 79.949c0-1.696 1.479-3.052 3.327-3.052h85.959c1.848 0 3.327 1.356 3.327 3.052 0 1.695-1.479 3.051-3.327 3.051z"/>
        <path fill="#FFF" fill-rule="nonzero" d="M76.667 54.862v-3.188c0-.75-.566-1.313-1.32-1.313-.753 0-1.319.563-1.319 1.313v1.875h-2.073v-1.875c0-.75-.565-1.313-1.319-1.313s-1.32.563-1.32 1.313v4.688c0 1.312 1.132 2.438 2.262 2.438v3.75c0 .75-.565 1.313-1.319 1.313h-4.9c-.188 0-.377 0-.565.187-.565.188-.942.563-.942 1.313V69.3c0 .75-.566 1.312-1.32 1.312h-1.319v-25.69h1.32c.753 0 1.319.563 1.319 1.313V58.8c0 .75.565 1.312 1.319 1.312s1.32-.562 1.32-1.312V46.048c0-2.25-1.697-3.938-3.958-3.938h-2.639c-.754 0-1.319.563-1.319 1.313v3.188h-2.638v-3.188c0-.75-.566-1.313-1.32-1.313-.753 0-1.319.563-1.319 1.313v3.188h-2.45v-3.188c0-.75-.565-1.313-1.319-1.313s-1.319.563-1.319 1.313v3.188h-2.638v-3.188c0-.75-.566-1.313-1.32-1.313-.753 0-1.319.563-1.319 1.313v25.69c0 1.688 1.131 3.188 2.639 3.75v1.5c0 .75.565 1.313 1.319 1.313s1.32-.562 1.32-1.312V73.05H61.4v1.313c0 .75.566 1.312 1.32 1.312.754 0 1.32-.562 1.32-1.312v-1.5c1.507-.563 2.638-2.063 2.638-3.75v-2.626h3.769c2.261 0 3.957-1.688 3.957-3.938V58.8c1.32-.188 2.262-1.126 2.262-2.438v-1.5zM46.89 70.426c-.754 0-1.32-.563-1.32-1.313v-2.625h2.64v3.938h-1.32zm3.957-3.938h2.639v3.938h-2.639v-3.938zm5.277 0h2.639v3.938h-2.639v-3.938zm2.639-17.064v14.439h-2.639v-14.44h2.639zm-5.277 0v14.439h-2.639v-14.44h2.639zm-5.277 0v14.439h-2.638v-14.44h2.638z"/>
    </g>
</svg>
