<svg xmlns="http://www.w3.org/2000/svg" width="92" height="77.918" viewBox="0 0 92 77.9183673">
    <g fill="none" fill-rule="evenodd">
        <path fill="#D0DE66" fill-rule="nonzero" d="M49.627 4.015L21.714 31.95v40.314h56V31.95z"/>
        <path fill="#6A7800" fill-rule="nonzero" d="M83.556 33.522L51.954 1.192c-1.554-1.59-3.972-1.59-5.871 0l-31.775 32.33c-1.554 1.59-1.554 4.063 0 6.006 1.555 1.59 3.972 1.59 5.872 0l28.666-29.68 28.666 29.327c.69.706 1.9 1.06 2.936 1.06s2.245-.354 2.935-1.06c1.554-1.59 1.554-4.24.173-5.653z"/>
        <path fill="#8DA000" fill-rule="nonzero" d="M21.6 43.376c.686-1.257 1.2-2.874 1.2-4.492 0-2.695-1.2-5.03-2.743-6.288 1.029-1.258 1.714-3.234 1.714-5.39 0-3.055-1.542-5.75-3.6-6.828 0-3.953-2.4-7.187-5.485-7.187-3.086 0-5.486 3.234-5.486 7.187v.54c-2.057 1.077-3.429 3.593-3.429 6.647 0 .898.172 1.617.343 2.515-1.543 1.258-2.571 3.594-2.571 6.11 0 1.976.686 3.952 1.714 5.21C1.2 43.376 0 46.43 0 49.845c0 5.03 2.571 9.163 6.171 10.24 1.2 1.259 2.915 1.977 4.629 2.157L10.286 74.1s1.028.899 2.743.18V62.062c.514-.18 1.028-.359 1.542-.718.515.18.858.18 1.372.18C20.4 61.523 24 56.671 24 50.922c0-2.875-.857-5.57-2.4-7.547z"/>
        <path fill="#FFF" fill-rule="nonzero" d="M69.467 59.647H50.533c-.695 0-1.39-.499-1.39-1.33V44.344c0-.665.521-1.33 1.39-1.33h18.934c.695 0 1.39.499 1.39 1.33v13.971c-.174.832-.695 1.331-1.39 1.331zM42.658 72.265H29.913c-.67 0-1.342-.54-1.342-1.438V49.615c0-.72.504-1.439 1.342-1.439h12.745c.671 0 1.342.54 1.342 1.439v21.212c0 .719-.67 1.438-1.342 1.438z"/>
        <g fill="#8DA000" fill-rule="nonzero" transform="translate(53.714 43.588)">
            <ellipse cx="6.974" cy="5.295" rx="4.558" ry="4.987"/>
            <path d="M6.974 10.283c-3.714 0-6.753 3.325-6.753 7.389h13.675c-.169-4.064-3.208-7.39-6.922-7.39z"/>
        </g>
        <path fill="#8DA000" d="M89.219 78h-78.85c-1.73 0-2.94-1.35-2.94-2.868 0-1.686 1.383-2.867 2.94-2.867h78.677c1.729 0 2.94 1.35 2.94 2.867.172 1.519-1.211 2.868-2.767 2.868z"/>
        <path fill="#6A7800" fill-rule="nonzero" d="M63.582 45.823c-.33-.396-.494-.791-.824-.989-.165-1.582-1.318-2.966-2.637-2.966-1.484 0-2.637 1.384-2.637 2.966-.33.198-.495.396-.66.791-.33.594-.66 1.187-.824 1.978 1.648 0 2.967-.989 3.626-2.571h.66c.33 0 .494 0 .824.198.165.593.66.989.989 1.384.66.593 1.483.989 2.308.989h.164c-.494-.593-.659-1.187-.989-1.78z"/>
    </g>
</svg>
