<svg xmlns="http://www.w3.org/2000/svg" width="101" height="83" viewBox="0 0 101 83">
    <g fill="none" fill-rule="evenodd">
        <g fill-rule="nonzero">
            <path fill="#D0DE66" d="M53.052 4.345L23.044 34.002v42.692h60.207V34.002z"/>
            <path fill="#6A7800" d="M90.848 35.513L56.28 1.133c-1.52-1.51-4.368-1.51-6.457 0l-34.567 34.38c-1.52 1.512-1.52 4.345 0 6.423 1.52 1.511 4.369 1.511 6.458 0L53.052 10.39 84.39 41.558c.76.756 2.09 1.134 3.229 1.134 1.14 0 2.469-.378 3.229-1.134 1.709-1.7 1.709-4.345 0-6.045z"/>
            <path fill="#8DA000" d="M24.374 45.525c.76-1.322 1.33-3.022 1.33-4.722 0-2.834-1.33-5.29-3.04-6.612 1.14-1.322 1.9-3.4 1.9-5.478 0-3.211-1.71-6.045-3.989-6.99 0-4.155-2.659-7.555-6.077-7.555-3.419 0-6.078 3.4-6.078 7.556v.566c-2.28 1.134-3.798 3.778-3.798 6.99 0 .944.19 1.7.38 2.644-1.71 1.322-2.85 3.778-2.85 6.423 0 2.078.76 4.156 1.9 5.478-2.09 2.078-3.609 5.29-3.609 8.878 0 5.29 2.849 9.634 6.837 10.768 1.33 1.322 3.23 2.077 4.939 2.266l-.57 12.279s1.14.944 3.039.189V65.36c.57-.19 1.14-.378 1.709-.756.57.189.95.189 1.52.189 4.937 0 8.926-4.912 8.926-11.145.19-3.212-.76-6.045-2.47-8.123z"/>
            <path fill="#FFF" d="M68.246 45.336H53.812c-.76 0-1.52-.567-1.52-1.511V34.19c0-.756.57-1.511 1.52-1.511h14.245c.76 0 1.519.566 1.519 1.511v9.634c0 .756-.57 1.511-1.33 1.511zM60.46 76.316H46.215c-.76 0-1.52-.567-1.52-1.511V52.892c0-.755.57-1.511 1.52-1.511H60.46c.76 0 1.519.567 1.519 1.511v22.102c-.19.566-.76 1.322-1.52 1.322z"/>
            <g fill="#8DA000" transform="translate(53.812 28.945)">
                <ellipse cx="6.837" cy="5.057" rx="4.558" ry="4.534"/>
                <path d="M6.837 9.59A6.588 6.588 0 0 0 .19 16.202h13.485c0-3.778-3.04-6.612-6.838-6.612z"/>
            </g>
        </g>
        <path fill="#8DA000" d="M95.355 83H10.542c-1.88 0-3.197-1.436-3.197-3.051 0-1.795 1.505-3.052 3.197-3.052h84.813c1.88 0 3.197 1.436 3.197 3.052 0 1.615-1.505 3.051-3.197 3.051z"/>
    </g>
</svg>
