<svg xmlns="http://www.w3.org/2000/svg" width="92" height="92" viewBox="0 0 92 92">
    <g fill="none" fill-rule="nonzero">
        <path fill="#D0DE66" d="M66.97 27.735v56.147H8.372C3.662 83.882 0 80.103 0 75.244V27.735h66.97z"/>
        <path fill="#8DA000" d="M8.794 14.206C4.031 14.206 0 18.104 0 22.71v51.025c0-4.606 4.03-8.504 8.794-8.504s8.794 3.898 8.794 8.504V22.71c0-4.784-3.847-8.504-8.794-8.504z"/>
        <path fill="#FFF" d="M25.981 66.282v-13.1h2.064V51.14h-4.128v3.063h-2.236v-12.25h3.612v-2.041h-5.675v28.412h10.147v-2.042H25.98zm-2.064 0h-2.236v-1.02h2.236v1.02zm0-3.062h-2.236v-1.021h2.236v1.02zm0-3.063h-2.236v-1.02h2.236v1.02zm0-3.062h-2.236v-1.02h2.236v1.02zM61.5 53.862v-13.95H35.176v2.041h6.366v9.187h-2.236v2.042h2.064v2.552h7.398v5.614h2.065v-5.614h4.99v-2.042H43.435V41.953h15.829v24.329h-8.431V64.24h-2.065v2.042H37.93v2.042h23.4V63.56h3.612v-9.698h-3.44zm1.377 7.656h-1.549v-5.614h1.549v5.614z"/>
        <path fill="#6A7800" d="M62.606 26.807l22.195-22.2 6.858 6.86-22.195 22.2z"/>
        <path fill="#EEE" d="M62.677 27.735l-1.795 8.794 8.794-1.934z"/>
        <path fill="#6A7800" d="M62.235 35.176l.508-2.705 2.198 2.069zM42.163 66.344l-2.078 8.675c-.173 1.084.346 1.988 1.212 2.349l36.367 9.578c1.04.18 1.905-.362 2.252-1.265l2.078-8.674c.173-1.085-.347-1.988-1.213-2.35L44.414 65.08c-1.039-.18-1.905.362-2.25 1.265zm3.117 5.422c-.173.723-.866 1.084-1.558.903-.693-.18-1.04-.903-.866-1.626.173-.723.866-1.084 1.558-.904.693.181 1.04.904.866 1.627z"/>
        <path fill="#D0DE66" d="M48.988 69.158l.633-2.629zM52.063 70.06l.633-2.628zM55.348 70.832l.633-2.629zM58.633 71.605l.633-2.629zM61.708 72.508l.633-2.63zM64.993 73.28l.633-2.63-.633 2.63zM68.235 74.227l.634-2.629zM71.353 74.955l.633-2.629zM74.596 75.902l.633-2.629z"/>
    </g>
</svg>
