<svg xmlns="http://www.w3.org/2000/svg" xmlns:xlink="http://www.w3.org/1999/xlink" viewBox="0 0 1120.11 210.94"><defs><style>.cls-1{fill:#9ab3b7;}.cls-19,.cls-2,.cls-4{fill:#5d767c;}.cls-3{fill:none;}.cls-4{clip-rule:evenodd;}.cls-5{fill:url(#Unbenannter_Verlauf_8);}.cls-6{fill:#78842c;}.cls-19,.cls-6,.cls-7,.cls-8,.cls-9{fill-rule:evenodd;}.cls-7{fill:#dbe8b7;}.cls-14,.cls-8{fill:#9aa541;}.cls-9{fill:#bdd252;}.cls-10{fill:#fff;}.cls-11{fill:#7e9b30;}.cls-12{fill:#432918;}.cls-13{fill:url(#Unbenannter_Verlauf_14);}.cls-15{fill:#bcd251;}.cls-16{clip-path:url(#clip-path);}.cls-17{clip-path:url(#clip-path-2);}.cls-18{clip-path:url(#clip-path-3);}.cls-20{clip-path:url(#clip-path-4);}.cls-21{clip-path:url(#clip-path-5);}.cls-22{fill:#95c11f;}.cls-23{fill:#4a5e63;}</style><linearGradient id="Unbenannter_Verlauf_8" x1="371.58" y1="-45.94" x2="1063.13" y2="508.03" gradientUnits="userSpaceOnUse"><stop offset="0" stop-color="#e5f3f4"/><stop offset="0.08" stop-color="#e0f1f5"/><stop offset="0.19" stop-color="#d0ebf8"/><stop offset="0.23" stop-color="#c7e8fa"/></linearGradient><linearGradient id="Unbenannter_Verlauf_14" x1="805.45" y1="140.49" x2="296.51" y2="140.49" gradientUnits="userSpaceOnUse"><stop offset="0" stop-color="#e6f5fd"/><stop offset="0.57" stop-color="#fff"/></linearGradient><clipPath id="clip-path" transform="translate(0.23 0)"><polygon class="cls-1" points="925.78 32.78 869.88 88.55 869.88 169.25 981.33 169.25 981.33 88.55 925.78 32.78"/></clipPath><clipPath id="clip-path-2" transform="translate(0.23 0)"><path class="cls-2" d="M996.07,92.39,931.64,28.27c-3.11-3.09-8.27-3.09-12.06,0L855.15,92.39c-3.11,3.08-3.11,8.22,0,12,3.1,3.08,8.26,3.08,12.06,0l58.57-59,58.57,58.29a9,9,0,0,0,5.86,2.4,7.59,7.59,0,0,0,5.86-2.4A8,8,0,0,0,996.07,92.39Z"/></clipPath><clipPath id="clip-path-3" transform="translate(0.23 0)"><path class="cls-3" d="M896.8,120.35v14.94H886.18V120.35a15.86,15.86,0,0,0-10.61,14.94,16.18,16.18,0,0,0,10.61,14.94v19H896.8v-19a15.82,15.82,0,0,0,0-29.88Z"/></clipPath><clipPath id="clip-path-4" transform="translate(0.23 0)"><path class="cls-4" d="M1001.32,180.62H841.93a5.7,5.7,0,1,1,0-11.37h159.39a5.7,5.7,0,1,1,0,11.37Z"/></clipPath><clipPath id="clip-path-5" transform="translate(0.23 0)"><path class="cls-3" d="M925.16,120.05V147h-4.9V120.05Zm9.78,0V147h-4.89V120.05Zm9.78,0V147h-4.89V120.05Zm-4.89,31.8h4.89v7.34h-4.89Zm-9.78,0h4.89v7.34h-4.89Zm-7.34,7.34a2.39,2.39,0,0,1-2.45-2.44v-4.9h4.9v7.34Zm55.21-29v-5.94a2.45,2.45,0,1,0-4.89,0v3.49h-3.84v-3.49a2.45,2.45,0,0,0-4.9,0V133a4.58,4.58,0,0,0,4.2,4.55v7A2.39,2.39,0,0,1,966,147H957a1.28,1.28,0,0,0-1,.35,2.33,2.33,0,0,0-1.75,2.45v7.34a2.39,2.39,0,0,1-2.45,2.44h-2.44V111.67h2.44a2.39,2.39,0,0,1,2.45,2.44v23.42a2.45,2.45,0,0,0,4.89,0V113.76a7.16,7.16,0,0,0-7.34-7.33h-4.89a2.38,2.38,0,0,0-2.45,2.44v5.94h-4.89v-5.94a2.45,2.45,0,0,0-4.89,0v5.94h-4.54v-5.94a2.45,2.45,0,0,0-4.89,0v5.94h-4.9v-5.94a2.45,2.45,0,0,0-4.89,0v47.88a7.61,7.61,0,0,0,4.89,7v2.79a2.45,2.45,0,1,0,4.9,0v-2.45h24.46v2.45a2.45,2.45,0,1,0,4.89,0v-2.79a7.61,7.61,0,0,0,4.89-7v-4.9h7a7.16,7.16,0,0,0,7.34-7.33v-7a4.57,4.57,0,0,0,4.19-4.55Z"/></clipPath></defs><title>Themengruppe_1_baufoerderer_sanieren</title><g id="Ebene_4" data-name="Ebene 4"><rect class="cls-5" width="1120" height="210"/></g><g id="Ebene_2" data-name="Ebene 2"><path class="cls-6" d="M950.19,177.29c2.57,1.15-754.34,2-754.34,2,7.26,1.69,83.89-98.42,371.23-98.42C814.8,80.85,840.54,128.08,950.19,177.29Z" transform="translate(0.23 0)"/><path class="cls-7" d="M1029.14,200.88C1031.71,202,67,198,67,198c7.26,1.7,287.32-77.58,476.6-75.05C791.34,126.24,919.48,151.68,1029.14,200.88Z" transform="translate(0.23 0)"/><polygon class="cls-8" points="0.22 191.83 0.11 210.06 1119.89 210.94 1120.11 192.27 0.22 191.83"/><polygon class="cls-9" points="0.22 173.83 0.11 192.06 1119.89 192.94 1120.11 174.27 0.22 173.83"/></g><g id="Ebene_1" data-name="Ebene 1"><g id="Wolke"><ellipse class="cls-10" cx="991.71" cy="61.98" rx="8.02" ry="7.44"/><rect class="cls-10" x="977.54" y="62.62" width="77.37" height="12.75" rx="6.05" transform="translate(2032.68 137.99) rotate(180)"/><path class="cls-10" d="M1033.59,65.41c0,5.22,7.73,10,13.51,10s9.11-3.11,9.11-8.33-2-12.31-10.58-13C1035.4,53.15,1033.59,60.19,1033.59,65.41Z" transform="translate(0.23 0)"/><path class="cls-10" d="M994.21,56.18c-.56,7.1,7.61,11.89,21.14,14s25.2-1.93,26.08-9-7.12-19.32-22.65-19.68S995,45.86,994.21,56.18Z" transform="translate(0.23 0)"/></g><g id="Baum"><path class="cls-11" d="M194.64,108.46c.31,8.44,8.49,15.21,18.59,15.18,10.27,0,18.6-6.8,18.6-15.18s-8.33-15.19-18.6-15.19S194.32,100.07,194.64,108.46Z" transform="translate(0.23 0)"/><path class="cls-11" d="M176.74,85C178.44,93.23,189.72,96,200,96s22.94-5.75,22.94-14.14-8-17.2-22.94-16.23C189.75,66.32,174,71.48,176.74,85Z" transform="translate(0.23 0)"/><path class="cls-11" d="M197.27,93.08c0,8.38,9.26,18.54,19.53,18.54s28.69-8.89,20.77-23c-3.4-6.09-9.94-11.61-22.65-10C204.77,79.86,197.27,84.69,197.27,93.08Z" transform="translate(0.23 0)"/><ellipse class="cls-11" cx="184.01" cy="97.34" rx="18.6" ry="15.18"/><path class="cls-11" d="M173.34,110.58c0,8.39,8.17,15.33,18.44,15.33s19-8.22,19-16.6-8.32-15.19-18.59-15.19S173.34,102.2,173.34,110.58Z" transform="translate(0.23 0)"/><path class="cls-12" d="M202.56,168.05h0c3.05,0,5.54-1.06,5.64-1.45L206,119.91c-.69-1.86-1.45-.78-3.33-.78a4.34,4.34,0,0,1-2.41-.75c-.79-.54-1.94-1.3-2-.17L197,164.5C197,167,199.51,168.05,202.56,168.05Z" transform="translate(0.23 0)"/></g><path class="cls-13" d="M299.34,158.65a37.5,37.5,0,0,0,8.57,3.25,41.48,41.48,0,0,0,10.87,1.49q5.37,0,7.81-1.46a5,5,0,0,0,2.44-4.69,5.63,5.63,0,0,0-1.42-3.86,15.06,15.06,0,0,0-4.2-3.13q-2.78-1.5-9.47-4.6a37.43,37.43,0,0,1-12.74-9.05,19.61,19.61,0,0,1-4.69-13.44,17.92,17.92,0,0,1,3.3-10.92,19.69,19.69,0,0,1,9.27-6.72A39.77,39.77,0,0,1,323,103.28a54.3,54.3,0,0,1,12.85,1.34,32.5,32.5,0,0,1,8.1,2.91l-2.88,13.85a22.79,22.79,0,0,0-7.1-3.22,32.89,32.89,0,0,0-9.36-1.4c-3.41,0-6,.54-7.69,1.62a5.05,5.05,0,0,0-2.56,4.48,6.05,6.05,0,0,0,1.29,3.81,13.47,13.47,0,0,0,4,3.22c1.79,1,4.32,2.28,7.57,3.75a69.35,69.35,0,0,1,11.36,6.05,22.11,22.11,0,0,1,6.71,7,18.42,18.42,0,0,1,2.34,9.51,19.43,19.43,0,0,1-12.4,18.86,36.93,36.93,0,0,1-14.7,2.64,65.71,65.71,0,0,1-9.84-.73,64.6,64.6,0,0,1-8.47-1.8,22.27,22.27,0,0,1-5.17-2.06Z" transform="translate(0.23 0)"/><path class="cls-13" d="M399.1,163.78H373.17l-3.91,13.86H349.78l25.88-74.31h21.19l26.08,74.31H403.2Zm-3.86-13-6.88-22.93-2.45-9.47-2.49,9.47-6.59,22.93Z" transform="translate(0.23 0)"/><path class="cls-13" d="M493.19,103.33v74.31h-18.7l-24.07-39.79L445,126.57l2.29,19v32.12H430.45V103.33h17.38l25.34,40.77,5.18,10.84-2-18.9V103.33Z" transform="translate(0.23 0)"/><path class="cls-13" d="M529.42,103.33v74.31H510.67V103.33Z" transform="translate(0.23 0)"/><path class="cls-13" d="M593.87,103.33V117.2H565.31v15.72h22v13.52h-22v17H596.8v14.2H546.9V103.33Z" transform="translate(0.23 0)"/><path class="cls-13" d="M670.39,177.64H649.88a9.12,9.12,0,0,1-1-1.63c-.31-.59-.86-1.8-1.64-3.62q-1.37-3.1-3-8c-1-2.95-1.88-5.27-2.59-6.95a16.26,16.26,0,0,0-2.59-4.29,5.08,5.08,0,0,0-3.52-1.89h-8v26.36H608.91V103.33h28.76a41.72,41.72,0,0,1,13.53,2.11,21.28,21.28,0,0,1,10.18,7.27q4,5.16,4,13.79,0,15.6-11.77,21a17.58,17.58,0,0,1,4.42,5.37q1.88,3.36,4.52,9.37c1,2.35,1.86,4.26,2.56,5.74s1.44,2.91,2.22,4.27Zm-42.92-39.15a23.7,23.7,0,0,0,4.32.29h4.81q5.42,0,8.15-3.38a13.48,13.48,0,0,0,2.74-8.74q0-10.59-12.11-10.59a23,23,0,0,0-7.91,1.18Z" transform="translate(0.23 0)"/><path class="cls-13" d="M727.66,103.33V117.2H699.1v15.72h22v13.52h-22v17h31.49v14.2h-49.9V103.33Z" transform="translate(0.23 0)"/><path class="cls-13" d="M805.45,103.33v74.31H786.74l-24.07-39.79-5.42-11.28,2.3,19v32.12H742.7V103.33h17.38l25.35,40.77,5.17,10.84-2-18.9V103.33Z" transform="translate(0.23 0)"/><path class="cls-14" d="M218.19,177.29c0,6.46-10.48,6.58-23.4,6.58s-24.13-.12-24.13-6.58,11.21-22.66,24.13-22.66S218.19,170.83,218.19,177.29Z" transform="translate(0.23 0)"/><path class="cls-14" d="M260.84,177.54c0,5.14-5.77,3.31-16.06,3.31s-16.11.37-16.11-4.78,6.77-12.67,17.06-12.67A15,15,0,0,1,260.84,177.54Z" transform="translate(0.23 0)"/><path class="cls-14" d="M238.7,179.75c0,5.15-5.76,3.31-16.06,3.31s-16.11.37-16.11-4.77,6.77-12.68,17.06-12.68A15,15,0,0,1,238.7,179.75Z" transform="translate(0.23 0)"/><g id="Busch"><path class="cls-15" d="M418.2,181.09c0,4.28-6.94,4.36-15.5,4.36s-16-.08-16-4.36,7.43-15,16-15S418.2,176.81,418.2,181.09Z" transform="translate(0.23 0)"/><path class="cls-15" d="M404.46,176.35c0,7.62-6.75,4.9-18.81,4.9s-18.87.55-18.87-7.07,7.93-18.77,20-18.77S404.46,168.73,404.46,176.35Z" transform="translate(0.23 0)"/><path class="cls-15" d="M376.73,179.12c0,4.65-5.21,3-14.51,3s-14.56.34-14.56-4.31,6.12-11.45,15.42-11.45A13.6,13.6,0,0,1,376.73,179.12Z" transform="translate(0.23 0)"/></g><g id="Haus"><polygon class="cls-1" points="926.01 32.78 870.11 88.55 870.11 169.25 981.56 169.25 981.56 88.55 926.01 32.78"/><g class="cls-16"><rect class="cls-1" x="864.42" y="27.09" width="122.83" height="147.85"/></g><path class="cls-2" d="M996.07,92.39,931.64,28.27c-3.11-3.09-8.27-3.09-12.06,0L855.15,92.39c-3.11,3.08-3.11,8.22,0,12,3.1,3.08,8.26,3.08,12.06,0l58.57-59,58.57,58.29a9,9,0,0,0,5.86,2.4,7.59,7.59,0,0,0,5.86-2.4A8,8,0,0,0,996.07,92.39Z" transform="translate(0.23 0)"/><g class="cls-17"><rect class="cls-2" x="847.36" y="20.27" width="156.95" height="92.12"/></g><g class="cls-18"><rect class="cls-10" x="870.11" y="114.66" width="43.22" height="60.28"/></g><path class="cls-19" d="M1001.32,180.62H841.93a5.7,5.7,0,1,1,0-11.37h159.39a5.7,5.7,0,1,1,0,11.37Z" transform="translate(0.23 0)"/><g class="cls-20"><rect class="cls-2" x="830.3" y="163.56" width="183.1" height="22.75"/></g><g class="cls-21"><rect class="cls-10" x="909.91" y="100.74" width="73.92" height="73.92"/></g></g><g id="Baum-2" data-name="Baum"><path class="cls-22" d="M835.35,113.86a15.74,15.74,0,0,1-15.52,15.53,15.53,15.53,0,1,1,0-31C828.4,98.34,835.61,105.29,835.35,113.86Z" transform="translate(0.23 0)"/><path class="cls-22" d="M850.29,89.85c-1.42,8.45-10.83,11.31-19.41,11.31s-19.15-5.88-19.15-14.45,6.68-17.59,19.15-16.6C839.43,70.79,852.6,76.06,850.29,89.85Z" transform="translate(0.23 0)"/><path class="cls-22" d="M833.15,98.14c0,8.57-7.73,19-16.3,19s-24-9.08-17.34-23.53c2.84-6.22,8.3-11.87,18.9-10.24C826.89,84.62,833.15,89.57,833.15,98.14Z" transform="translate(0.23 0)"/><circle class="cls-22" cx="844.64" cy="102.5" r="15.52"/><path class="cls-22" d="M853.13,116a15.54,15.54,0,0,1-15.39,15.67c-8.58,0-15.87-8.4-15.87-17a15.52,15.52,0,0,1,15.52-15.52C846,99.21,853.13,107.46,853.13,116Z" transform="translate(0.23 0)"/><path class="cls-12" d="M828.74,174.78h0c-2.55,0-4.63-1.08-4.71-1.48l1.82-47.73c.57-1.9,1.2-.8,2.78-.8a3.11,3.11,0,0,0,2-.77c.66-.55,1.63-1.32,1.66-.16l1.07,47.32C833.36,173.7,831.28,174.78,828.74,174.78Z" transform="translate(0.23 0)"/></g><g id="Wolke-2" data-name="Wolke"><ellipse class="cls-10" cx="677.56" cy="45.41" rx="10.86" ry="9.05"/><rect class="cls-10" x="591.74" y="46.18" width="104.68" height="15.51" rx="7.75"/><path class="cls-10" d="M620.36,49.58c0,6.35-10.46,12.11-18.28,12.11s-12.33-3.78-12.33-10.13,2.65-15,14.32-15.85C617.91,34.66,620.36,43.23,620.36,49.58Z" transform="translate(0.23 0)"/><path class="cls-10" d="M673.64,38.35c.76,8.63-10.3,14.46-28.6,17S610.94,53,609.75,44.44,619.39,21,640.4,20.52,672.54,25.8,673.64,38.35Z" transform="translate(0.23 0)"/></g><g id="Wolke-3" data-name="Wolke"><ellipse class="cls-10" cx="121.77" cy="49.06" rx="9.38" ry="6.29"/><rect class="cls-10" x="47.65" y="49.59" width="90.42" height="10.78" rx="5.39"/><path class="cls-10" d="M72.34,52c0,4.4-9,8.41-15.79,8.41s-10.65-2.63-10.65-7,2.28-10.4,12.36-11C70.22,41.59,72.34,47.55,72.34,52Z" transform="translate(0.23 0)"/><path class="cls-10" d="M118.36,44.15c.65,6-8.9,10.05-24.7,11.82S64.2,54.35,63.17,48.38,71.5,32.07,89.64,31.76,117.41,35.43,118.36,44.15Z" transform="translate(0.23 0)"/></g><g id="Busch-2" data-name="Busch"><path class="cls-15" d="M597.2,185.09c0,4.28-6.94,4.36-15.5,4.36s-16-.08-16-4.36,7.43-15,16-15S597.2,180.81,597.2,185.09Z" transform="translate(0.23 0)"/><path class="cls-15" d="M584.46,184.35c0,7.62-6.75,4.9-18.81,4.9s-18.87.55-18.87-7.07,7.93-18.77,20-18.77S584.46,176.73,584.46,184.35Z" transform="translate(0.23 0)"/><path class="cls-15" d="M556.73,187.12c0,4.65-5.21,3-14.51,3s-14.56.34-14.56-4.31,6.12-11.45,15.42-11.45A13.6,13.6,0,0,1,556.73,187.12Z" transform="translate(0.23 0)"/></g><g id="Windrad"><circle class="cls-23" cx="280" cy="69.4" r="4.5"/><polygon class="cls-23" points="307.72 77.92 283.43 71.96 284.1 69.2 309.72 75.48 307.72 77.92"/><polygon class="cls-23" points="307.72 77.92 288.39 76.27 283.43 71.96 307.72 77.92"/><polygon class="cls-23" points="251.84 77.41 276.25 71.9 275.62 69.13 249.89 74.93 251.84 77.41"/><polygon class="cls-23" points="251.84 77.41 271.2 76.11 276.25 71.9 251.84 77.41"/><polygon class="cls-23" points="278.32 40.24 280.81 65.13 277.97 65.41 275.35 39.17 278.32 40.24"/><polygon class="cls-23" points="278.32 40.24 283.21 59.02 280.81 65.13 278.32 40.24"/><rect class="cls-23" x="278.71" y="67.51" width="3.02" height="77.69" rx="1.42"/></g><path class="cls-10" d="M886.67,163.34a1.62,1.62,0,0,0-1.61-1.61h-4.82a7.33,7.33,0,0,0-7.32,7.24,4.18,4.18,0,0,1-3.54,4.18,4,4,0,0,1-4.58-4v-3.62a8.13,8.13,0,0,0,6.51-8v-4.18a1.06,1.06,0,0,0-1-1h-2V147.1a1.53,1.53,0,1,0-3.06-.08v5.15h-4V147a1.53,1.53,0,1,0-3-.08v5.15h-2a1.07,1.07,0,0,0-1,1v4.18a8.27,8.27,0,0,0,6.52,8v3.46a7.5,7.5,0,0,0,7.07,7.55,7.36,7.36,0,0,0,7.64-7.31V169a4.12,4.12,0,0,1,4.1-4.1h4.74c.81.16,1.53-.64,1.53-1.53Z" transform="translate(0.23 0)"/></g></svg>