<svg xmlns="http://www.w3.org/2000/svg" xmlns:xlink="http://www.w3.org/1999/xlink" viewBox="0 0 1120.11 210.94"><defs><style>.cls-1{fill:url(#Unbenannter_Verlauf_8);}.cls-2{fill:#78842c;}.cls-18,.cls-2,.cls-3,.cls-4,.cls-5{fill-rule:evenodd;}.cls-3{fill:#dbe8b7;}.cls-15,.cls-4{fill:#9aa541;}.cls-5{fill:#bdd252;}.cls-6{fill:#fff;}.cls-7{fill:#3c491d;}.cls-8{fill:#432918;}.cls-9{fill:url(#Unbenannter_Verlauf_14);}.cls-10{fill:#bcd251;}.cls-11{fill:#95c11f;}.cls-12{fill:#ededed;}.cls-13{fill:#78929b;}.cls-14,.cls-18{fill:#8ea225;}.cls-16{fill:#bdd0d7;}.cls-17{fill:#4a5e63;}</style><linearGradient id="Unbenannter_Verlauf_8" x1="371.58" y1="-45.94" x2="1063.13" y2="508.03" gradientUnits="userSpaceOnUse"><stop offset="0" stop-color="#e5f3f4"/><stop offset="0.08" stop-color="#e0f1f5"/><stop offset="0.19" stop-color="#d0ebf8"/><stop offset="0.23" stop-color="#c7e8fa"/></linearGradient><linearGradient id="Unbenannter_Verlauf_14" x1="794.18" y1="134.69" x2="331.22" y2="134.69" gradientUnits="userSpaceOnUse"><stop offset="0" stop-color="#e6f5fd"/><stop offset="0.57" stop-color="#fff"/></linearGradient></defs><title>Themengruppe_4_baufoerderer_kaufen</title><g id="Ebene_4" data-name="Ebene 4"><rect class="cls-1" width="1120" height="210"/></g><g id="Ebene_2" data-name="Ebene 2"><path class="cls-2" d="M950.19,177.29c2.57,1.15-754.34,2-754.34,2,7.26,1.69,83.89-98.42,371.23-98.42C814.8,80.85,840.54,128.08,950.19,177.29Z" transform="translate(0.23 0)"/><path class="cls-3" d="M1029.14,200.88C1031.71,202,67,198,67,198c7.26,1.7,287.32-77.58,476.6-75.05C791.34,126.24,919.48,151.68,1029.14,200.88Z" transform="translate(0.23 0)"/><polygon class="cls-4" points="0.22 191.83 0.11 210.06 1119.89 210.94 1120.11 192.27 0.22 191.83"/><polygon class="cls-5" points="0.22 173.83 0.11 192.06 1119.89 192.94 1120.11 174.27 0.22 173.83"/></g><g id="Ebene_1" data-name="Ebene 1"><g id="Wolke"><ellipse class="cls-6" cx="979.96" cy="57.96" rx="8.02" ry="7.44"/><rect class="cls-6" x="965.79" y="58.59" width="77.37" height="12.75" rx="6.05" transform="translate(2009.18 129.94) rotate(180)"/><path class="cls-6" d="M1021.84,61.39c0,5.22,7.74,10,13.51,10s9.11-3.11,9.11-8.33-2-12.31-10.58-13C1023.66,49.12,1021.84,56.17,1021.84,61.39Z" transform="translate(0.23 0)"/><path class="cls-6" d="M982.46,52.15c-.56,7.1,7.61,11.9,21.14,14s25.2-1.93,26.08-9-7.12-19.31-22.65-19.67S983.27,41.83,982.46,52.15Z" transform="translate(0.23 0)"/></g><g id="Baum"><path class="cls-7" d="M759.78,90.94c.09,2.37,2.38,4.27,5.21,4.26s5.22-1.91,5.22-4.26-2.34-4.26-5.22-4.26S759.69,88.59,759.78,90.94Z" transform="translate(0.23 0)"/><path class="cls-7" d="M754.76,84.35c.48,2.32,3.64,3.11,6.52,3.11s6.43-1.62,6.43-4-2.24-4.82-6.43-4.55C758.41,79.13,754,80.57,754.76,84.35Z" transform="translate(0.23 0)"/><path class="cls-7" d="M760.52,86.63c0,2.35,2.6,5.2,5.48,5.2s8-2.49,5.82-6.46c-1-1.7-2.79-3.25-6.35-2.81C762.62,82.92,760.52,84.28,760.52,86.63Z" transform="translate(0.23 0)"/><ellipse class="cls-7" cx="756.96" cy="87.82" rx="5.21" ry="4.26"/><path class="cls-7" d="M753.81,91.54c0,2.35,2.29,4.3,5.17,4.3s5.33-2.31,5.33-4.66-2.34-4.26-5.22-4.26S753.81,89.19,753.81,91.54Z" transform="translate(0.23 0)"/><path class="cls-8" d="M762,107.65h0a2.56,2.56,0,0,0,1.58-.4L763,94.15c-.19-.52-.4-.22-.93-.22a1.21,1.21,0,0,1-.68-.21c-.22-.15-.54-.36-.55,0l-.36,13C760.45,107.36,761.15,107.65,762,107.65Z" transform="translate(0.23 0)"/></g><path class="cls-9" d="M404.3,177.67H380.17c-.34-.53-1-1.69-1.92-3.5l-1.76-3.28a305.53,305.53,0,0,0-16-27l-7.86,9.32v24.42H331.22v-86h21.42v36.23l26.85-36.23h23.34l-28.2,37.08q3.67,5.13,9.27,14.41t13.68,23.06l3.05,5.2Z" transform="translate(0.23 0)"/><path class="cls-9" d="M460.43,161.62h-30l-4.52,16H403.34l30-86h24.53l30.18,86H465.17Zm-4.47-15-8-26.54-2.82-11-2.89,11-7.63,26.54Z" transform="translate(0.23 0)"/><path class="cls-9" d="M495,91.65h21.36l-.16,46.73q-.06,8.77,1.55,13.66c1.07,3.25,2.67,5.52,4.78,6.81a15.74,15.74,0,0,0,8.25,1.92,15.06,15.06,0,0,0,8.19-2c2.11-1.34,3.7-3.64,4.75-6.92s1.58-7.76,1.58-13.46V91.65h21.26v49.81q0,17.58-8.68,26.92T531,177.73q-19.11,0-27.72-9.57t-8.57-27Z" transform="translate(0.23 0)"/><path class="cls-9" d="M637.73,91.65v16H605.51v20.52H630v16H605.51v33.46H584v-86Z" transform="translate(0.23 0)"/><path class="cls-9" d="M704.14,91.65v16H671.08v18.2h25.49v15.66H671.08v19.66h36.45v16.45H649.77v-86Z" transform="translate(0.23 0)"/><path class="cls-9" d="M794.18,91.65v86H772.53l-27.86-46.06-6.28-13.06,2.66,21.93v37.19h-19.5v-86h20.12L771,138.84l6,12.55-2.32-21.87V91.65Z" transform="translate(0.23 0)"/><g id="Busch"><path class="cls-10" d="M418.2,181.09c0,4.28-6.94,4.36-15.5,4.36s-16-.08-16-4.36,7.43-15,16-15S418.2,176.81,418.2,181.09Z" transform="translate(0.23 0)"/><path class="cls-10" d="M404.46,176.35c0,7.62-6.75,4.9-18.81,4.9s-18.87.55-18.87-7.07,7.93-18.77,20-18.77S404.46,168.73,404.46,176.35Z" transform="translate(0.23 0)"/><path class="cls-10" d="M376.73,179.12c0,4.65-5.21,3-14.51,3s-14.56.34-14.56-4.31,6.12-11.45,15.42-11.45A13.6,13.6,0,0,1,376.73,179.12Z" transform="translate(0.23 0)"/></g><g id="Baum-2" data-name="Baum"><path class="cls-11" d="M419.06,84.6a8.37,8.37,0,0,1-8.26,8.26,8.26,8.26,0,1,1,0-16.51A8.17,8.17,0,0,1,419.06,84.6Z" transform="translate(0.23 0)"/><path class="cls-11" d="M427,71.83c-.75,4.5-5.76,6-10.32,6s-10.19-3.13-10.19-7.69,3.56-9.36,10.19-8.83C421.23,61.69,428.23,64.49,427,71.83Z" transform="translate(0.23 0)"/><path class="cls-11" d="M417.89,76.24c0,4.56-4.12,10.08-8.68,10.08S396.48,81.49,400,73.81c1.51-3.32,4.42-6.32,10.06-5.45C414.56,69.05,417.89,71.68,417.89,76.24Z" transform="translate(0.23 0)"/><circle class="cls-11" cx="424.11" cy="78.56" r="8.26"/><path class="cls-11" d="M428.51,85.76a8.26,8.26,0,0,1-8.18,8.34c-4.56,0-8.44-4.47-8.44-9a8.25,8.25,0,0,1,8.25-8.26C424.7,76.81,428.51,81.2,428.51,85.76Z" transform="translate(0.23 0)"/><path class="cls-8" d="M415.54,117h0a3.62,3.62,0,0,1-2.51-.78l1-25.4c.31-1,.64-.42,1.48-.42a1.73,1.73,0,0,0,1.07-.41c.35-.29.86-.7.88-.09l.57,25.17C418,116.44,416.89,117,415.54,117Z" transform="translate(0.23 0)"/></g><g id="Wolke-2" data-name="Wolke"><ellipse class="cls-6" cx="537.42" cy="39.41" rx="10.86" ry="9.05"/><rect class="cls-6" x="451.61" y="40.18" width="104.68" height="15.51" rx="7.75"/><path class="cls-6" d="M480.22,43.58c0,6.34-10.46,12.11-18.27,12.11s-12.33-3.78-12.33-10.13,2.64-15,14.31-15.85C477.77,28.66,480.22,37.23,480.22,43.58Z" transform="translate(0.23 0)"/><path class="cls-6" d="M533.51,32.35c.75,8.63-10.31,14.46-28.61,17S470.81,47,469.61,38.44,479.25,15,500.26,14.51,532.4,19.8,533.51,32.35Z" transform="translate(0.23 0)"/></g><g id="Wolke-3" data-name="Wolke"><ellipse class="cls-6" cx="137.63" cy="48.06" rx="9.38" ry="6.29"/><rect class="cls-6" x="63.51" y="48.6" width="90.42" height="10.78" rx="5.39"/><path class="cls-6" d="M88.19,51c0,4.41-9,8.42-15.78,8.42s-10.65-2.63-10.65-7,2.28-10.4,12.36-11C86.07,40.6,88.19,46.56,88.19,51Z" transform="translate(0.23 0)"/><path class="cls-6" d="M134.21,43.16c.66,6-8.9,10.05-24.7,11.82S80.06,53.36,79,47.39s8.33-16.31,26.48-16.62S133.26,34.44,134.21,43.16Z" transform="translate(0.23 0)"/></g><g id="Busch-2" data-name="Busch"><path class="cls-10" d="M597.2,185.09c0,4.28-6.94,4.36-15.5,4.36s-16-.08-16-4.36,7.43-15,16-15S597.2,180.81,597.2,185.09Z" transform="translate(0.23 0)"/><path class="cls-10" d="M584.46,184.35c0,7.62-6.75,4.9-18.81,4.9s-18.87.55-18.87-7.07,7.93-18.77,20-18.77S584.46,176.73,584.46,184.35Z" transform="translate(0.23 0)"/><path class="cls-10" d="M556.73,187.12c0,4.65-5.21,3-14.51,3s-14.56.34-14.56-4.31,6.12-11.45,15.42-11.45A13.6,13.6,0,0,1,556.73,187.12Z" transform="translate(0.23 0)"/></g><rect class="cls-12" x="185.23" y="136.16" width="18.59" height="39.53"/><rect class="cls-12" x="272.3" y="136.43" width="21.8" height="23.78"/><rect class="cls-12" x="231.46" y="137.01" width="21.8" height="23.78"/><path class="cls-13" d="M288.37,70.59V56.66h1.54V52.88H277v4.3h1.54v5.33L260.85,48.06,208.92,90.37l4.82,2.75v83.57h93.71V93.63l4.82-2.75Zm-44,88.9H232.48V138.17h11.86Zm0-40.58H232.48V97.42h11.86Zm44.54,40.58H277V138.17h11.86Zm0-40.58H277V97.42h11.86Z" transform="translate(0.23 0)"/><path class="cls-13" d="M145.3,110.83,140,122.69v2.07h5.33v51.93h42.3V143h16v33.71h10.15V110.83Zm20.29,43.85H153.9V136.62h11.86v18.06Zm14.44,0H168.17V136.62H180Z" transform="translate(0.23 0)"/><path class="cls-14" d="M167.74,134.42a9.9,9.9,0,0,0-8.74-9.74,9.94,9.94,0,0,0-9.17-6.45,9.75,9.75,0,0,0-5,1.44,9.84,9.84,0,0,0-8.6-5,9.72,9.72,0,0,0-9.6,8.31c-.43,0-.86-.14-1.15-.14a9.75,9.75,0,0,0-9.74,9.74v.72a9.83,9.83,0,0,0-1,15.9v.57a9.75,9.75,0,0,0,9.74,9.74,9.36,9.36,0,0,0,4.44-1.14c1.86,1.29,4.59,3,5.88,2.72,0,0,.43,7.45.43,9.31-.15,3.59-1.29,7.6-2,10.89H145s-1.72-7.3-1.86-9.6a37.22,37.22,0,0,1,.71-6.87l4.16-4.3a9.27,9.27,0,0,0,5.58,1.72,9.91,9.91,0,0,0,9.75-8.74,10,10,0,0,0,6.44-9.17,10.24,10.24,0,0,0-2.43-6.45A22.86,22.86,0,0,0,167.74,134.42Zm-36.68,22.5a12.66,12.66,0,0,0,2-2.58l1.86,4S133.93,158.78,131.06,156.92Zm7.31,2.57c-1,.15-2.72-2.86-3.87-5.44a9.18,9.18,0,0,0,4.44,1,2.88,2.88,0,0,0,1.15-.14C139.8,157.06,139.23,159.21,138.37,159.49Zm4.15,1.87c-2.29.57-.86-4.16-.28-6.88.43-.14,1-.43,1.43-.57a10.17,10.17,0,0,0,2.43,5.3A11.83,11.83,0,0,1,142.52,161.36Z" transform="translate(0.23 0)"/><path class="cls-15" d="M275.34,178c0,4.75-7.71,4.84-17.21,4.84s-17.75-.09-17.75-4.84,8.24-16.67,17.75-16.67S275.34,173.24,275.34,178Z" transform="translate(0.23 0)"/><path class="cls-15" d="M306.71,178.17c0,3.79-4.24,2.44-11.81,2.44s-11.85.27-11.85-3.51,5-9.33,12.55-9.33A11.07,11.07,0,0,1,306.71,178.17Z" transform="translate(0.23 0)"/><path class="cls-15" d="M290.43,179.8c0,3.78-4.24,2.43-11.81,2.43s-11.86.28-11.86-3.51,5-9.32,12.55-9.32A11.07,11.07,0,0,1,290.43,179.8Z" transform="translate(0.23 0)"/><polygon class="cls-16" points="904.24 49.59 853.32 100.17 853.32 173 955.47 173 955.47 100.17 904.24 49.59"/><path class="cls-17" d="M968.13,102.75,909.48,44.11c-2.57-2.58-7.41-2.58-11,0l-58.65,58.64c-2.58,2.58-2.58,7.41,0,11,2.58,2.58,7.41,2.58,11,0L904,59.9l53.16,53.16a8.71,8.71,0,0,0,11,0A7.2,7.2,0,0,0,968.13,102.75Z" transform="translate(0.23 0)"/><path class="cls-14" d="M855.35,119.83a16.69,16.69,0,0,0,2.25-8,14.44,14.44,0,0,0-5.15-11.28,14.91,14.91,0,0,0,3.22-9.35c0-5.48-2.9-10.31-6.77-11.92h0c0-7.09-4.51-12.89-10.31-12.89s-10.31,5.8-10.31,12.89v1c-3.87,1.93-6.44,6.44-6.44,11.92a21.89,21.89,0,0,0,.64,4.51c-2.9,2.26-4.83,6.45-4.83,11a14.89,14.89,0,0,0,3.22,9.34,21.7,21.7,0,0,0-6.12,15.15c0,9,4.83,16.43,11.6,18.36a14.34,14.34,0,0,0,8.38,3.87l-1,20.94s1.93,1.62,5.16.33V153.67a12.07,12.07,0,0,0,2.9-1.29,7.1,7.1,0,0,0,2.57.32c8.38,0,15.15-8.38,15.15-19A19.84,19.84,0,0,0,855.35,119.83Z" transform="translate(0.23 0)"/><path class="cls-6" d="M929.78,119.51H905.29a2.54,2.54,0,0,1-2.57-2.58V100.5a2.54,2.54,0,0,1,2.57-2.58h24.17A2.55,2.55,0,0,1,932,100.5v16.43A2.49,2.49,0,0,1,929.78,119.51Z" transform="translate(0.23 0)"/><path class="cls-6" d="M916.57,172.35H892.41a2.54,2.54,0,0,1-2.58-2.57V132.4a2.54,2.54,0,0,1,2.58-2.58h24.16a2.55,2.55,0,0,1,2.58,2.58v37.7A3.11,3.11,0,0,1,916.57,172.35Z" transform="translate(0.23 0)"/><circle class="cls-13" cx="917.12" cy="100.18" r="7.73"/><path class="cls-13" d="M916.89,107.91a11.2,11.2,0,0,0-11.27,11.28h22.87A11.28,11.28,0,0,0,916.89,107.91Z" transform="translate(0.23 0)"/><path class="cls-18" d="M977.15,185.57H831.83a5.43,5.43,0,0,1-5.48-5.48h0a5.44,5.44,0,0,1,5.48-5.48H977.15a5.44,5.44,0,0,1,5.48,5.48h0A5.65,5.65,0,0,1,977.15,185.57Z" transform="translate(0.23 0)"/></g></svg>