<svg xmlns="http://www.w3.org/2000/svg" xmlns:xlink="http://www.w3.org/1999/xlink" viewBox="0 0 1120.11 210.94"><defs><style>.cls-1{fill:url(#Unbenannter_Verlauf_8);}.cls-2{fill:#78842c;}.cls-12,.cls-2,.cls-3,.cls-4,.cls-5{fill-rule:evenodd;}.cls-3{fill:#dbe8b7;}.cls-18,.cls-4{fill:#9aa541;}.cls-5{fill:#bdd252;}.cls-6{fill:#bdd0d7;}.cls-12,.cls-7{fill:#5d767c;}.cls-8{fill:#465626;}.cls-9{fill:#fff;}.cls-10{fill:#78929b;}.cls-11{fill:#4a5e63;}.cls-13{fill:#3c491d;}.cls-14{fill:#432918;}.cls-15{fill:url(#Unbenannter_Verlauf_14);}.cls-16{fill:#acbcc1;}.cls-17{fill:#495d61;}.cls-19{fill:#bcd251;}.cls-20{fill:#95c11f;}.cls-21{fill:#251710;}</style><linearGradient id="Unbenannter_Verlauf_8" x1="371.58" y1="-45.94" x2="1063.13" y2="508.03" gradientUnits="userSpaceOnUse"><stop offset="0" stop-color="#e5f3f4"/><stop offset="0.08" stop-color="#e0f1f5"/><stop offset="0.19" stop-color="#d0ebf8"/><stop offset="0.23" stop-color="#c7e8fa"/></linearGradient><linearGradient id="Unbenannter_Verlauf_14" x1="779.4" y1="135.68" x2="343.11" y2="135.68" gradientUnits="userSpaceOnUse"><stop offset="0" stop-color="#e6f5fd"/><stop offset="0.57" stop-color="#fff"/></linearGradient></defs><title>Themengruppe_3_baufoerderer_umbauen</title><g id="Ebene_4" data-name="Ebene 4"><rect class="cls-1" width="1120" height="210"/></g><g id="Ebene_2" data-name="Ebene 2"><path class="cls-2" d="M950.19,177.29c2.57,1.15-754.34,2-754.34,2,7.26,1.69,83.89-98.42,371.23-98.42C814.8,80.85,840.54,128.08,950.19,177.29Z" transform="translate(0.23 0)"/><path class="cls-3" d="M1029.14,200.88C1031.71,202,67,198,67,198c7.26,1.7,287.32-77.58,476.6-75.05C791.34,126.24,919.48,151.68,1029.14,200.88Z" transform="translate(0.23 0)"/><polygon class="cls-4" points="0.22 191.83 0.11 210.06 1119.89 210.94 1120.11 192.27 0.22 191.83"/><polygon class="cls-5" points="0.22 173.83 0.11 192.06 1119.89 192.94 1120.11 174.27 0.22 173.83"/></g><g id="Ebene_1" data-name="Ebene 1"><polygon class="cls-6" points="260.18 37.78 205.67 91.96 205.67 170.13 315.04 170.13 315.04 91.96 260.18 37.78"/><path class="cls-7" d="M328.87,95,266.12,32.3c-3.08-3.09-7.88-3.09-11.65,0L191.38,95c-3.09,3.09-3.09,7.89,0,11.66,3.08,3.09,7.88,3.09,11.66,0L260,49.1,316.87,106a9.31,9.31,0,0,0,11.66,0C331.61,102.93,331.61,97.79,328.87,95Z" transform="translate(0.23 0)"/><path class="cls-8" d="M207.84,113.22a17.85,17.85,0,0,0,2.4-8.58,15.37,15.37,0,0,0-5.49-12,16.09,16.09,0,0,0,3.43-10.28c0-5.83-3.09-11-7.2-13h0c0-7.54-4.8-13.72-11-13.72s-11,6.18-11,13.72v1c-4.12,2-6.86,6.85-6.86,12.68a23.24,23.24,0,0,0,.68,4.8c-3.08,2.4-5.14,6.86-5.14,11.66a15.81,15.81,0,0,0,3.43,9.94c-4.12,3.78-6.52,9.6-6.52,16.12,0,9.6,5.15,17.49,12.35,19.54a15.37,15.37,0,0,0,9.26,4.12l-1,22.63s2,1.71,5.48.34V148.87a12,12,0,0,0,3.09-1.37,7.39,7.39,0,0,0,2.74.35c8.92,0,16.12-9.26,16.12-20.23A22.79,22.79,0,0,0,207.84,113.22Z" transform="translate(0.23 0)"/><path class="cls-9" d="M299.1,147.38H261.73a2.71,2.71,0,0,1-2.74-2.75v-28.8a2.7,2.7,0,0,1,2.74-2.74H299.1a2.71,2.71,0,0,1,2.75,2.74v28.8C301.5,146.35,300.48,147.38,299.1,147.38Z" transform="translate(0.23 0)"/><path class="cls-9" d="M247.61,169.45H221.55a2.71,2.71,0,0,1-2.74-2.75V126.25a2.71,2.71,0,0,1,2.74-2.75h26.06a2.71,2.71,0,0,1,2.74,2.75V166.7A3,3,0,0,1,247.61,169.45Z" transform="translate(0.23 0)"/><circle class="cls-10" cx="281.44" cy="124.53" r="9.26"/><path class="cls-10" d="M281.21,133.79A13.75,13.75,0,0,0,267.5,147.5h27.77A14.29,14.29,0,0,0,281.21,133.79Z" transform="translate(0.23 0)"/><path class="cls-11" d="M290.82,124.81c-1.21,1.53-1.49-6.57-4.94-6.91-1.15-.11-.6.5-1.83,1-5.28,2.23-5.88.56-7.32.81-2.72.47-4.27,4.68-5.62,4.4-1.12-.22.34-10,10.91-9.68C289.06,114.65,292.65,122.51,290.82,124.81Z" transform="translate(0.23 0)"/><path class="cls-11" d="M289,118.15c0,.7-.84-1.34-2.48-1.34s-2.37-.93-2.37-1.64,1.85-1.71,3.34-1C289.68,115.17,289,117.44,289,118.15Z" transform="translate(0.23 0)"/><path class="cls-12" d="M338.47,180.76H182.12a5.78,5.78,0,0,1-5.83-5.83h0a5.78,5.78,0,0,1,5.83-5.83h156a5.78,5.78,0,0,1,5.83,5.83h0A5.5,5.5,0,0,1,338.47,180.76Z" transform="translate(0.23 0)"/><g id="Wolke"><ellipse class="cls-9" cx="991.71" cy="61.98" rx="8.02" ry="7.44"/><rect class="cls-9" x="977.54" y="62.62" width="77.37" height="12.75" rx="6.05" transform="translate(2032.68 137.99) rotate(180)"/><path class="cls-9" d="M1033.59,65.41c0,5.22,7.73,10,13.51,10s9.11-3.11,9.11-8.33-2-12.31-10.58-13C1035.4,53.15,1033.59,60.19,1033.59,65.41Z" transform="translate(0.23 0)"/><path class="cls-9" d="M994.21,56.18c-.56,7.1,7.61,11.89,21.14,14s25.2-1.93,26.08-9-7.12-19.32-22.65-19.68S995,45.86,994.21,56.18Z" transform="translate(0.23 0)"/></g><g id="Baum"><path class="cls-13" d="M534,87.41c.14,3.73,3.75,6.72,8.21,6.7s8.21-3,8.21-6.7-3.67-6.7-8.21-6.7S533.89,83.71,534,87.41Z" transform="translate(0.23 0)"/><path class="cls-13" d="M526.13,77c.75,3.65,5.73,4.88,10.26,4.88s10.14-2.54,10.14-6.24-3.54-7.59-10.14-7.16C531.87,68.81,524.91,71.08,526.13,77Z" transform="translate(0.23 0)"/><path class="cls-13" d="M535.2,80.62c0,3.7,4.08,8.18,8.62,8.18s12.66-3.92,9.17-10.16c-1.51-2.69-4.39-5.12-10-4.42C538.51,74.78,535.2,76.92,535.2,80.62Z" transform="translate(0.23 0)"/><ellipse class="cls-13" cx="529.47" cy="82.5" rx="8.21" ry="6.7"/><path class="cls-13" d="M524.63,88.35c0,3.7,3.61,6.77,8.14,6.77s8.39-3.63,8.39-7.34-3.68-6.7-8.21-6.7S524.63,84.65,524.63,88.35Z" transform="translate(0.23 0)"/><path class="cls-14" d="M537.53,113.72h0a4.09,4.09,0,0,0,2.49-.64l-1-20.61c-.31-.82-.64-.35-1.47-.35a1.91,1.91,0,0,1-1.06-.33c-.35-.24-.86-.57-.88-.07l-.57,20.43C535.08,113.25,536.18,113.72,537.53,113.72Z" transform="translate(0.23 0)"/></g><path class="cls-15" d="M343.34,92.64H364.7l-.16,46.73q-.06,8.77,1.55,13.66c1.07,3.25,2.67,5.52,4.78,6.81a15.74,15.74,0,0,0,8.25,1.92,15.06,15.06,0,0,0,8.19-2c2.11-1.34,3.7-3.64,4.75-6.92s1.58-7.76,1.58-13.46V92.64H414.9v49.81q0,17.58-8.68,26.92t-26.82,9.35q-19.11,0-27.72-9.57t-8.57-27Z" transform="translate(0.23 0)"/><path class="cls-15" d="M465.2,92.64l10.45,44.14,3.9,20.07,3.11-20.07,9.27-44.14h28.21l11,86H510.41l-4-45.72-1.3-24.76-5.37,25.25-11.53,45.23H469.21l-12.55-45.23L451,108.18l-1.47,24.76-3.39,45.72H426.26l9.94-86Z" transform="translate(0.23 0)"/><path class="cls-15" d="M554.9,92.64h20.51q17.3,0,25.18,5.56t7.89,15.93a21.28,21.28,0,0,1-3.31,11.92,16,16,0,0,1-9.58,6.78,21.46,21.46,0,0,1,9,3.13,17.92,17.92,0,0,1,6.24,6.67,19.32,19.32,0,0,1,2.27,9.41,28.46,28.46,0,0,1-3.31,14.16q-3.32,5.85-11.19,9.16t-21.17,3.3H544.44v-86ZM584.6,125Q588,122.4,588,116.1q0-5-3.67-7.09t-11.14-2.13h-4.24a7.64,7.64,0,0,0-3.11.39v20a51.07,51.07,0,0,0,8.31.43Q581.24,127.68,584.6,125Zm2.82,37q3.6-3,3.59-9.59,0-5.69-3.7-8.52t-11.73-2.84h-5.79a14.22,14.22,0,0,0-4,.34v22.27a10.38,10.38,0,0,0,4.19,1q3.16.32,6.33.32Q583.84,165,587.42,162Z" transform="translate(0.23 0)"/><path class="cls-15" d="M673.31,162.61h-30l-4.52,16H616.22l30-86h24.53l30.18,86H678.05Zm-4.47-15-8-26.54-2.82-11-2.89,11-7.63,26.54Z" transform="translate(0.23 0)"/><path class="cls-15" d="M707.84,92.64h21.37L729,139.37q-.06,8.77,1.55,13.66c1.07,3.25,2.67,5.52,4.78,6.81a15.74,15.74,0,0,0,8.25,1.92,15.06,15.06,0,0,0,8.19-2c2.11-1.34,3.7-3.64,4.75-6.92s1.58-7.76,1.58-13.46V92.64H779.4v49.81q0,17.58-8.68,26.92t-26.82,9.35q-19.11,0-27.72-9.57t-8.57-27Z" transform="translate(0.23 0)"/><rect class="cls-16" x="947.61" y="117.41" width="81.42" height="58.62"/><rect class="cls-7" x="952.4" y="116.45" width="83.23" height="9.91" rx="4.95"/><polygon class="cls-6" points="893.2 22.01 831.63 83.19 831.63 171.49 955.16 171.49 955.16 83.19 893.2 22.01"/><path class="cls-7" d="M971.85,86.89,901,16c-3.49-3.49-8.91-3.49-13.17,0L816.56,86.89c-3.49,3.48-3.49,8.91,0,13.17,3.48,3.48,8.9,3.48,13.16,0L894,35l64.28,64.28a10.51,10.51,0,0,0,13.17,0C975,95.8,975,90,971.85,86.89Z" transform="translate(0.23 0)"/><path class="cls-9" d="M889.16,145H846.94a3.05,3.05,0,0,1-3.09-3.1V109.35a3.05,3.05,0,0,1,3.09-3.1h42.22a3,3,0,0,1,3.09,3.1v32.53C891.87,143.82,890.71,145,889.16,145Z" transform="translate(0.23 0)"/><path class="cls-9" d="M936.54,171.91H907.11a3.05,3.05,0,0,1-3.1-3.09v-45.7a3.06,3.06,0,0,1,3.1-3.1h29.43a3.05,3.05,0,0,1,3.1,3.1v45.7A3.32,3.32,0,0,1,936.54,171.91Z" transform="translate(0.23 0)"/><path class="cls-12" d="M1031.68,183.45H760.07c-6,0-10.12-3-10.12-6.46h0c0-3.8,4.76-6.45,10.12-6.45h271c6,0,10.13,3,10.13,6.45h0C1041.8,180.41,1037,183.45,1031.68,183.45Z" transform="translate(0.23 0)"/><rect class="cls-17" x="224.15" y="179.25" width="100.86" height="3.63" rx="1.23" transform="translate(43.41 -52.68) rotate(11.89)"/><path class="cls-18" d="M218.19,177.29c0,6.46-10.48,6.58-23.4,6.58s-24.13-.12-24.13-6.58,11.21-22.66,24.13-22.66S218.19,170.83,218.19,177.29Z" transform="translate(0.23 0)"/><path class="cls-18" d="M260.84,177.54c0,5.14-5.77,3.31-16.06,3.31s-16.11.37-16.11-4.78,6.77-12.67,17.06-12.67A15,15,0,0,1,260.84,177.54Z" transform="translate(0.23 0)"/><path class="cls-18" d="M238.7,179.75c0,5.15-5.76,3.31-16.06,3.31s-16.11.37-16.11-4.77,6.77-12.68,17.06-12.68A15,15,0,0,1,238.7,179.75Z" transform="translate(0.23 0)"/><g id="Busch"><path class="cls-19" d="M418.2,181.09c0,4.28-6.94,4.36-15.5,4.36s-16-.08-16-4.36,7.43-15,16-15S418.2,176.81,418.2,181.09Z" transform="translate(0.23 0)"/><path class="cls-19" d="M404.46,176.35c0,7.62-6.75,4.9-18.81,4.9s-18.87.55-18.87-7.07,7.93-18.77,20-18.77S404.46,168.73,404.46,176.35Z" transform="translate(0.23 0)"/><path class="cls-19" d="M376.73,179.12c0,4.65-5.21,3-14.51,3s-14.56.34-14.56-4.31,6.12-11.45,15.42-11.45A13.6,13.6,0,0,1,376.73,179.12Z" transform="translate(0.23 0)"/></g><g id="Baum-2" data-name="Baum"><path class="cls-20" d="M835.35,113.86a15.74,15.74,0,0,1-15.52,15.53,15.53,15.53,0,1,1,0-31C828.4,98.34,835.61,105.29,835.35,113.86Z" transform="translate(0.23 0)"/><path class="cls-20" d="M850.29,89.85c-1.42,8.45-10.83,11.31-19.41,11.31s-19.15-5.88-19.15-14.45,6.68-17.59,19.15-16.6C839.43,70.79,852.6,76.06,850.29,89.85Z" transform="translate(0.23 0)"/><path class="cls-20" d="M833.15,98.14c0,8.57-7.73,19-16.3,19s-24-9.08-17.34-23.53c2.84-6.22,8.3-11.87,18.9-10.24C826.89,84.62,833.15,89.57,833.15,98.14Z" transform="translate(0.23 0)"/><circle class="cls-20" cx="844.64" cy="102.5" r="15.52"/><path class="cls-20" d="M853.13,116a15.54,15.54,0,0,1-15.39,15.67c-8.58,0-15.87-8.4-15.87-17a15.52,15.52,0,0,1,15.52-15.52C846,99.21,853.13,107.46,853.13,116Z" transform="translate(0.23 0)"/><path class="cls-14" d="M828.74,174.78h0c-2.55,0-4.63-1.08-4.71-1.48l1.82-47.73c.57-1.9,1.2-.8,2.78-.8a3.11,3.11,0,0,0,2-.77c.66-.55,1.63-1.32,1.66-.16l1.07,47.32C833.36,173.7,831.28,174.78,828.74,174.78Z" transform="translate(0.23 0)"/></g><g id="Wolke-2" data-name="Wolke"><ellipse class="cls-9" cx="677.56" cy="45.41" rx="10.86" ry="9.05"/><rect class="cls-9" x="591.74" y="46.18" width="104.68" height="15.51" rx="7.75"/><path class="cls-9" d="M620.36,49.58c0,6.35-10.46,12.11-18.28,12.11s-12.33-3.78-12.33-10.13,2.65-15,14.32-15.85C617.91,34.66,620.36,43.23,620.36,49.58Z" transform="translate(0.23 0)"/><path class="cls-9" d="M673.64,38.35c.76,8.63-10.3,14.46-28.6,17S610.94,53,609.75,44.44,619.39,21,640.4,20.52,672.54,25.8,673.64,38.35Z" transform="translate(0.23 0)"/></g><g id="Wolke-3" data-name="Wolke"><ellipse class="cls-9" cx="121.77" cy="49.06" rx="9.38" ry="6.29"/><rect class="cls-9" x="47.65" y="49.59" width="90.42" height="10.78" rx="5.39"/><path class="cls-9" d="M72.34,52c0,4.4-9,8.41-15.79,8.41s-10.65-2.63-10.65-7,2.28-10.4,12.36-11C70.22,41.59,72.34,47.55,72.34,52Z" transform="translate(0.23 0)"/><path class="cls-9" d="M118.36,44.15c.65,6-8.9,10.05-24.7,11.82S64.2,54.35,63.17,48.38,71.5,32.07,89.64,31.76,117.41,35.43,118.36,44.15Z" transform="translate(0.23 0)"/></g><g id="Leiter"><rect class="cls-14" x="615.87" y="109.15" width="10.45" height="2.1" rx="0.87" transform="translate(1232.58 -45.55) rotate(155.64)"/><rect class="cls-14" x="617.87" y="114.15" width="10.45" height="2.1" rx="0.87" transform="translate(1238.47 -36.82) rotate(155.64)"/><rect class="cls-14" x="618.87" y="120.15" width="10.45" height="2.1" rx="0.87" transform="translate(1242.85 -25.77) rotate(155.64)"/><rect class="cls-14" x="620.87" y="125.15" width="10.45" height="2.1" rx="0.87" transform="translate(1248.74 -17.04) rotate(155.64)"/><rect class="cls-14" x="623.36" y="130.15" width="10.45" height="2.1" rx="0.87" transform="translate(1255.57 -8.51) rotate(155.64)"/><rect class="cls-14" x="623.87" y="136.15" width="10.45" height="2.1" rx="0.87" transform="translate(-0.36 271.65) rotate(-24.36)"/><rect class="cls-14" x="626.87" y="142.15" width="10.45" height="2.1" rx="0.87" transform="translate(-2.57 273.42) rotate(-24.36)"/><rect class="cls-14" x="627.87" y="149.15" width="10.45" height="2.1" rx="0.87" transform="translate(-5.37 274.46) rotate(-24.36)"/><rect class="cls-14" x="629.87" y="155.15" width="10.45" height="2.1" rx="0.87" transform="translate(1278.31 36.58) rotate(155.64)"/><rect class="cls-14" x="631.87" y="161.15" width="10.45" height="2.1" rx="0.87" transform="translate(1284.6 47.22) rotate(155.64)"/><rect class="cls-14" x="633.87" y="167.15" width="10.45" height="2.1" rx="0.87" transform="translate(1290.9 57.87) rotate(155.64)"/><rect class="cls-14" x="635.87" y="173.15" width="10.45" height="2.1" rx="0.87" transform="translate(1297.2 68.51) rotate(155.64)"/><rect class="cls-21" x="609.47" y="101.45" width="3.96" height="82.35" rx="1.98" transform="translate(1152.53 461.52) rotate(-162.61)"/><rect class="cls-14" x="633.47" y="100.45" width="3.96" height="82.35" rx="1.98" transform="translate(-13.05 196.45) rotate(-17.39)"/><rect class="cls-14" x="601.47" y="105.45" width="3.96" height="82.35" rx="1.98" transform="translate(1135.7 466.95) rotate(-162.61)"/><rect class="cls-14" x="625.47" y="104.45" width="3.96" height="82.35" rx="1.98" transform="matrix(0.95, -0.3, 0.3, 0.95, -14.61, 194.24)"/></g><g id="Busch-2" data-name="Busch"><path class="cls-19" d="M597.2,185.09c0,4.28-6.94,4.36-15.5,4.36s-16-.08-16-4.36,7.43-15,16-15S597.2,180.81,597.2,185.09Z" transform="translate(0.23 0)"/><path class="cls-19" d="M584.46,184.35c0,7.62-6.75,4.9-18.81,4.9s-18.87.55-18.87-7.07,7.93-18.77,20-18.77S584.46,176.73,584.46,184.35Z" transform="translate(0.23 0)"/><path class="cls-19" d="M556.73,187.12c0,4.65-5.21,3-14.51,3s-14.56.34-14.56-4.31,6.12-11.45,15.42-11.45A13.6,13.6,0,0,1,556.73,187.12Z" transform="translate(0.23 0)"/></g></g></svg>