<svg xmlns="http://www.w3.org/2000/svg" xmlns:xlink="http://www.w3.org/1999/xlink" viewBox="0 0 1120.11 210.94"><defs><style>.cls-1{fill:url(#Unbenannter_Verlauf_8);}.cls-2{fill:#78842c;}.cls-18,.cls-19,.cls-2,.cls-20,.cls-3,.cls-4,.cls-5{fill-rule:evenodd;}.cls-3{fill:#dbe8b7;}.cls-21,.cls-4{fill:#9aa541;}.cls-5{fill:#bdd252;}.cls-6{fill:#fff;}.cls-7{fill:#3c491d;}.cls-8{fill:#432918;}.cls-9{fill:url(#Unbenannter_Verlauf_14);}.cls-10{fill:#bcd251;}.cls-11{fill:#95c11f;}.cls-12{fill:#bdd0d7;}.cls-13{fill:#5d767c;}.cls-14{fill:#e5f3f4;}.cls-15,.cls-18{fill:#78929b;}.cls-16{fill:none;stroke:#95c11f;stroke-miterlimit:10;stroke-width:4px;}.cls-17{fill:#8ea225;}.cls-19,.cls-23{fill:#4a5e63;}.cls-20{fill:#c7e8fa;}.cls-22{fill:#364649;}.cls-24{fill:#dee699;opacity:0.4;isolation:isolate;}</style><linearGradient id="Unbenannter_Verlauf_8" x1="371.58" y1="-45.94" x2="1063.13" y2="508.03" gradientUnits="userSpaceOnUse"><stop offset="0" stop-color="#e5f3f4"/><stop offset="0.08" stop-color="#e0f1f5"/><stop offset="0.19" stop-color="#d0ebf8"/><stop offset="0.23" stop-color="#c7e8fa"/></linearGradient><linearGradient id="Unbenannter_Verlauf_14" x1="791.69" y1="134.37" x2="361.52" y2="134.37" gradientUnits="userSpaceOnUse"><stop offset="0" stop-color="#e6f5fd"/><stop offset="0.57" stop-color="#fff"/></linearGradient></defs><title>Themengruppe_2_baufoerderer_bauen</title><g id="Ebene_4" data-name="Ebene 4"><rect class="cls-1" width="1120" height="210"/></g><g id="Ebene_2" data-name="Ebene 2"><path class="cls-2" d="M950.19,177.29c2.57,1.15-754.34,2-754.34,2,7.26,1.69,83.89-98.42,371.23-98.42C814.8,80.85,840.54,128.08,950.19,177.29Z" transform="translate(0.23 0)"/><path class="cls-3" d="M1029.14,200.88C1031.71,202,67,198,67,198c7.26,1.7,287.32-77.58,476.6-75.05C791.34,126.24,919.48,151.68,1029.14,200.88Z" transform="translate(0.23 0)"/><polygon class="cls-4" points="0.22 191.83 0.11 210.06 1119.89 210.94 1120.11 192.27 0.22 191.83"/><polygon class="cls-5" points="0.22 173.83 0.11 192.06 1119.89 192.94 1120.11 174.27 0.22 173.83"/></g><g id="Ebene_1" data-name="Ebene 1"><g id="Wolke"><ellipse class="cls-6" cx="991.71" cy="61.98" rx="8.02" ry="7.44"/><rect class="cls-6" x="977.54" y="62.62" width="77.37" height="12.75" rx="6.05" transform="translate(2032.68 137.99) rotate(180)"/><path class="cls-6" d="M1033.59,65.41c0,5.22,7.73,10,13.51,10s9.11-3.11,9.11-8.33-2-12.31-10.58-13C1035.4,53.15,1033.59,60.19,1033.59,65.41Z" transform="translate(0.23 0)"/><path class="cls-6" d="M994.21,56.18c-.56,7.1,7.61,11.89,21.14,14s25.2-1.93,26.08-9-7.12-19.32-22.65-19.68S995,45.86,994.21,56.18Z" transform="translate(0.23 0)"/></g><g id="Baum"><path class="cls-7" d="M522.57,91.34c.14,3.73,3.76,6.71,8.21,6.7s8.21-3,8.21-6.7-3.67-6.71-8.21-6.71S522.44,87.64,522.57,91.34Z" transform="translate(0.23 0)"/><path class="cls-7" d="M514.67,81c.75,3.65,5.73,4.88,10.27,4.88s10.13-2.54,10.13-6.24-3.54-7.59-10.13-7.17C520.42,72.74,513.45,75,514.67,81Z" transform="translate(0.23 0)"/><path class="cls-7" d="M523.74,84.55c0,3.7,4.09,8.18,8.62,8.18s12.66-3.92,9.17-10.16c-1.5-2.69-4.39-5.13-10-4.42C527.05,78.71,523.74,80.84,523.74,84.55Z" transform="translate(0.23 0)"/><ellipse class="cls-7" cx="518.01" cy="86.43" rx="8.21" ry="6.7"/><path class="cls-7" d="M513.17,92.28c0,3.7,3.61,6.76,8.14,6.76s8.39-3.63,8.39-7.33S526,85,521.49,85,513.17,88.57,513.17,92.28Z" transform="translate(0.23 0)"/><path class="cls-8" d="M526.07,117.64h0a4.06,4.06,0,0,0,2.49-.63l-1-20.62c-.31-.82-.64-.34-1.47-.34a1.91,1.91,0,0,1-1.06-.33c-.35-.24-.86-.58-.88-.08l-.56,20.44C523.63,117.18,524.73,117.64,526.07,117.64Z" transform="translate(0.23 0)"/></g><path class="cls-9" d="M372.86,87.73h22.23q18.75,0,27.3,6T430.93,111a23.1,23.1,0,0,1-3.58,12.92A17.28,17.28,0,0,1,417,131.28a23.33,23.33,0,0,1,9.71,3.4,19.42,19.42,0,0,1,6.77,7.23,20.91,20.91,0,0,1,2.45,10.2,30.72,30.72,0,0,1-3.58,15.34q-3.58,6.35-12.13,9.93T397.24,181H361.52V87.73Zm32.19,35.11q3.65-2.85,3.64-9.69c0-3.58-1.32-6.14-4-7.68s-6.68-2.31-12.07-2.31h-4.59a8.29,8.29,0,0,0-3.37.42v21.66a55.54,55.54,0,0,0,9,.47Q401.4,125.71,405.05,122.84Zm3.06,40.1q3.9-3.21,3.89-10.4,0-6.15-4-9.24t-12.71-3.07H389a15.77,15.77,0,0,0-4.32.36v24.14a11.21,11.21,0,0,0,4.53,1.07,68.64,68.64,0,0,0,6.86.34Q404.23,166.14,408.11,162.94Z" transform="translate(0.23 0)"/><path class="cls-9" d="M501.2,163.57H468.67L463.77,181H439.32l32.47-93.23h26.59L531.09,181H506.34Zm-4.84-16.3-8.64-28.76-3.06-11.88-3.13,11.88-8.27,28.76Z" transform="translate(0.23 0)"/><path class="cls-9" d="M538.63,87.73h23.15l-.18,50.65q-.06,9.5,1.68,14.8t5.18,7.38a17,17,0,0,0,8.94,2.09,16.37,16.37,0,0,0,8.89-2.18q3.42-2.17,5.14-7.51t1.72-14.58V87.73h23v54q0,19-9.4,29.18T577.71,181q-20.7,0-30.05-10.37t-9.28-29.3Z" transform="translate(0.23 0)"/><path class="cls-9" d="M694.1,87.73v17.39H658.27v19.73H685.9v17H658.27v21.32h39.51V181H635.17V87.73Z" transform="translate(0.23 0)"/><path class="cls-9" d="M791.69,87.73V181H768.23L738,131l-6.8-14.16,2.88,23.77V181H713V87.73h21.81l31.79,51.15,6.5,13.6-2.51-23.71v-41Z" transform="translate(0.23 0)"/><g id="Busch"><path class="cls-10" d="M424.2,188.09c0,4.28-6.94,4.36-15.5,4.36s-16-.08-16-4.36,7.43-15,16-15S424.2,183.81,424.2,188.09Z" transform="translate(0.23 0)"/><path class="cls-10" d="M410.46,183.35c0,7.62-6.75,4.9-18.81,4.9s-18.87.55-18.87-7.07,7.93-18.77,20-18.77S410.46,175.73,410.46,183.35Z" transform="translate(0.23 0)"/><path class="cls-10" d="M382.73,186.12c0,4.65-5.21,3-14.51,3s-14.56.34-14.56-4.31,6.12-11.45,15.42-11.45A13.6,13.6,0,0,1,382.73,186.12Z" transform="translate(0.23 0)"/></g><g id="Baum-2" data-name="Baum"><path class="cls-11" d="M837.33,117.17a15.72,15.72,0,0,1-15.52,15.52,15.53,15.53,0,1,1,0-31C830.38,101.64,837.59,108.6,837.33,117.17Z" transform="translate(0.23 0)"/><path class="cls-11" d="M852.27,93.15c-1.42,8.45-10.83,11.31-19.41,11.31S813.71,98.58,813.71,90s6.69-17.59,19.15-16.6C841.41,74.09,854.58,79.36,852.27,93.15Z" transform="translate(0.23 0)"/><path class="cls-11" d="M835.13,101.44c0,8.58-7.73,19-16.3,19s-24-9.09-17.34-23.54c2.84-6.22,8.3-11.86,18.91-10.23C828.87,87.93,835.13,92.87,835.13,101.44Z" transform="translate(0.23 0)"/><circle class="cls-11" cx="846.62" cy="105.8" r="15.52"/><path class="cls-11" d="M855.11,119.34A15.54,15.54,0,0,1,839.72,135c-8.58,0-15.87-8.4-15.87-17a15.52,15.52,0,0,1,15.52-15.53C848,102.51,855.11,110.77,855.11,119.34Z" transform="translate(0.23 0)"/><path class="cls-8" d="M830.72,178.08h0c-2.55,0-4.63-1.08-4.71-1.47l1.82-47.74c.57-1.9,1.21-.79,2.78-.79a3.17,3.17,0,0,0,2-.78c.66-.55,1.62-1.32,1.65-.16l1.07,47.32C835.34,177,833.26,178.08,830.72,178.08Z" transform="translate(0.23 0)"/></g><g id="Wolke-2" data-name="Wolke"><ellipse class="cls-6" cx="677.56" cy="45.41" rx="10.86" ry="9.05"/><rect class="cls-6" x="591.74" y="46.18" width="104.68" height="15.51" rx="7.75"/><path class="cls-6" d="M620.36,49.58c0,6.35-10.46,12.11-18.28,12.11s-12.33-3.78-12.33-10.13,2.65-15,14.32-15.85C617.91,34.66,620.36,43.23,620.36,49.58Z" transform="translate(0.23 0)"/><path class="cls-6" d="M673.64,38.35c.76,8.63-10.3,14.46-28.6,17S610.94,53,609.75,44.44,619.39,21,640.4,20.52,672.54,25.8,673.64,38.35Z" transform="translate(0.23 0)"/></g><g id="Wolke-3" data-name="Wolke"><ellipse class="cls-6" cx="121.77" cy="49.06" rx="9.38" ry="6.29"/><rect class="cls-6" x="47.65" y="49.59" width="90.42" height="10.78" rx="5.39"/><path class="cls-6" d="M72.34,52c0,4.4-9,8.41-15.79,8.41s-10.65-2.63-10.65-7,2.28-10.4,12.36-11C70.22,41.59,72.34,47.55,72.34,52Z" transform="translate(0.23 0)"/><path class="cls-6" d="M118.36,44.15c.65,6-8.9,10.05-24.7,11.82S64.2,54.35,63.17,48.38,71.5,32.07,89.64,31.76,117.41,35.43,118.36,44.15Z" transform="translate(0.23 0)"/></g><g id="Busch-2" data-name="Busch"><path class="cls-10" d="M597.2,185.09c0,4.28-6.94,4.36-15.5,4.36s-16-.08-16-4.36,7.43-15,16-15S597.2,180.81,597.2,185.09Z" transform="translate(0.23 0)"/><path class="cls-10" d="M584.46,184.35c0,7.62-6.75,4.9-18.81,4.9s-18.87.55-18.87-7.07,7.93-18.77,20-18.77S584.46,176.73,584.46,184.35Z" transform="translate(0.23 0)"/><path class="cls-10" d="M556.73,187.12c0,4.65-5.21,3-14.51,3s-14.56.34-14.56-4.31,6.12-11.45,15.42-11.45A13.6,13.6,0,0,1,556.73,187.12Z" transform="translate(0.23 0)"/></g><path class="cls-12" d="M937.34,137.66v44.4H889.47a6.83,6.83,0,0,1-6.84-6.84V137.56h54.71Z" transform="translate(0.23 0)"/><path class="cls-13" d="M889.47,127.35a6.83,6.83,0,0,0-6.84,6.84v41a6.84,6.84,0,1,1,13.68,0v-41A6.82,6.82,0,0,0,889.47,127.35Z" transform="translate(0.23 0)"/><path class="cls-6" d="M904.94,168.38V157.44h1.68v-1.68h-3.36v2.52h-1.9v-10.2h2.95v-1.69h-4.63v23.78H908v-1.68l-3-.11Zm-1.79,0h-1.89v-.84h1.89Zm0-2.52h-1.89V165h1.89Zm0-2.53h-1.89v-.84h1.89Zm0-2.52h-1.89V160h1.89Z" transform="translate(0.23 0)"/><path class="cls-6" d="M931.14,157.86V146.18H909.36v1.69h5.26v7.68h-1.68v1.68h1.68v2.1h6.1V164h1.68v-4.63h4.11v-1.68H916.3v-9.78h13.15v20.41H922.4v-1.69h-1.68v1.69h-8.94V170h19.36v-4h2.94v-8.2l-2.94.1Zm1.26,6.52h-1.26v-4.73h1.26Z" transform="translate(0.23 0)"/><rect class="cls-14" x="240.97" y="132.3" width="36.66" height="31.71"/><path class="cls-15" d="M130.2,122.74v70h63v-15.3h4.71V135.69h19.37v41.77h4.12v5.3h8.83v4.71h9.41v2.35h8.83v2.94H315v-70Zm43.54,41.78H146.68V137.45h27.06ZM250.82,161h-7.65v-20.6h7.65ZM275,161h-20.6v-20.6H275Z" transform="translate(0.23 0)"/><rect class="cls-12" x="117.87" y="101.95" width="107.97" height="6.65" rx="2.83" transform="translate(-25.66 66.38) rotate(-20.36)"/><rect class="cls-12" x="216.63" y="101.92" width="107.97" height="6.65" rx="2.83" transform="translate(487.93 298.08) rotate(-159.64)"/><rect class="cls-12" x="153.61" y="104.54" width="74.75" height="5.86" rx="2.25" transform="translate(-27.53 120.64) rotate(-32.81)"/><rect class="cls-12" x="214" y="105.92" width="74.75" height="5.86" rx="2.25" transform="translate(403.89 336.54) rotate(-147.19)"/><rect class="cls-12" x="197.72" y="106.22" width="46.86" height="5.54" rx="1.73" transform="translate(112.39 330.14) rotate(-90)"/><rect class="cls-12" x="193.36" y="103.57" width="51.96" height="3.96" rx="1.98"/><rect class="cls-12" x="176.98" y="113.92" width="87.35" height="4.62" rx="2.31"/><rect class="cls-12" x="178.61" y="101.34" width="16.28" height="3.88" rx="1.03" transform="translate(34.27 -45.79) rotate(15.36)"/><rect class="cls-12" x="160.61" y="111.34" width="16.28" height="3.88" rx="1.03" transform="translate(36.28 -40.66) rotate(15.36)"/><rect class="cls-12" x="246.61" y="100.34" width="16.28" height="3.88" rx="1.03" transform="translate(527.72 133.41) rotate(164.64)"/><rect class="cls-12" x="261.9" y="110.6" width="19.28" height="3.46" rx="1.07" transform="translate(563.37 148.7) rotate(164.64)"/><rect class="cls-12" x="219.02" y="70.1" width="3.5" height="15.92" rx="1.75"/><ellipse class="cls-16" cx="220.46" cy="74.07" rx="14.53" ry="4.4"/><rect class="cls-12" x="219.38" y="70.05" width="14.56" height="1.81" rx="0.91" transform="translate(66.07 -103.83) rotate(30)"/><rect class="cls-12" x="206.9" y="70.07" width="14.56" height="1.81" rx="0.91" transform="translate(435.38 25.35) rotate(150)"/><path class="cls-12" d="M221,73h-.83a1.34,1.34,0,0,1-1.34-1.33V65.08c0-.74.88-2.59,1.62-2.59l.23,0c.73,0,1.66,1.87,1.66,2.61v6.61A1.34,1.34,0,0,1,221,73Z" transform="translate(0.23 0)"/><path class="cls-11" d="M205.2,74.56l2.31-1.26.77.88,1.48.88a18.88,18.88,0,0,1-2.8,1.21C206.79,76.16,205.2,74.56,205.2,74.56Z" transform="translate(0.23 0)"/><path class="cls-11" d="M231.09,74.9c.17.11,2.26,1,2.26,1l.26-2.62" transform="translate(0.23 0)"/><path class="cls-17" d="M361.4,139.83a14.35,14.35,0,0,0-2.76-18.19,13.84,13.84,0,0,0,3-8.75c0-5.06-2.53-9.67-6.21-11.28h0c0-6.67-4.38-12-9.67-12s-9.67,5.3-9.67,12v1.15c-3.45,1.84-6,6.22-6,11a13.1,13.1,0,0,0,.7,4.15c-2.77,2.07-4.38,6-4.38,10.13a13.88,13.88,0,0,0,3,8.75,19.36,19.36,0,0,0-5.75,14.27c0,8.29,4.6,15.42,10.82,17.27a12.17,12.17,0,0,0,8.06,3.45l-.92,19.57a5.15,5.15,0,0,0,4.83.23V171.14A14.07,14.07,0,0,0,349.2,170a8.66,8.66,0,0,0,2.54.23c7.82,0,14-7.83,14-17.73A22.55,22.55,0,0,0,361.4,139.83Z" transform="translate(0.23 0)"/><path class="cls-15" d="M953.39,141.54a10.53,10.53,0,0,0-10.6,10.59h0v29.92h8.81V167.62a1.79,1.79,0,1,1,3.58,0v14.52h9.05v-30h0A10.79,10.79,0,0,0,953.39,141.54Z" transform="translate(0.23 0)"/><path class="cls-18" d="M935.7,150.75l12.72-8a1.94,1.94,0,0,1,2.36.65l.65,1.14a2,2,0,0,1-.65,2.37l-12.72,8a1.94,1.94,0,0,1-2.36-.66l-.65-1.14A1.7,1.7,0,0,1,935.7,150.75Z" transform="translate(0.23 0)"/><path class="cls-18" d="M937.9,151.24l9.78,11.33a1.86,1.86,0,0,1-.32,2.36l-1,.82a1.86,1.86,0,0,1-2.37-.33l-9.78-11.33a1.85,1.85,0,0,1,.33-2.36l1-.82C936.19,150.34,937.08,150.5,937.9,151.24Z" transform="translate(0.23 0)"/><path class="cls-18" d="M972.47,151.07,972,152.3a1.81,1.81,0,0,1-2.2,1L956.08,147a1.79,1.79,0,0,1-1-2.2l.49-1.23a1.79,1.79,0,0,1,2.2-1l13.62,6.19C972.38,149.44,972.79,150.26,972.47,151.07Z" transform="translate(0.23 0)"/><path class="cls-18" d="M972.14,149.28l.9.9a2,2,0,0,1,0,2.44l-11.34,9.79a2,2,0,0,1-2.44,0l-.9-.9a2,2,0,0,1,0-2.45l11.33-9.78A1.86,1.86,0,0,1,972.14,149.28Z" transform="translate(0.23 0)"/><path class="cls-19" d="M948.74,142.6,945,145l3.75,1.71-1.55,2.53,3.83,8.31s2,1.88,2.61,1.55a13.49,13.49,0,0,0,1.88-1.79l3.59-8.56-1.39-2,3.91-2.36-3.34-1.71C958.2,142.76,953.47,140.07,948.74,142.6Z" transform="translate(0.23 0)"/><path class="cls-20" d="M951.41,142.32l-.74,2.61.82.41-.9,14.59,3.1,1.38L955.4,158l-1.14-12.55.82-.49-.82-2.53C954.18,142.32,951.33,142.32,951.41,142.32Z" transform="translate(0.23 0)"/><path class="cls-15" d="M960.64,134.61a7.26,7.26,0,1,0-7.25,7.25C957.3,141.54,960.64,138.52,960.64,134.61Z" transform="translate(0.23 0)"/><path class="cls-21" d="M164.6,189.58c0,5.15-5.76,3.31-16,3.31s-16.12.38-16.12-4.77,6.77-12.67,17.06-12.67A15,15,0,0,1,164.6,189.58Z" transform="translate(0.23 0)"/><path class="cls-21" d="M142.47,191.8c0,5.14-5.77,3.31-16.06,3.31s-16.11.37-16.11-4.78,6.76-12.67,17.06-12.67A15,15,0,0,1,142.47,191.8Z" transform="translate(0.23 0)"/><g id="Leiter"><rect class="cls-22" x="300.56" y="138.79" width="8.3" height="1.67" rx="0.69" transform="translate(640.12 141.16) rotate(155.64)"/><rect class="cls-22" x="302.15" y="142.76" width="8.3" height="1.67" rx="0.69" transform="translate(644.79 148.09) rotate(155.64)"/><rect class="cls-22" x="302.95" y="147.53" width="8.3" height="1.67" rx="0.69" transform="translate(648.28 156.87) rotate(155.64)"/><rect class="cls-22" x="304.54" y="151.5" width="8.3" height="1.67" rx="0.69" transform="translate(652.95 163.81) rotate(155.64)"/><rect class="cls-22" x="306.52" y="155.47" width="8.3" height="1.67" rx="0.69" transform="translate(658.38 170.58) rotate(155.64)"/><rect class="cls-22" x="306.92" y="160.24" width="8.3" height="1.67" rx="0.69" transform="translate(-38.51 142.62) rotate(-24.36)"/><rect class="cls-22" x="309.3" y="165.01" width="8.3" height="1.67" rx="0.69" transform="translate(-40.27 144.03) rotate(-24.36)"/><rect class="cls-22" x="310.1" y="170.57" width="8.3" height="1.67" rx="0.69" transform="translate(-42.49 144.85) rotate(-24.36)"/><rect class="cls-22" x="311.69" y="175.33" width="8.3" height="1.67" rx="0.69" transform="translate(676.44 206.41) rotate(155.64)"/><rect class="cls-22" x="313.27" y="180.1" width="8.3" height="1.67" rx="0.69" transform="translate(681.45 214.86) rotate(155.64)"/><rect class="cls-22" x="314.86" y="184.87" width="8.3" height="1.67" rx="0.69" transform="translate(686.45 223.32) rotate(155.64)"/><rect class="cls-22" x="316.45" y="189.64" width="8.3" height="1.67" rx="0.69" transform="translate(691.45 231.77) rotate(155.64)"/><rect class="cls-22" x="295.48" y="132.67" width="3.15" height="65.43" rx="1.57" transform="translate(531.31 412.01) rotate(-162.61)"/><rect class="cls-22" x="314.55" y="131.88" width="3.15" height="65.43" rx="1.57" transform="translate(-34.52 102.03) rotate(-17.39)"/><rect class="cls-22" x="289.12" y="135.85" width="3.15" height="65.43" rx="1.57" transform="translate(517.94 416.32) rotate(-162.61)"/><rect class="cls-22" x="308.19" y="135.06" width="3.15" height="65.43" rx="1.57" transform="translate(-35.76 100.28) rotate(-17.39)"/></g><path class="cls-21" d="M871.47,181.59c0,6.46-10.47,6.58-23.39,6.58S824,188.05,824,181.59s11.2-22.67,24.13-22.67S871.47,175.13,871.47,181.59Z" transform="translate(0.23 0)"/><path class="cls-13" d="M595.74,159.56l29.48-.26a2.52,2.52,0,0,1-.53,3.3c-1.58,1.46-9,8.6-9.78,8.6s-1.46,2.51-5.82,1.58S598.38,170,598.38,170a3.49,3.49,0,0,1-2.51-3.44C595.74,163.53,595.74,159.56,595.74,159.56Z" transform="translate(0.23 0)"/><path class="cls-13" d="M601.69,182.83a5.05,5.05,0,0,1-1.59-.26c-2.38-1.06-3.7-4.23-3.7-6.88a16,16,0,0,0-1.72-6.08L585.16,161h-4.89v-3.44h6.21l11,9.92.13.26a19.64,19.64,0,0,1,2.25,7.93c0,1.72.92,3.44,1.58,3.71s1.19-.4,1.46-.67c.79-.79,1.45-1.71,2.24-2.51,2.25-2.77,5.16-6.08,9.13-3.3,3.43,2.51,6.34,4.62,6.34,4.62l-2.11,2.78s-2.78-2.11-6.22-4.63c-1-.79-1.58-.66-4.36,2.65l-2.38,2.77A5.92,5.92,0,0,1,601.69,182.83Z" transform="translate(0.23 0)"/><path class="cls-13" d="M619.27,171.73a6.61,6.61,0,0,0-2.78.66l5.82,4.89a2.29,2.29,0,0,1-.13,3.31c-1.72,1.71-2.12,2.24-4.1,1-1.06-.66-3.57-2.51-5.42-4,0,.26-.13.53-.13.79a6.74,6.74,0,1,0,6.74-6.74Z" transform="translate(0.23 0)"/><path class="cls-13" d="M599.31,159.83s4-4.63,8.72-3.31c3,1.46,3.31-2.24,5.56-1.58,0,0,3.3-.53,7.66,4.89Z" transform="translate(0.23 0)"/><rect class="cls-15" x="632.59" y="179.13" width="12.96" height="6.48"/><rect class="cls-15" x="647.27" y="179.13" width="12.96" height="6.48"/><rect class="cls-15" x="640.52" y="170.93" width="12.96" height="6.48"/><path class="cls-12" d="M1000.68,162.62v23.53H975.33a3.62,3.62,0,0,1-3.62-3.62V162.62Z" transform="translate(0.23 0)"/><path class="cls-13" d="M975.33,157.19a3.63,3.63,0,0,0-3.62,3.62v21.72a3.63,3.63,0,0,1,7.25,0V160.81A3.63,3.63,0,0,0,975.33,157.19Z" transform="translate(0.23 0)"/><polygon class="cls-15" points="988.38 168.71 982.96 174.06 982.96 181.8 993.81 181.8 993.81 174.06 988.38 168.71"/><path class="cls-23" d="M995,174.35l-6.22-6.22a.88.88,0,0,0-1.16,0l-6.22,6.22a.88.88,0,0,0,0,1.16.9.9,0,0,0,1.16,0l5.64-5.72,5.64,5.64a.82.82,0,0,0,.58.22.79.79,0,0,0,.58-.22A.78.78,0,0,0,995,174.35Z" transform="translate(0.23 0)"/><path class="cls-6" d="M993.46,173.11a7.82,7.82,0,0,1,1-2.39l-.76-.76-.75-.76a7.69,7.69,0,0,1-2.39,1.05,11.1,11.1,0,0,1-.32,2.51.74.74,0,0,0-.54,1l1.78-1.78h0a.57.57,0,1,1,.19.18L989.94,174a.74.74,0,0,0,1-.53A11,11,0,0,1,993.46,173.11Z" transform="translate(0.23 0)"/><path class="cls-23" d="M1007.7,156.35c-.49-.49-1.35-.22-2.33.39l1.94,1.95C1007.92,157.7,1008.19,156.85,1007.7,156.35Z" transform="translate(0.23 0)"/><path class="cls-23" d="M1004.73,161.36c.61-.71,1.27-1.48,1.79-2.2l-2-2c-.72.52-1.49,1.17-2.2,1.79s-2.12,2-3.59,3.55l-.67.69c-2.11,2.19-4.2,4.42-4.54,4.76a1.63,1.63,0,0,0-.56,1.21l.75.76.76.76a1.64,1.64,0,0,0,1.22-.56c.34-.34,2.57-2.43,4.76-4.54l.69-.67C1002.7,163.48,1004.11,162.08,1004.73,161.36Z" transform="translate(0.23 0)"/><path class="cls-24" d="M998.83,162.47l-.06.07-.67.69-.06.06,2.39,2.39.06-.06.69-.67.06-.06Z" transform="translate(0.23 0)"/><rect class="cls-6" x="986.57" y="177.46" width="3.69" height="4.34"/></g></svg>