<?xml version="1.0" encoding="UTF-8"?>
<svg width="77px" height="80px" viewBox="0 0 77 80" version="1.1" xmlns="http://www.w3.org/2000/svg" xmlns:xlink="http://www.w3.org/1999/xlink">
    <!-- Generator: Sketch 53 (72520) - https://sketchapp.com -->
    <title>Group 2</title>
    <desc>Created with Sketch.</desc>
    <g id="Page-1" stroke="none" stroke-width="1" fill="none" fill-rule="evenodd">
        <g id="Frage-1" transform="translate(-51.000000, -429.000000)">
            <g id="Answer-2" transform="translate(30.000000, 389.000000)">
                <g id="Group-2" transform="translate(21.071350, 40.000000)">
                    <g id="Group" transform="translate(4.049150, 0.000000)">
                        <polygon id="Fill-1" fill="#D0DE66" points="54.3275 46.97045 40.7185 60.42045 40.7185 79.78245 68.0235 79.78245 68.0235 60.42045"></polygon>
                        <polygon id="Fill-1" fill="#D0DE66" points="13.609 22.4491 8.8817842e-15 35.8991 8.8817842e-15 55.2611 27.305 55.2611 27.305 35.8991"></polygon>
                        <g id="Group-9" transform="translate(35.879500, 0.000000)">
                            <polygon id="Fill-1" fill="#D0DE66" points="18.448 1.97045 4.839 15.42045 4.839 34.78245 32.144 34.78245 32.144 15.42045"></polygon>
                            <g id="Group-8" fill="#6A7800">
                                <path d="M35.5896,16.10575 L19.9126,0.51375 C19.2226,-0.17125 17.9316,-0.17125 16.9836,0.51375 L1.3066,16.10575 C0.6176,16.79175 0.6176,18.07675 1.3066,19.01875 C1.9956,19.70375 3.2886,19.70375 4.2356,19.01875 L18.4476,4.71175 L32.6606,18.84775 C33.0056,19.18975 33.6086,19.36175 34.1256,19.36175 C34.6426,19.36175 35.2446,19.18975 35.5896,18.84775 C36.3646,18.07675 36.3646,16.87675 35.5896,16.10575" id="Fill-2"></path>
                            </g>
                        </g>
                    </g>
                    <path d="M75.51825,61.10575 L59.84125,45.51375 C59.15125,44.82875 57.86025,44.82875 56.91225,45.51375 L41.23525,61.10575 C40.54625,61.79175 40.54625,63.07675 41.23525,64.01875 C41.92425,64.70375 43.21725,64.70375 44.16425,64.01875 L58.37625,49.71175 L72.58925,63.84775 C72.93425,64.18975 73.53725,64.36175 74.05425,64.36175 C74.57125,64.36175 75.17325,64.18975 75.51825,63.84775 C76.29325,63.07675 76.29325,61.87675 75.51825,61.10575" id="Fill-2" fill="#6A7800"></path>
                    <path d="M34.79975,36.5844 L19.12275,20.9924 C18.43275,20.3074 17.14175,20.3074 16.19375,20.9924 L0.51675,36.5844 C-0.17225,37.2704 -0.17225,38.5554 0.51675,39.4974 C1.20575,40.1824 2.49875,40.1824 3.44575,39.4974 L17.65775,25.1904 L31.87075,39.3264 C32.21575,39.6684 32.81875,39.8404 33.33575,39.8404 C33.85275,39.8404 34.45475,39.6684 34.79975,39.3264 C35.57475,38.5554 35.57475,37.3554 34.79975,36.5844" id="Fill-2" fill="#6A7800"></path>
                </g>
            </g>
        </g>
    </g>
</svg>