<?xml version="1.0" encoding="utf-8"?>
<!-- Generator: Adobe Illustrator 24.0.0, SVG Export Plug-In . SVG Version: 6.00 Build 0)  -->
<svg width="60px" height="60px" version="1.1" id="Ebene_1" xmlns="http://www.w3.org/2000/svg" xmlns:xlink="http://www.w3.org/1999/xlink" x="0px" y="0px"
	 viewBox="0 0 60 60" style="enable-background:new 0 0 60 60;" xml:space="preserve">
<style type="text/css">
	.st0{fill:#D0DE66;}
	.st1{fill:#6A7800;}
	.st2{fill:#FFFFFF;}
	.st3{fill-rule:evenodd;clip-rule:evenodd;fill:#FEFEFE;}
	.st4{fill-rule:evenodd;clip-rule:evenodd;fill:#8DA000;}
</style>
<title>Group 13</title>
<desc>Created with Sketch.</desc>
<g>
	<g>
		<path class="st0" d="M30,3.7l-21.2,21v30.2h42.5V24.7L30,3.7z"/>
		<path class="st1" d="M56.7,25.8L32.3,1.5c-1.1-1.1-3.1-1.1-4.6,0L3.3,25.8c-1.1,1.1-1.1,3.1,0,4.5c1.1,1.1,3.1,1.1,4.6,0L30,8
			l22.1,22c0.5,0.5,1.5,0.8,2.3,0.8s1.7-0.3,2.3-0.8C57.9,28.8,57.9,27,56.7,25.8z"/>
	</g>
</g>
<g id="Clip-6_1_">
</g>
<g>
	<g>
		<ellipse class="st2" cx="41.7" cy="32.9" rx="3" ry="3"/>
	</g>
	<path class="st3" d="M46.2,41l0-0.7c0-2.5-2-4.3-4.5-4.3c-2.4,0-4.3,1.9-4.3,4.3v0.1v1c0,0.2-0.1,0.4-0.1,0.6l0.1,1.3l0.3,4.3
		c0.1,0.8,0.7,1.4,1.4,1.5l0.5,7.2c0,1.3,1.1,2.3,2.4,2.3c1.3,0,2.4-1,2.4-2.3l0.5-7.2c0.7-0.1,1.3-0.7,1.4-1.5l0.2-4.2l0.1-1.4
		C46.4,41.5,46.3,41.2,46.2,41z"/>
	<g>
		<ellipse class="st2" cx="30.1" cy="32.9" rx="3" ry="3"/>
	</g>
	<path class="st3" d="M34.7,41l0-0.7c0-2.5-2-4.3-4.5-4.3c-2.4,0-4.3,1.9-4.3,4.3v0.1v1c0,0.2-0.1,0.4-0.1,0.6l0.1,1.3l0.3,4.3
		c0.1,0.8,0.7,1.4,1.4,1.5l0.5,7.2c0,1.3,1.1,2.3,2.4,2.3s2.4-1,2.4-2.3l0.5-7.2c0.7-0.1,1.3-0.7,1.4-1.5l0.2-4.2l0.1-1.4
		C34.8,41.5,34.8,41.2,34.7,41z"/>
	<path class="st3" d="M31.6,36.1c0,0,3.1,0.7,4.4,2.6c1.3,1.9,2.8,4.3,2.8,4.3l-1.3,1.8l-4.2-4.6L31.6,36.1z"/>
</g>
<path class="st4" d="M57.8,59.3H2.2c-1.2,0-2.1-1-2.1-2.2c0-1.3,1-2.2,2.1-2.2h55.5c1.2,0,2.1,1,2.1,2.2
	C59.9,58.3,58.9,59.3,57.8,59.3z"/>
</svg>
