<?xml version="1.0" encoding="utf-8"?>
<!-- Generator: Adobe Illustrator 24.0.0, SVG Export Plug-In . SVG Version: 6.00 Build 0)  -->
<svg width="71px" height="60px" version="1.1" id="Ebene_1" xmlns="http://www.w3.org/2000/svg" xmlns:xlink="http://www.w3.org/1999/xlink" x="0px" y="0px"
	 viewBox="0 0 71 60" style="enable-background:new 0 0 71 60;" xml:space="preserve">
<style type="text/css">
	.st0{fill:#D0DE66;}
	.st1{fill:#6A7800;}
	.st2{fill:#8DA000;}
	.st3{fill-rule:evenodd;clip-rule:evenodd;fill:#8DA000;}
</style>
<title>Group 9</title>
<desc>Created with Sketch.</desc>
<g>
	<g>
		<path class="st0" d="M35.5,4.3l-21.2,21v30.2h42.5V25.3L35.5,4.3z"/>
		<path class="st1" d="M62.1,26.4L37.8,2.1c-1.1-1.1-3.1-1.1-4.6,0L8.8,26.4c-1.1,1.1-1.1,3.1,0,4.5c1.1,1.1,3.1,1.1,4.6,0L35.5,8.6
			l22.1,22c0.5,0.5,1.5,0.8,2.3,0.8s1.7-0.3,2.3-0.8C63.3,29.4,63.3,27.6,62.1,26.4z"/>
	</g>
</g>
<g>
	<ellipse class="st2" cx="65.9" cy="34.8" rx="2.9" ry="2.8"/>
</g>
<path class="st3" d="M70.2,42.5l0-0.7c0-2.4-1.9-4.1-4.3-4.1c-2.3,0-4.1,1.8-4.1,4.1v0.1v0.9c0,0.2-0.1,0.3-0.1,0.5l0.1,1.2l0.3,4
	c0.1,0.8,0.7,1.3,1.3,1.4l0.4,6.9c0,1.2,1,2.2,2.3,2.2s2.3-1,2.3-2.2l0.4-6.9c0.7-0.1,1.2-0.7,1.3-1.4l0.2-3.9l0.1-1.4
	C70.3,42.9,70.3,42.7,70.2,42.5z"/>
<path class="st3" d="M65.7,59.3H7.8c-1.2,0-2.2-1-2.2-2.2c0-1.3,1-2.2,2.2-2.2h57.8c1.2,0,2.2,1,2.2,2.2
	C67.9,58.3,66.9,59.3,65.7,59.3z"/>
</svg>
