<?xml version="1.0" encoding="UTF-8"?>
<svg width="70px" height="63px" viewBox="0 0 70 63" version="1.1" xmlns="http://www.w3.org/2000/svg" xmlns:xlink="http://www.w3.org/1999/xlink">
    <!-- Generator: Sketch 61.1 (89650) - https://sketch.com -->
    <title>Group 10</title>
    <desc>Created with Sketch.</desc>
    <defs>
        <polygon id="path-1" points="0.0003 0.3762 69.0913 0.3762 69.0913 5 0.0003 5"></polygon>
    </defs>
    <g id="Page-1" stroke="none" stroke-width="1" fill="none" fill-rule="evenodd">
        <g id="Frage-3" transform="translate(-58.000000, -209.000000)">
            <g id="Group-10" transform="translate(58.000000, 208.000000)">
                <polygon id="Fill-1" fill="#D0DE66" points="34.6244 4.291 11.8924 26.757 11.8924 59.097 57.5004 59.097 57.5004 26.757"></polygon>
                <g id="Group-9" transform="translate(0.000000, 0.873900)">
                    <g id="Group-4" transform="translate(0.000000, 58.000000)">
                        <mask id="mask-2" fill="white">
                            <use xlink:href="#path-1"></use>
                        </mask>
                        <g id="Clip-3"></g>
                        <path d="M66.6693,5.0002 L2.4223,5.0002 C0.9973,5.0002 0.0003,3.9122 0.0003,2.6882 C0.0003,1.3292 1.1403,0.3762 2.4223,0.3762 L66.6693,0.3762 C68.0943,0.3762 69.0913,1.4642 69.0913,2.6882 C69.0913,3.9122 67.9513,5.0002 66.6693,5.0002" id="Fill-2" fill="#9BAA27" mask="url(#mask-2)"></path>
                    </g>
                    <polygon id="Fill-5" fill="#8DA000" points="42.473 11.1256 34.624 3.4176 11.892 25.8826 11.892 58.2226 42.473 58.2226"></polygon>
                    <path d="M63.2552,27.0275 L37.0692,0.9845 C35.9182,-0.1595 33.7602,-0.1595 32.1782,0.9845 L5.9922,27.0275 C4.8412,28.1735 4.8412,30.3195 5.9922,31.8935 C7.1442,33.0375 9.3022,33.0375 10.8852,31.8935 L34.6242,7.9965 L58.3632,31.6065 C58.9392,32.1795 59.9462,32.4655 60.8092,32.4655 C61.6732,32.4655 62.6802,32.1795 63.2552,31.6065 C64.5502,30.3195 64.5502,28.3155 63.2552,27.0275" id="Fill-7" fill="#6A7800"></path>
                </g>
                <text id="›50%" font-family="MerriweatherSans-Bold, Merriweather Sans" font-size="13" font-weight="bold" fill="#FFFFFF">
                    <tspan x="15.0957" y="43.4876328">›50%</tspan>
                </text>
            </g>
        </g>
    </g>
</svg>