<?xml version="1.0" encoding="UTF-8"?>
<svg width="70px" height="63px" viewBox="0 0 70 63" version="1.1" xmlns="http://www.w3.org/2000/svg" xmlns:xlink="http://www.w3.org/1999/xlink">
    <!-- Generator: Sketch 61.1 (89650) - https://sketch.com -->
    <title>Group 8</title>
    <desc>Created with Sketch.</desc>
    <g id="Page-1" stroke="none" stroke-width="1" fill="none" fill-rule="evenodd">
        <g id="Frage-3" transform="translate(-55.000000, -342.000000)">
            <g id="Group-8" transform="translate(55.000000, 341.000000)">
                <polygon id="Fill-1" fill="#D0DE66" points="34.6244 4.2912 11.8924 26.7572 11.8924 59.0972 57.5004 59.0972 57.5004 26.7572"></polygon>
                <polygon id="Fill-2" fill="#8DA000" points="29.6146 9.2414 11.8916 26.7574 11.8916 59.0964 29.6146 59.0964"></polygon>
                <g id="Group-7" transform="translate(0.000000, 0.873900)">
                    <path d="M66.6693,62.9998 L2.4223,62.9998 C0.9973,62.9998 0.0003,61.9118 0.0003,60.6888 C0.0003,59.3288 1.1403,58.3768 2.4223,58.3768 L66.6693,58.3768 C68.0943,58.3768 69.0913,59.4648 69.0913,60.6888 C69.0913,61.9118 67.9513,62.9998 66.6693,62.9998" id="Fill-3" fill="#9BAA27"></path>
                    <path d="M63.2552,27.0277 L37.0692,0.9837 C35.9182,-0.1593 33.7602,-0.1593 32.1782,0.9837 L5.9922,27.0277 C4.8412,28.1727 4.8412,30.3197 5.9922,31.8927 C7.1442,33.0377 9.3022,33.0377 10.8852,31.8927 L34.6242,7.9967 L58.3632,31.6067 C58.9392,32.1797 59.9462,32.4657 60.8092,32.4657 C61.6732,32.4657 62.6802,32.1797 63.2552,31.6067 C64.5502,30.3197 64.5502,28.3157 63.2552,27.0277" id="Fill-5" fill="#6A7800"></path>
                </g>
                <text id="‹50%" font-family="MerriweatherSans-Bold, Merriweather Sans" font-size="13" font-weight="bold" fill="#FFFFFF">
                    <tspan x="15.0957" y="43.9315328">‹50%</tspan>
                </text>
            </g>
        </g>
    </g>
</svg>