<?xml version="1.0" encoding="UTF-8"?>
<svg width="70px" height="64px" viewBox="0 0 70 64" version="1.1" xmlns="http://www.w3.org/2000/svg" xmlns:xlink="http://www.w3.org/1999/xlink">
    <!-- Generator: Sketch 61.1 (89650) - https://sketch.com -->
    <title>Group 9</title>
    <desc>Created with Sketch.</desc>
    <defs>
        <polygon id="path-1" points="0.119939286 0.602947368 59.9306774 0.602947368 59.9306774 33.4990316 0.119939286 33.4990316"></polygon>
        <polygon id="path-3" points="0 0.390736842 69.9260405 0.390736842 69.9260405 5.05263158 0 5.05263158"></polygon>
    </defs>
    <g id="Page-1" stroke="none" stroke-width="1" fill="none" fill-rule="evenodd">
        <g id="Frage-3" transform="translate(-58.000000, -475.000000)">
            <g id="Group-9" transform="translate(58.000000, 475.000000)">
                <polygon id="Fill-1" fill="#D0DE66" points="34.9267167 4 12 26.9550165 12 60 58 60 58 26.9550165"></polygon>
                <g id="Group-8">
                    <g id="Group-4" transform="translate(5.071429, 0.000000)">
                        <mask id="mask-2" fill="white">
                            <use xlink:href="#path-1"></use>
                        </mask>
                        <g id="Clip-3"></g>
                        <path d="M58.9480881,27.7276632 L32.4464929,1.46745263 C31.2800643,0.313768421 29.0976595,0.313768421 27.4950881,1.46745263 L0.993492857,27.7276632 C-0.171245238,28.8830316 -0.171245238,31.0472421 0.993492857,32.6337684 C2.15823095,33.7874526 4.34401667,33.7874526 5.94489762,32.6337684 L29.9699452,8.53776842 L53.9966833,32.3457684 C54.5798976,32.9217684 55.5992548,33.2114526 56.473231,33.2114526 C57.3472071,33.2114526 58.3648738,32.9217684 58.9480881,32.3457684 C60.2582071,31.0472421 60.2582071,29.0261895 58.9480881,27.7276632" id="Fill-2" fill="#6A7800" mask="url(#mask-2)"></path>
                    </g>
                    <g id="Group-7" transform="translate(0.000000, 58.947368)">
                        <mask id="mask-4" fill="white">
                            <use xlink:href="#path-3"></use>
                        </mask>
                        <g id="Clip-6"></g>
                        <path d="M67.47485,5.05263158 L2.45068333,5.05263158 C1.01039762,5.05263158 -0.000507142857,3.95621053 -0.000507142857,2.72168421 C-0.000507142857,1.35073684 1.1540881,0.390736842 2.45068333,0.390736842 L67.47485,0.390736842 C68.9168262,0.390736842 69.9260405,1.48715789 69.9260405,2.72168421 C69.9260405,3.95621053 68.7731357,5.05263158 67.47485,5.05263158" id="Fill-5" fill="#9BAA27" mask="url(#mask-4)"></path>
                    </g>
                </g>
            </g>
        </g>
    </g>
</svg>