<?xml version="1.0" encoding="utf-8"?>
<!-- Generator: Adobe Illustrator 24.0.0, SVG Export Plug-In . SVG Version: 6.00 Build 0)  -->
<svg width="49px" height="63px" version="1.1" id="Ebene_1" xmlns="http://www.w3.org/2000/svg" xmlns:xlink="http://www.w3.org/1999/xlink" x="0px" y="0px"
	 viewBox="0 0 49 63" style="enable-background:new 0 0 49 63;" xml:space="preserve">
<style type="text/css">
	.st0{filter:url(#Adobe_OpacityMaskFilter);}
	.st1{fill-rule:evenodd;clip-rule:evenodd;fill:#FFFFFF;}
	.st2{mask:url(#mask-2_1_);fill-rule:evenodd;clip-rule:evenodd;fill:#D0DE66;}
	.st3{fill-rule:evenodd;clip-rule:evenodd;fill:#8DA000;}
</style>
<title>Group 6</title>
<desc>Created with Sketch.</desc>
<g id="Page-1">
	<g id="iPhone-8-Copy-3" transform="translate(-163.000000, -302.000000)">
		<g id="Group-6" transform="translate(163.000000, 301.000000)">
			<g id="Group-3" transform="translate(0.000000, 0.077400)">
				<g id="Clip-2">
				</g>
				<defs>
					<filter id="Adobe_OpacityMaskFilter" filterUnits="userSpaceOnUse" x="0" y="0.9" width="48.6" height="63.1">
						<feColorMatrix  type="matrix" values="1 0 0 0 0  0 1 0 0 0  0 0 1 0 0  0 0 0 1 0"/>
					</filter>
				</defs>
				<mask maskUnits="userSpaceOnUse" x="0" y="0.9" width="48.6" height="63.1" id="mask-2_1_">
					<g class="st0">
						<polygon id="path-1_1_" class="st1" points="0,0.9 48.6,0.9 48.6,64 0,64 						"/>
					</g>
				</mask>
				<path id="Fill-1" class="st2" d="M35.1,5.5c-2.8,1.3-6.2,3.7-9.6,4c-1.8,0.2-1.3-1.7,0-2c1.5-0.3,1.4-1.8,0.3-2.2
					c-1.1-0.5-4.1,0-5.1-1.6c-1.4-2.3-5.1-3.3-6.2-2.2c-1.6,1.6,2.2,3.7,1.2,6c-0.7,1.4,2.4,1.2,2.2,2.6c-0.3,1.3-3.5-1.3-3.9,0.7
					c-0.5,2-0.6,3-1.7,2.6c-1.2-0.3-1-1.6-1.6-2.6C9.9,9.1,5.4,10.3,6,13.1c0.4,2,2.3,3.5,0.9,7c-1.4,3.5-5.4,6.2-6.5,10.1
					C-0.7,34,0.8,44.4,2.7,46.6c2.7,3.2,8.1,1.2,8.3,3.4c0.3,2.7-4.9,7-4.1,10c0.7,3,7.8,0.3,12.9,1.8c2,0.7,1.5,2,2.8,2.2
					c1.3,0.1,1.4-1.8,4-1.2c2.6,0.6,6.8-1.9,9.5-1.3c2.8,0.6,0.7-5.1,3.3-5.4c2.6-0.2,0.9-3.6,2.8-3.6c1.9,0,1.4-2.4-1.8-3.7
					c-3.9-1.7-7.3-6.3-6.8-8.5c0.4-1.6,8.9-5,13.3-7.1c3.5-1.7,0.9-10.6-1.7-13.4c-0.9-1-3-1.6-2-3c1-1.4,1.8-4.8-2.3-7.9
					S36,5,35.1,5.5"/>
			</g>
			<path id="Fill-4" class="st3" d="M30.2,30.6c0-4-3.2-7.2-7.2-7.2c-4,0-7.2,3.2-7.2,7.2v0.5c0,3.6,5.4,8.9,6.8,10.5
				c0.2,0.2,0.5,0.2,0.7,0c1.5-1.6,6.9-6.9,6.9-10.5V30.6z M23,33.9c-1.8,0-3.3-1.4-3.3-3.3s1.4-3.3,3.3-3.3c1.8,0,3.3,1.4,3.3,3.3
				S24.8,33.9,23,33.9L23,33.9z"/>
		</g>
	</g>
</g>
</svg>
