<?xml version="1.0" encoding="UTF-8"?>
<svg width="61px" height="60px" viewBox="0 0 61 60" version="1.1" xmlns="http://www.w3.org/2000/svg" xmlns:xlink="http://www.w3.org/1999/xlink">
    <!-- Generator: Sketch 61.1 (89650) - https://sketch.com -->
    <title>Group 73</title>
    <desc>Created with Sketch.</desc>
    <defs>
        <path d="M0.122,30.914 C0.122,47.514 13.521,60.915 30.122,60.915 L30.122,60.915 C46.721,60.915 60.121,47.514 60.121,30.914 L60.121,30.914 C60.121,14.314 46.721,0.914 30.122,0.914 L30.122,0.914 C13.521,0.914 0.122,14.314 0.122,30.914" id="path-1"></path>
        <path d="M0.122,30.914 C0.122,47.514 13.521,60.915 30.122,60.915 L30.122,60.915 C46.721,60.915 60.121,47.514 60.121,30.914 L60.121,30.914 C60.121,14.314 46.721,0.914 30.122,0.914 L30.122,0.914 C13.521,0.914 0.122,14.314 0.122,30.914" id="path-3"></path>
        <path d="M0.122,30.914 C0.122,47.514 13.521,60.915 30.122,60.915 L30.122,60.915 C46.721,60.915 60.121,47.514 60.121,30.914 L60.121,30.914 C60.121,14.314 46.721,0.914 30.122,0.914 L30.122,0.914 C13.521,0.914 0.122,14.314 0.122,30.914" id="path-5"></path>
        <path d="M0.122,30.914 C0.122,47.514 13.521,60.915 30.122,60.915 L30.122,60.915 C46.721,60.915 60.121,47.514 60.121,30.914 L60.121,30.914 C60.121,14.314 46.721,0.914 30.122,0.914 L30.122,0.914 C13.521,0.914 0.122,14.314 0.122,30.914" id="path-7"></path>
        <path d="M0.122,30.914 C0.122,47.514 13.521,60.915 30.122,60.915 L30.122,60.915 C46.721,60.915 60.121,47.514 60.121,30.914 L60.121,30.914 C60.121,14.314 46.721,0.914 30.122,0.914 L30.122,0.914 C13.521,0.914 0.122,14.314 0.122,30.914" id="path-9"></path>
        <path d="M0.122,30.914 C0.122,47.514 13.521,60.915 30.122,60.915 L30.122,60.915 C46.721,60.915 60.121,47.514 60.121,30.914 L60.121,30.914 C60.121,14.314 46.721,0.914 30.122,0.914 L30.122,0.914 C13.521,0.914 0.122,14.314 0.122,30.914" id="path-11"></path>
        <path d="M0.122,30.914 C0.122,47.514 13.521,60.915 30.122,60.915 L30.122,60.915 C46.721,60.915 60.121,47.514 60.121,30.914 L60.121,30.914 C60.121,14.314 46.721,0.914 30.122,0.914 L30.122,0.914 C13.521,0.914 0.122,14.314 0.122,30.914" id="path-13"></path>
        <path d="M0.122,30.914 C0.122,47.514 13.521,60.915 30.122,60.915 L30.122,60.915 C46.721,60.915 60.121,47.514 60.121,30.914 L60.121,30.914 C60.121,14.314 46.721,0.914 30.122,0.914 L30.122,0.914 C13.521,0.914 0.122,14.314 0.122,30.914" id="path-15"></path>
        <path d="M0.122,30.914 C0.122,47.514 13.521,60.915 30.122,60.915 L30.122,60.915 C46.721,60.915 60.121,47.514 60.121,30.914 L60.121,30.914 C60.121,14.314 46.721,0.914 30.122,0.914 L30.122,0.914 C13.521,0.914 0.122,14.314 0.122,30.914" id="path-17"></path>
        <path d="M0.122,30.914 C0.122,47.514 13.521,60.915 30.122,60.915 L30.122,60.915 C46.721,60.915 60.121,47.514 60.121,30.914 L60.121,30.914 C60.121,14.314 46.721,0.914 30.122,0.914 L30.122,0.914 C13.521,0.914 0.122,14.314 0.122,30.914" id="path-19"></path>
        <path d="M0.122,30.914 C0.122,47.514 13.521,60.915 30.122,60.915 L30.122,60.915 C46.721,60.915 60.121,47.514 60.121,30.914 L60.121,30.914 C60.121,14.314 46.721,0.914 30.122,0.914 L30.122,0.914 C13.521,0.914 0.122,14.314 0.122,30.914" id="path-21"></path>
        <path d="M0.122,30.914 C0.122,47.514 13.521,60.915 30.122,60.915 L30.122,60.915 C46.721,60.915 60.121,47.514 60.121,30.914 L60.121,30.914 C60.121,14.314 46.721,0.914 30.122,0.914 L30.122,0.914 C13.521,0.914 0.122,14.314 0.122,30.914" id="path-23"></path>
        <path d="M0.122,30.914 C0.122,47.514 13.521,60.915 30.122,60.915 L30.122,60.915 C46.721,60.915 60.121,47.514 60.121,30.914 L60.121,30.914 C60.121,14.314 46.721,0.914 30.122,0.914 L30.122,0.914 C13.521,0.914 0.122,14.314 0.122,30.914" id="path-25"></path>
        <path d="M0.122,30.914 C0.122,47.514 13.521,60.915 30.122,60.915 L30.122,60.915 C46.721,60.915 60.121,47.514 60.121,30.914 L60.121,30.914 C60.121,14.314 46.721,0.914 30.122,0.914 L30.122,0.914 C13.521,0.914 0.122,14.314 0.122,30.914" id="path-27"></path>
        <path d="M0.122,30.914 C0.122,47.514 13.521,60.915 30.122,60.915 L30.122,60.915 C46.721,60.915 60.121,47.514 60.121,30.914 L60.121,30.914 C60.121,14.314 46.721,0.914 30.122,0.914 L30.122,0.914 C13.521,0.914 0.122,14.314 0.122,30.914" id="path-29"></path>
        <path d="M0.122,30.914 C0.122,47.514 13.521,60.915 30.122,60.915 L30.122,60.915 C46.721,60.915 60.121,47.514 60.121,30.914 L60.121,30.914 C60.121,14.314 46.721,0.914 30.122,0.914 L30.122,0.914 C13.521,0.914 0.122,14.314 0.122,30.914" id="path-31"></path>
        <path d="M0.122,30.914 C0.122,47.514 13.521,60.915 30.122,60.915 L30.122,60.915 C46.721,60.915 60.121,47.514 60.121,30.914 L60.121,30.914 C60.121,14.314 46.721,0.914 30.122,0.914 L30.122,0.914 C13.521,0.914 0.122,14.314 0.122,30.914" id="path-33"></path>
        <path d="M0.122,30.914 C0.122,47.514 13.521,60.915 30.122,60.915 L30.122,60.915 C46.721,60.915 60.121,47.514 60.121,30.914 L60.121,30.914 C60.121,14.314 46.721,0.914 30.122,0.914 L30.122,0.914 C13.521,0.914 0.122,14.314 0.122,30.914" id="path-35"></path>
        <path d="M0.122,30.914 C0.122,47.514 13.521,60.915 30.122,60.915 L30.122,60.915 C46.721,60.915 60.121,47.514 60.121,30.914 L60.121,30.914 C60.121,14.314 46.721,0.914 30.122,0.914 L30.122,0.914 C13.521,0.914 0.122,14.314 0.122,30.914" id="path-37"></path>
        <path d="M0.122,30.914 C0.122,47.514 13.521,60.915 30.122,60.915 L30.122,60.915 C46.721,60.915 60.121,47.514 60.121,30.914 L60.121,30.914 C60.121,14.314 46.721,0.914 30.122,0.914 L30.122,0.914 C13.521,0.914 0.122,14.314 0.122,30.914" id="path-39"></path>
        <path d="M0.122,30.914 C0.122,47.514 13.521,60.915 30.122,60.915 L30.122,60.915 C46.721,60.915 60.121,47.514 60.121,30.914 L60.121,30.914 C60.121,14.314 46.721,0.914 30.122,0.914 L30.122,0.914 C13.521,0.914 0.122,14.314 0.122,30.914" id="path-41"></path>
        <path d="M0.122,30.914 C0.122,47.514 13.521,60.915 30.122,60.915 L30.122,60.915 C46.721,60.915 60.121,47.514 60.121,30.914 L60.121,30.914 C60.121,14.314 46.721,0.914 30.122,0.914 L30.122,0.914 C13.521,0.914 0.122,14.314 0.122,30.914" id="path-43"></path>
        <path d="M0.122,30.914 C0.122,47.514 13.521,60.915 30.122,60.915 L30.122,60.915 C46.721,60.915 60.121,47.514 60.121,30.914 L60.121,30.914 C60.121,14.314 46.721,0.914 30.122,0.914 L30.122,0.914 C13.521,0.914 0.122,14.314 0.122,30.914" id="path-45"></path>
        <path d="M0.122,30.914 C0.122,47.514 13.521,60.915 30.122,60.915 L30.122,60.915 C46.721,60.915 60.121,47.514 60.121,30.914 L60.121,30.914 C60.121,14.314 46.721,0.914 30.122,0.914 L30.122,0.914 C13.521,0.914 0.122,14.314 0.122,30.914" id="path-47"></path>
    </defs>
    <g id="Page-1" stroke="none" stroke-width="1" fill="none" fill-rule="evenodd">
        <g id="Frage-4" transform="translate(-62.000000, -382.000000)">
            <g id="Group-73" transform="translate(62.000000, 381.000000)">
                <g id="Group-3" transform="translate(0.000000, 0.085700)">
                    <mask id="mask-2" fill="white">
                        <use xlink:href="#path-1"></use>
                    </mask>
                    <g id="Clip-2"></g>
                    <path d="M30.1216,0.9143 C46.7216,0.9143 60.1216,14.3143 60.1216,30.9143 C60.1216,47.5143 46.7216,60.9143 30.1216,60.9143 C13.5216,60.9143 0.1216,47.5143 0.1216,30.9143 C0.1216,14.3143 13.5216,0.9143 30.1216,0.9143" id="Fill-1" fill="#D0DE66" mask="url(#mask-2)"></path>
                </g>
                <g id="Group-6" transform="translate(0.000000, 0.085700)">
                    <mask id="mask-4" fill="white">
                        <use xlink:href="#path-3"></use>
                    </mask>
                    <g id="Clip-5"></g>
                    <path d="M33.3218,12.9143 C34.7208,13.4143 34.4218,12.0143 34.4218,11.8143 C34.6218,11.8143 34.8218,11.8143 35.0218,11.7143 C35.0218,11.2143 33.3218,11.5143 33.2208,11.6143 C32.9218,11.9143 33.3218,12.3143 33.4218,12.2143 C33.1218,12.5143 32.6218,12.7143 33.3218,12.9143" id="Fill-4" fill="#8DA000" mask="url(#mask-4)"></path>
                </g>
                <g id="Group-9" transform="translate(0.000000, 0.085700)">
                    <mask id="mask-6" fill="white">
                        <use xlink:href="#path-5"></use>
                    </mask>
                    <g id="Clip-8"></g>
                    <path d="M57.7212,30.7141 C57.3222,31.2141 55.3222,31.3141 54.9212,31.1141 C54.2212,30.3141 53.6212,29.5141 53.1212,28.6141 C52.0222,27.1141 51.6212,25.0141 50.4212,23.4141 C50.4212,23.4141 51.1212,24.5141 51.2212,24.4141 C52.5222,22.7141 48.9212,22.8141 48.6212,22.8141 C48.0222,22.7141 47.5222,22.5141 46.9212,22.3141 C45.8222,22.0141 46.3222,22.1141 45.4212,22.3141 C44.9212,22.4141 45.8222,23.0141 44.5222,22.7141 C43.9212,22.6141 43.8222,22.2141 43.4212,22.0141 C42.0222,21.4141 41.1212,21.7141 41.7212,20.0141 C39.7212,19.4141 37.4212,20.5141 35.6212,20.4141 C34.2212,20.4141 34.3222,20.0141 33.2212,21.1141 C32.3222,22.0141 32.2212,22.6141 31.2212,23.3141 C30.4212,23.9141 28.7212,25.2141 28.4212,26.3141 C28.3222,26.9141 28.8222,27.9141 28.6212,28.8141 C28.3222,30.0141 27.9212,29.9141 28.6212,30.9141 C28.8222,31.2141 29.8222,32.3151 30.2212,32.6141 C32.0222,34.4141 34.1212,34.2141 36.4212,33.8151 C37.0222,33.7141 37.4212,33.2141 38.1212,33.2141 C39.1212,33.2141 39.1212,34.0141 39.3222,34.0141 C40.9212,34.4141 41.1212,33.4141 41.1212,35.4141 C41.1212,36.7141 41.2212,36.5141 41.9212,37.7141 C42.3222,38.4141 42.6212,39.2141 42.7212,40.1141 C42.8222,41.4141 41.7212,42.4141 41.7212,43.8151 C41.7212,44.8151 42.4212,45.8151 42.6212,46.7141 C42.8222,47.7141 43.1212,48.7141 43.4212,49.7141 C43.4212,50.2141 43.5222,50.8151 43.6212,51.3151 C44.2212,52.2141 43.8222,51.6141 44.7212,51.7141 C46.8222,51.8151 48.7212,50.0141 49.7212,48.2141 C49.9212,47.8151 49.9212,47.3151 50.2212,46.9141 C50.5222,46.5141 50.9212,46.6141 51.1212,45.8151 C51.3222,45.1141 50.8222,44.7141 51.1212,44.2141 C51.3222,43.8151 52.2212,43.3151 52.5222,43.0141 C54.5222,41.2141 53.0222,40.2141 53.3222,37.9141 C53.5222,35.1141 58.3222,34.0141 57.7212,30.7141" id="Fill-7" fill="#8DA000" mask="url(#mask-6)"></path>
                </g>
                <g id="Group-12" transform="translate(0.000000, 0.085700)">
                    <mask id="mask-8" fill="white">
                        <use xlink:href="#path-7"></use>
                    </mask>
                    <g id="Clip-11"></g>
                    <path d="M40.3218,1.9143 L40.9218,1.6143 C41.4218,1.6143 40.1218,2.6143 40.4218,2.0143 C39.8218,3.1143 42.6218,1.9143 41.8218,1.9143 C42.0218,1.9143 43.4218,2.3143 43.6218,2.2143 C43.6218,2.2143 41.8218,1.3143 41.8218,1.4143 C42.1218,1.5143 44.0218,1.8143 43.9218,1.2143 C43.9218,0.9143 41.4218,1.1143 40.9218,1.2143 C40.4218,1.3143 38.8218,1.9143 40.3218,1.9143" id="Fill-10" fill="#8DA000" mask="url(#mask-8)"></path>
                </g>
                <g id="Group-15" transform="translate(0.000000, 0.085700)">
                    <mask id="mask-10" fill="white">
                        <use xlink:href="#path-9"></use>
                    </mask>
                    <g id="Clip-14"></g>
                    <path d="M52.6216,5.0144 C52.9216,5.3144 53.4216,5.4144 53.8216,5.2144 C52.8216,4.9144 53.1216,4.3144 52.4216,3.7144 C52.6216,3.6144 51.9216,5.1144 51.9216,4.9144 C52.1216,4.9144 52.3216,5.0144 52.6216,5.0144" id="Fill-13" fill="#8DA000" mask="url(#mask-10)"></path>
                </g>
                <g id="Group-18" transform="translate(0.000000, 0.085700)">
                    <mask id="mask-12" fill="white">
                        <use xlink:href="#path-11"></use>
                    </mask>
                    <g id="Clip-17"></g>
                    <path d="M40.522,18.4143 L40.522,19.0143 C42.122,19.1143 39.921,17.4143 40.522,18.4143 C40.522,18.6143 40.522,18.4143 40.522,18.4143" id="Fill-16" fill="#8DA000" mask="url(#mask-12)"></path>
                </g>
                <g id="Group-21" transform="translate(0.000000, 0.085700)">
                    <mask id="mask-14" fill="white">
                        <use xlink:href="#path-13"></use>
                    </mask>
                    <g id="Clip-20"></g>
                    <path d="M40.7212,17.9143 C41.4212,17.9143 40.6212,17.1143 40.5222,17.4143 C40.5222,17.6143 40.5222,17.8143 40.7212,17.9143" id="Fill-19" fill="#8DA000" mask="url(#mask-14)"></path>
                </g>
                <g id="Group-24" transform="translate(0.000000, 0.085700)">
                    <mask id="mask-16" fill="white">
                        <use xlink:href="#path-15"></use>
                    </mask>
                    <g id="Clip-23"></g>
                    <path d="M64.2212,26.3142 C63.7212,21.1142 62.0222,16.1142 59.3222,11.7142 C58.4212,10.2142 56.7212,7.0142 55.1212,6.2142 C54.5222,5.9142 53.8222,6.3142 53.1212,6.4142 C53.2212,5.0142 51.1212,7.9142 50.8222,6.7142 C50.9212,6.6142 51.0222,6.6142 51.1212,6.5142 C51.0222,6.3142 50.4212,6.1142 50.3222,6.2142 C50.1212,6.4142 50.7212,7.3142 50.7212,7.3142 C50.7212,7.3142 50.3222,6.9142 50.1212,7.2142 C50.1212,7.1142 49.3222,8.2142 49.8222,8.0142 C49.6212,8.1142 48.6212,7.6142 48.6212,7.9142 L49.1212,8.4142 C49.1212,8.8142 47.2212,6.9142 47.3222,7.0142 C52.9212,7.2142 46.1212,6.0142 46.0222,5.4142 C45.5222,5.1142 45.3222,5.3142 45.2212,4.9142 C45.1212,4.9142 45.0222,5.1142 44.9212,5.3142 C45.0222,4.9142 44.9212,4.9142 44.6212,5.3142 C44.7212,4.7142 42.2212,5.6142 41.8222,6.0142 C41.4212,6.4142 41.3222,7.3142 40.8222,7.6142 C40.5222,7.8142 38.7212,8.4142 38.8222,8.7142 C38.9212,9.0142 39.2212,9.0142 39.5222,9.0142 C38.5222,9.0142 38.8222,9.6142 39.4212,9.3142 C38.2212,11.1142 40.8222,9.7142 40.9212,9.8142 C41.1212,10.0142 41.1212,10.5142 41.4212,10.9142 C41.8222,11.3142 41.8222,12.1142 42.8222,11.5142 L43.0222,10.4142 C43.2212,10.4142 43.4212,10.2142 43.4212,9.9142 C43.2212,9.8142 43.0222,9.6142 42.9212,9.3142 C43.0222,8.7142 43.3222,8.1142 43.7212,7.6142 C44.2212,7.4142 44.9212,7.0142 44.9212,7.7142 C44.9212,8.3142 42.9212,9.1142 44.8222,9.9142 C45.5222,10.2142 46.1212,9.6142 46.8222,9.8142 C46.2212,10.2142 45.5222,9.9142 45.1212,10.3142 C44.9212,10.5142 45.7212,11.3142 45.4212,11.3142 C45.2212,11.3142 44.3222,10.4142 44.2212,11.0142 C44.0222,12.4142 44.9212,12.2142 43.1212,12.2142 C42.3222,12.2142 39.7212,12.7142 41.0222,11.4142 C40.9212,11.5142 40.6212,10.7142 40.8222,10.7142 C39.7212,10.6142 40.3222,11.6142 40.1212,11.8142 C40.2212,11.7142 39.7212,12.4142 39.6212,12.5142 C39.1212,12.7142 38.7212,13.0142 38.3222,13.2142 C38.0222,13.3142 37.6212,13.3142 37.2212,13.4142 C37.4212,13.2142 37.5222,13.0142 37.6212,12.8142 C37.6212,12.8142 35.8222,11.3142 35.5222,11.2142 C35.9212,11.2142 36.0222,10.7142 36.2212,10.6142 C36.2212,10.6142 35.2212,10.4142 35.3222,10.6142 C35.4212,10.4142 35.5222,10.2142 35.8222,10.1142 C35.3222,10.0142 34.8222,10.3142 34.8222,10.8142 L34.8222,11.1142 L35.2212,11.1142 C35.0222,11.2142 34.7212,11.2142 35.1212,11.2142 C35.0222,11.3142 34.9212,11.3142 34.8222,11.4142 C35.6212,11.5142 35.3222,11.4142 35.8222,12.0142 C35.9212,12.1142 35.2212,12.3142 35.1212,12.3142 C35.2212,12.4142 35.2212,12.5142 35.3222,12.6142 L34.8222,12.6142 C34.7212,12.9142 35.6212,13.0142 35.8222,12.8142 C35.5222,12.9142 34.8222,13.1142 34.8222,13.5142 C35.7212,13.5142 36.6212,13.5142 37.5222,13.4142 C37.4212,13.6142 37.3222,13.7142 37.1212,13.9142 C36.9212,14.3142 36.4212,13.7142 36.3222,13.8142 C36.3222,13.9142 36.3222,14.1142 36.4212,14.2142 C36.4212,14.3142 35.1212,13.8142 35.1212,14.6142 C35.1212,15.1142 37.7212,15.8142 35.9212,16.7142 C34.6212,17.3142 33.9212,15.7142 33.0222,16.9142 C33.0222,17.4142 32.9212,17.9142 32.7212,18.4142 C32.9212,19.6142 35.0222,20.4142 36.2212,19.7142 C36.9212,19.3142 37.3222,18.3142 37.7212,17.8142 C38.3222,17.1142 39.2212,16.7142 40.1212,16.8142 C41.0222,17.0142 41.9212,17.5142 42.6212,18.1142 C44.6212,19.7142 43.1212,18.7142 42.2212,19.5142 C42.0222,19.7142 43.1212,20.1142 43.2212,20.1142 C43.2212,20.2142 44.5222,18.2142 43.9212,18.5142 C44.1212,18.6142 40.0222,14.9142 43.3222,17.0142 C44.1212,17.4142 44.7212,18.1142 45.1212,18.8142 C45.4212,19.3142 45.7212,20.1142 46.5222,20.1142 C46.4212,19.6142 46.8222,20.0142 46.4212,19.6142 C46.6212,19.8142 46.8222,19.8142 46.9212,19.6142 C46.7212,19.4142 46.2212,19.0142 46.2212,18.6142 C46.2212,18.3142 47.3222,18.5142 47.6212,18.6142 C47.0222,21.3142 51.1212,19.7142 51.5222,21.0142 C51.7212,21.6142 51.2212,21.8142 51.1212,22.3142 C51.1212,23.0142 51.3222,23.8142 51.7212,24.4142 C52.4212,25.9142 53.4212,26.9142 54.3222,28.3142 C55.2212,29.7142 54.5222,30.8142 56.5222,30.0142 C57.3222,29.6142 58.0222,29.2142 58.6212,28.7142 C59.3222,28.3142 59.7212,28.1142 60.0222,27.3142 C60.7212,25.6142 59.1212,26.6142 59.2212,25.0142 C58.4212,26.5142 57.5222,25.6142 56.9212,24.7142 C55.4212,22.3142 57.1212,24.1142 58.1212,24.6142 C58.5222,24.8142 58.7212,24.4142 59.0222,24.6142 C59.3222,24.8142 59.3222,25.0142 59.6212,25.1142 C60.2212,25.3142 60.8222,25.4142 61.4212,25.5142 C61.9212,25.6142 62.4212,25.7142 62.9212,25.9142 C63.3222,26.0142 63.6212,26.4142 64.2212,26.3142 C63.4212,18.6142 63.5222,26.4142 64.2212,26.3142" id="Fill-22" fill="#8DA000" mask="url(#mask-16)"></path>
                </g>
                <g id="Group-27" transform="translate(0.000000, 0.085700)">
                    <mask id="mask-18" fill="white">
                        <use xlink:href="#path-17"></use>
                    </mask>
                    <g id="Clip-26"></g>
                    <path d="M26.2217,5.6145 C26.0217,5.7145 23.7217,6.8145 23.8217,6.9145 C24.1217,6.8145 24.3217,6.7145 24.5217,6.6145 C24.3217,6.8145 24.1217,7.0145 23.9217,7.1145 C24.6217,6.9145 24.7217,6.9145 24.3217,7.3145 C25.7217,7.0145 26.1217,6.1145 27.3217,5.5145 C27.0217,5.3145 26.5217,5.3145 26.2217,5.6145" id="Fill-25" fill="#8DA000" mask="url(#mask-18)"></path>
                </g>
                <g id="Group-30" transform="translate(0.000000, 0.085700)">
                    <mask id="mask-20" fill="white">
                        <use xlink:href="#path-19"></use>
                    </mask>
                    <g id="Clip-29"></g>
                    <path d="M4.0215,12.3142 C4.4215,12.4142 6.0215,11.9142 5.5215,11.0142 C5.3215,10.8142 4.0215,12.3142 4.0215,12.3142" id="Fill-28" fill="#8DA000" mask="url(#mask-20)"></path>
                </g>
                <g id="Group-33" transform="translate(0.000000, 0.085700)">
                    <mask id="mask-22" fill="white">
                        <use xlink:href="#path-21"></use>
                    </mask>
                    <g id="Clip-32"></g>
                    <path d="M6.0215,11.4143 C6.4215,11.4143 6.5215,10.9143 6.7215,10.7143 C6.6215,10.8143 6.1215,10.6143 6.0215,10.7143 C5.7215,10.9143 5.7215,11.3143 5.5215,11.6143 C5.3215,11.9143 4.7215,12.7143 4.9215,13.1143 C5.8215,12.7143 5.6215,12.1143 6.0215,11.4143" id="Fill-31" fill="#8DA000" mask="url(#mask-22)"></path>
                </g>
                <g id="Group-36" transform="translate(0.000000, 0.085700)">
                    <mask id="mask-24" fill="white">
                        <use xlink:href="#path-23"></use>
                    </mask>
                    <g id="Clip-35"></g>
                    <path d="M11.2217,11.8142 C11.6217,11.6142 11.6217,12.1142 11.8217,12.1142 C11.8217,12.1142 12.8217,11.0142 12.8217,11.1142 C13.0217,10.8142 11.1217,10.9142 11.1217,10.9142 C11.0217,10.7142 11.8217,10.5142 11.9217,10.3142 L11.1217,10.4142 C11.3217,10.4142 9.9217,9.7142 10.2217,9.5142 C10.0217,9.5142 9.0217,9.4142 9.1217,9.9142 C9.1217,10.0142 9.6217,10.1142 9.6217,10.1142 C9.4217,10.2142 8.9217,10.3142 8.7217,10.5142 C8.9217,10.2142 9.1217,10.1142 9.0217,9.7142 C8.6217,10.0142 7.8217,10.8142 8.1217,10.0142 C8.0217,10.4142 7.9217,10.9142 7.8217,11.3142 C7.4217,11.5142 7.6217,10.4142 7.5217,10.5142 C7.5217,10.6142 5.8217,12.0142 7.1217,11.6142 C6.7217,11.7142 6.6217,11.9142 6.7217,12.1142 C7.6217,11.7142 9.9217,10.5142 9.9217,11.9142 C9.9217,13.1142 8.4217,12.9142 8.2217,13.9142 C8.3217,13.5142 9.7217,13.8142 9.7217,13.8142 C9.7217,13.8142 10.4217,13.9142 10.6217,13.9142 C11.2217,13.9142 10.4217,13.3142 10.5217,13.2142 C10.9217,13.2142 11.2217,13.0142 11.4217,12.6142 C11.5217,12.4142 10.5217,12.1142 11.2217,11.8142" id="Fill-34" fill="#8DA000" mask="url(#mask-24)"></path>
                </g>
                <g id="Group-39" transform="translate(0.000000, 0.085700)">
                    <mask id="mask-26" fill="white">
                        <use xlink:href="#path-25"></use>
                    </mask>
                    <g id="Clip-38"></g>
                    <path d="M6.9214,9.8142 C6.3214,10.2142 8.2214,9.8142 8.5214,9.7142 C9.0214,9.4142 9.4214,9.0142 9.8214,8.6142 C9.0214,9.0142 8.2214,9.3142 7.4214,9.6142 C7.6214,9.8142 11.4214,7.0142 11.9214,6.6142 C11.7214,6.6142 11.6214,6.7142 11.5214,6.8142 C11.6214,6.5142 11.8214,6.3142 12.0214,6.0142 C12.4214,5.7142 13.2214,5.5142 13.6214,5.2142 C14.4214,4.7142 15.2214,4.0142 16.1214,3.4142 C16.1214,3.0142 12.5214,4.6142 12.2214,4.7142 C11.4214,5.1142 8.8214,6.0142 9.2214,7.0142 C9.2214,6.8142 7.6214,7.5142 7.5214,7.7142 C7.1214,9.2142 9.3214,7.7142 9.3214,7.9142 C8.9214,8.2142 6.6214,9.2142 6.6214,9.5142 C6.7214,9.5142 7.6214,9.4142 6.9214,9.8142" id="Fill-37" fill="#8DA000" mask="url(#mask-26)"></path>
                </g>
                <g id="Group-42" transform="translate(0.000000, 0.085700)">
                    <mask id="mask-28" fill="white">
                        <use xlink:href="#path-27"></use>
                    </mask>
                    <g id="Clip-41"></g>
                    <path d="M5.3218,10.7141 C5.7218,10.5141 5.7218,10.4141 5.7218,9.9141 C5.5218,10.0141 5.1218,10.2141 5.3218,10.5141 C5.3218,10.4141 5.2218,10.2141 5.1218,10.1141 C4.9218,10.5141 4.7218,11.0141 5.3218,10.7141" id="Fill-40" fill="#8DA000" mask="url(#mask-28)"></path>
                </g>
                <g id="Group-45" transform="translate(0.000000, 0.085700)">
                    <mask id="mask-30" fill="white">
                        <use xlink:href="#path-29"></use>
                    </mask>
                    <g id="Clip-44"></g>
                    <path d="M5.9214,10.6145 C6.4214,10.6145 6.5214,10.0145 6.5214,10.0145 C6.2214,10.1145 6.1214,10.2145 5.9214,10.6145" id="Fill-43" fill="#8DA000" mask="url(#mask-30)"></path>
                </g>
                <g id="Group-48" transform="translate(0.000000, 0.085700)">
                    <mask id="mask-32" fill="white">
                        <use xlink:href="#path-31"></use>
                    </mask>
                    <g id="Clip-47"></g>
                    <path d="M5.5215,9.4143 C6.1215,9.1143 5.7215,9.4143 6.2215,9.3143 C6.1215,8.5143 5.5215,9.0143 5.1215,9.3143 C5.3215,9.2143 5.4215,9.2143 5.5215,9.4143 C5.6215,9.3143 5.4215,9.3143 5.5215,9.4143" id="Fill-46" fill="#8DA000" mask="url(#mask-32)"></path>
                </g>
                <g id="Group-51" transform="translate(0.000000, 0.085700)">
                    <mask id="mask-34" fill="white">
                        <use xlink:href="#path-33"></use>
                    </mask>
                    <g id="Clip-50"></g>
                    <path d="M27.0215,-0.3855 C26.4215,-0.1855 25.8215,0.1145 25.2215,0.3145 C25.7215,0.1145 24.1215,-0.0855 24.0215,-0.0855 C23.3215,0.0145 22.7215,0.2145 22.0215,0.4145 C20.5215,1.1145 19.1215,2.0145 17.8215,2.9145 C17.0215,2.8145 14.2215,4.6145 14.5215,5.1145 C14.8215,5.6145 12.1215,6.2145 12.2215,6.8145 C12.7215,6.7145 13.1215,6.6145 13.5215,6.4145 C13.1215,6.6145 12.8215,6.8145 12.6215,7.1145 C13.4215,6.8145 14.2215,6.6145 15.1215,6.5145 C16.0215,7.1145 14.8215,7.9145 14.9215,8.2145 C14.7215,7.7145 16.5215,7.9145 16.1215,8.2145 C15.7215,8.5145 15.5215,8.1145 15.2215,8.5145 C14.9215,8.8145 15.9215,8.5145 16.0215,8.5145 C14.7215,9.0145 14.5215,11.6145 15.7215,12.3145 C16.9215,13.0145 17.7215,11.3145 18.2215,10.4145 C19.2215,8.4145 22.3215,5.9145 24.6215,4.8145 C24.4215,4.9145 23.3215,5.1145 23.2215,5.1145 C23.6215,4.3145 24.2215,5.1145 24.7215,4.5145 C25.0215,4.2145 23.4215,3.9145 23.4215,3.9145 C23.5215,3.9145 25.4215,3.1145 24.8215,3.1145 C25.1215,3.0145 25.4215,2.8145 25.5215,2.6145 L25.3215,2.5145 C25.4215,2.4145 25.6215,2.3145 25.6215,2.1145 C25.6215,1.9145 24.8215,2.2145 24.8215,2.1145 C25.1215,1.9145 25.4215,1.7145 25.7215,1.6145 L25.0215,1.6145 C25.7215,0.8145 26.5215,0.2145 27.4215,-0.2855 C27.3215,-0.4855 27.1215,-0.4855 27.0215,-0.3855" id="Fill-49" fill="#8DA000" mask="url(#mask-34)"></path>
                </g>
                <g id="Group-54" transform="translate(0.000000, 0.085700)">
                    <mask id="mask-36" fill="white">
                        <use xlink:href="#path-35"></use>
                    </mask>
                    <g id="Clip-53"></g>
                    <path d="M12.8218,17.5144 C12.0218,17.9144 11.9218,18.9144 11.4218,19.6144 C11.8218,19.2144 13.4218,19.2144 13.5218,18.8144 C13.6218,18.1144 13.2218,17.9144 12.7218,18.2144 C12.8218,17.9144 12.8218,17.8144 12.5218,18.0144 C12.4218,18.1144 13.0218,17.4144 12.8218,17.5144" id="Fill-52" fill="#8DA000" mask="url(#mask-36)"></path>
                </g>
                <g id="Group-57" transform="translate(0.000000, 0.085700)">
                    <mask id="mask-38" fill="white">
                        <use xlink:href="#path-37"></use>
                    </mask>
                    <g id="Clip-56"></g>
                    <path d="M1.1216,13.0144 C1.4216,12.6144 1.1216,12.6144 0.8216,12.6144 C0.2216,12.6144 -0.0784,13.7144 -0.2784,14.1144 C0.1216,13.5144 0.6216,13.2144 1.1216,13.0144 C1.2216,12.9144 1.1216,13.0144 1.1216,13.0144" id="Fill-55" fill="#8DA000" mask="url(#mask-38)"></path>
                </g>
                <g id="Group-60" transform="translate(0.000000, 0.085700)">
                    <mask id="mask-40" fill="white">
                        <use xlink:href="#path-39"></use>
                    </mask>
                    <g id="Clip-59"></g>
                    <path d="M1.6216,11.7141 L1.3216,12.0141 C1.3216,12.0141 2.1216,11.9141 2.3216,11.9141 C2.5216,11.9141 2.0216,12.2141 2.0216,12.2141 C2.7216,12.3141 3.9216,11.3141 4.3216,10.8141 C4.3216,10.8141 3.6216,10.7141 3.7216,10.7141 C3.3216,10.8141 3.7216,11.3141 3.2216,11.4141 C2.4216,11.5141 4.2216,11.2141 2.6216,11.2141 C3.2216,10.7141 2.6216,11.2141 2.5216,11.2141 L2.5216,10.9141 C2.0216,11.5141 1.4216,11.2141 0.9216,12.1141 C0.4216,12.3141 1.8216,11.5141 1.6216,11.7141" id="Fill-58" fill="#8DA000" mask="url(#mask-40)"></path>
                </g>
                <g id="Group-63" transform="translate(0.000000, 0.085700)">
                    <mask id="mask-42" fill="white">
                        <use xlink:href="#path-41"></use>
                    </mask>
                    <g id="Clip-62"></g>
                    <path d="M3.8218,13.4143 C3.1218,14.2143 3.7218,11.6143 3.7218,11.8143 C3.2218,11.8143 3.1218,12.0143 3.3218,12.4143 C3.1218,12.5143 2.4218,12.2143 2.6218,13.0143 C2.2218,11.9143 0.0218,14.2143 0.1218,14.2143 C0.2218,14.2143 1.2218,14.1143 1.2218,14.1143 C0.9218,14.1143 -0.0782,14.4143 -0.0782,14.8143 C0.0218,15.3143 3.5218,13.8143 3.8218,13.4143" id="Fill-61" fill="#8DA000" mask="url(#mask-42)"></path>
                </g>
                <g id="Group-66" transform="translate(0.000000, 0.085700)">
                    <mask id="mask-44" fill="white">
                        <use xlink:href="#path-43"></use>
                    </mask>
                    <g id="Clip-65"></g>
                    <path d="M7.3218,30.9143 C6.5218,30.5143 4.8218,29.9143 4.4218,31.1143 C4.9218,30.9143 5.5218,30.8143 6.1218,30.8143 C6.4218,30.8143 6.4218,31.6143 7.3218,30.9143" id="Fill-64" fill="#8DA000" mask="url(#mask-44)"></path>
                </g>
                <g id="Group-69" transform="translate(0.000000, 0.085700)">
                    <mask id="mask-46" fill="white">
                        <use xlink:href="#path-45"></use>
                    </mask>
                    <g id="Clip-68"></g>
                    <path d="M4.5215,34.7141 C4.1215,34.3151 5.0215,34.7141 5.0215,34.7141 C5.3215,34.7141 4.8215,33.2141 4.6215,33.1141 C4.2215,33.2141 3.7215,33.3151 3.3215,33.4141 C3.5215,32.8151 3.6215,32.1141 3.6215,31.5141 C3.6215,30.4141 1.8215,33.2141 2.4215,32.9141 C2.0215,33.1141 1.6215,33.2141 1.2215,33.1141 C0.0215,32.6141 0.4215,30.5141 0.9215,29.8141 C1.4215,29.4141 1.9215,29.1141 2.5215,28.8141 C2.9215,28.7141 3.5215,28.4141 3.8215,28.5141 C4.5215,28.7141 4.2215,29.3141 5.0215,29.8141 C4.8215,29.6141 5.1215,27.3141 5.3215,26.9141 C5.4215,26.7141 6.7215,25.5141 6.0215,25.7141 C6.2215,25.5141 6.3215,25.2141 6.0215,25.4141 C6.4215,25.1141 7.3215,23.3141 7.9215,23.1141 C7.6215,23.1141 9.3215,21.1141 9.6215,20.9141 C9.4215,21.0141 9.0215,21.5141 9.2215,21.8141 C9.2215,21.7141 11.5215,20.4141 11.2215,20.1141 C11.3215,20.2141 10.7215,19.9141 11.0215,19.8141 C10.1215,20.1141 9.6215,21.2141 10.2215,19.5141 C10.4215,19.0141 8.0215,20.9141 8.1215,20.9141 C8.2215,20.9141 9.1215,19.7141 9.4215,19.5141 C10.0215,19.1141 10.6215,18.8141 11.2215,18.5141 C11.7215,18.2141 12.9215,17.5141 13.0215,17.1141 C13.3215,15.9141 11.7215,17.1141 11.6215,17.1141 C11.9215,16.8141 12.3215,16.5141 12.6215,16.2141 C12.4215,16.0141 11.7215,16.5141 11.5215,16.0141 C11.5215,16.0141 11.2215,14.4141 11.2215,14.3141 C11.0215,14.9141 10.6215,15.4141 10.1215,15.8141 C10.2215,15.7141 9.5215,15.4141 9.5215,15.6141 C9.5215,15.3141 10.3215,15.1141 9.8215,14.7141 C9.3215,14.3141 9.1215,14.5141 8.5215,14.7141 C7.5215,15.1141 7.6215,16.0141 7.4215,16.8141 C7.2215,17.4141 6.9215,18.0141 6.5215,18.5141 C6.3215,18.8141 6.8215,19.6141 6.3215,19.8141 C5.4215,20.2141 5.7215,18.6141 5.9215,18.5141 C5.0215,18.8141 4.3215,18.2141 3.5215,18.6141 C3.5215,18.2141 3.8215,18.0141 3.2215,18.0141 C3.6215,17.1141 4.0215,16.3141 4.6215,15.6141 C4.8215,15.4141 6.2215,14.9141 6.1215,14.5141 C6.1215,14.6141 5.4215,14.5141 5.4215,14.5141 C6.1215,14.3141 7.9215,13.1141 7.6215,12.7141 C7.5215,12.5141 8.1215,12.3141 8.1215,12.1141 C7.5215,11.2141 6.4215,13.9141 6.1215,13.5141 C6.1215,13.5141 6.8215,12.9141 6.3215,12.9141 C6.2215,12.9141 5.6215,13.0141 5.7215,13.3141 C5.7215,13.2141 5.7215,13.0141 5.5215,12.9141 C5.1215,13.5141 4.7215,14.1141 4.2215,14.6141 C4.7215,14.1141 0.5215,15.3141 1.4215,15.6141 C1.3215,15.6141 0.0215,14.8141 0.0215,15.7141 C0.0215,15.5141 0.4215,15.4141 0.4215,15.2141 L-0.7785,15.2141 C-1.4785,15.7141 -1.9785,18.1141 -2.2785,18.8141 C-3.0785,21.0141 -3.5785,23.3141 -3.7785,25.6141 C-4.0785,28.5141 -4.3785,30.2141 -2.4785,32.0141 C-1.7785,32.6141 -1.6785,33.4141 -1.0785,33.8151 C-0.3785,34.1141 0.4215,34.2141 1.1215,34.2141 C1.6215,34.2141 1.7215,33.9141 2.1215,33.9141 C2.5215,34.0141 2.9215,34.1141 3.2215,34.2141 C3.8215,34.4141 4.1215,34.3151 4.5215,34.7141" id="Fill-67" fill="#8DA000" mask="url(#mask-46)"></path>
                </g>
                <g id="Group-72" transform="translate(0.000000, 0.085700)">
                    <mask id="mask-48" fill="white">
                        <use xlink:href="#path-47"></use>
                    </mask>
                    <g id="Clip-71"></g>
                    <path d="M23.4214,60.2141 C22.8214,59.8151 22.4214,59.3151 22.3214,58.6141 C22.2214,58.4141 22.4214,57.9141 22.4214,58.0141 C22.2214,57.5141 21.7214,57.4141 21.7214,57.3151 C21.5214,56.9141 21.3214,56.8151 21.2214,56.4141 C21.2214,56.3151 21.3214,56.0141 21.2214,55.8151 C21.1214,55.4141 21.4214,55.4141 21.3214,55.1141 C21.3214,55.0141 20.4214,54.9141 20.2214,54.5141 C20.6214,55.4141 22.0214,53.1141 20.6214,53.3151 C22.9214,52.9141 21.6214,50.7141 20.7214,51.0141 C21.4214,50.8151 22.2214,51.5141 22.7214,50.8151 C22.9214,50.5141 22.6214,49.5141 22.6214,49.0141 C22.8214,48.8151 23.0214,48.5141 23.1214,48.2141 C23.1214,47.9141 22.5214,47.3151 22.6214,47.0141 C22.7214,46.0141 24.9214,45.2141 24.9214,45.4141 C24.9214,45.6141 24.9214,40.4141 24.4214,40.8151 C24.9214,40.4141 26.1214,38.5141 24.8214,37.5141 C24.2214,37.0141 20.5214,36.2141 19.9214,37.0141 C19.8214,36.3151 18.4214,35.8151 17.9214,36.5141 C18.2214,35.9141 17.1214,36.2141 16.9214,36.0141 C16.7214,35.8151 17.0214,35.6141 16.5214,35.2141 C16.0214,34.7141 16.0214,34.6141 15.4214,34.3151 C14.7214,34.0141 14.2214,34.3151 13.6214,34.2141 C13.0214,34.1141 12.7214,33.6141 12.0214,33.6141 C12.4214,33.2141 11.6214,33.2141 11.4214,33.2141 C11.3214,33.2141 11.6214,33.0141 11.6214,33.0141 C10.9214,33.1141 10.3214,33.2141 9.7214,33.5141 C9.4214,33.6141 9.4214,33.2141 8.9214,33.4141 C8.4214,33.6141 8.9214,34.2141 8.9214,34.2141 C8.2214,34.4141 8.7214,33.3151 8.7214,33.1141 C8.7214,32.9141 7.9214,33.8151 7.9214,33.9141 C7.4214,33.9141 7.5214,34.7141 7.1214,35.3151 C7.1214,33.9141 6.5214,35.1141 6.0214,35.0141 C5.7214,35.0141 4.7214,34.3151 4.5214,34.7141 C4.7214,35.1141 5.9214,35.6141 6.3214,35.6141 C6.3214,35.6141 6.2214,34.9141 6.5214,35.0141 C7.0214,35.2141 7.3214,35.7141 7.4214,36.3151 C7.5214,37.1141 7.1214,37.4141 7.0214,38.0141 C6.9214,39.8151 8.4214,41.8151 10.0214,43.1141 C10.9214,43.8151 12.2214,43.9141 12.9214,44.7141 C13.9214,45.9141 14.3214,48.2141 15.0214,49.7141 C15.5214,50.8151 15.8214,52.3151 16.2214,53.2141 C16.7214,54.0141 17.3214,54.7141 17.9214,55.4141 C18.5214,55.6141 18.8214,57.9141 18.6214,57.9141 C18.7214,57.9141 19.3214,57.7141 19.3214,57.8151 C19.6214,58.8151 19.2214,58.8151 20.2214,59.7141 C20.5214,60.1141 20.9214,60.4141 21.3214,60.6141 C22.5214,61.2141 23.9214,61.1141 25.0214,60.3151 C24.4214,60.4141 24.0214,60.7141 23.4214,60.2141" id="Fill-70" fill="#8DA000" mask="url(#mask-48)"></path>
                </g>
            </g>
        </g>
    </g>
</svg>