<?xml version="1.0" encoding="utf-8"?>
<!-- Generator: Adobe Illustrator 24.0.0, SVG Export Plug-In . SVG Version: 6.00 Build 0)  -->
<svg width="54px" height="60px" version="1.1" id="Ebene_1" xmlns="http://www.w3.org/2000/svg" xmlns:xlink="http://www.w3.org/1999/xlink" x="0px" y="0px"
	 viewBox="0 0 54 60" style="enable-background:new 0 0 54 60;" xml:space="preserve">
<style type="text/css">
	.st0{filter:url(#Adobe_OpacityMaskFilter);}
	.st1{fill-rule:evenodd;clip-rule:evenodd;fill:#FFFFFF;}
	.st2{mask:url(#mask-2_1_);fill-rule:evenodd;clip-rule:evenodd;fill:#D0DE66;}
	.st3{fill-rule:evenodd;clip-rule:evenodd;fill:#FEFEFE;}
	.st4{fill:#6A7800;}
	.st5{fill:#FEFEFE;}
</style>
<title>Group 15</title>
<desc>Created with Sketch.</desc>
<g id="Page-1">
	<g id="iPhone-8-Copy-3" transform="translate(-161.000000, -304.000000)">
		<g id="Group-15" transform="translate(161.000000, 304.000000)">
			<g id="Group-3">
				<g id="Clip-2">
				</g>
				<defs>
					<filter id="Adobe_OpacityMaskFilter" filterUnits="userSpaceOnUse" x="0" y="0" width="46.9" height="60">
						<feColorMatrix  type="matrix" values="1 0 0 0 0  0 1 0 0 0  0 0 1 0 0  0 0 0 1 0"/>
					</filter>
				</defs>
				<mask maskUnits="userSpaceOnUse" x="0" y="0" width="46.9" height="60" id="mask-2_1_">
					<g class="st0">
						<polygon id="path-1_1_" class="st1" points="0,0 46.9,0 46.9,60 0,60 						"/>
					</g>
				</mask>
				<path id="Fill-1" class="st2" d="M46.9,58.1c0,1.1-0.8,1.9-1.9,1.9H1.9C0.8,60,0,59.2,0,58.1V1.9C0,0.9,0.8,0,1.9,0H45
					c1.1,0,1.9,0.8,1.9,1.9L46.9,58.1z"/>
			</g>
			<polygon id="Fill-4" class="st3" points="7.6,33 39.3,33 39.3,30.3 7.6,30.3 			"/>
			<polygon id="Fill-5" class="st3" points="7.6,43.5 26.4,43.5 26.4,40.8 7.6,40.8 			"/>
			<g id="Group-14" transform="translate(5.000000, 10.000000)">
				<path id="Fill-10" class="st3" d="M6.2,10.1h6.6V8.5h-2.4c-0.2,0-0.5,0-0.8,0c-0.3,0-0.6,0-0.8,0.1c0.5-0.5,0.9-1,1.4-1.5
					c0.4-0.5,0.8-1,1.1-1.4c0.3-0.5,0.6-0.9,0.8-1.4c0.2-0.4,0.3-0.9,0.3-1.3c0-0.5-0.1-0.9-0.2-1.2c-0.1-0.4-0.4-0.7-0.6-0.9
					c-0.3-0.3-0.6-0.5-1-0.6C10.2,0.1,9.7,0,9.3,0C8.6,0,8,0.2,7.5,0.4C7,0.7,6.6,1.1,6.1,1.6l1,1C7.4,2.2,7.7,2,8,1.8
					c0.3-0.2,0.7-0.3,1-0.3c0.5,0,0.9,0.2,1.2,0.5c0.3,0.3,0.4,0.7,0.4,1.2c0,0.4-0.1,0.8-0.3,1.2c-0.2,0.4-0.5,0.9-0.9,1.3
					C9.1,6.1,8.6,6.6,8,7.2C7.5,7.7,6.9,8.4,6.2,9V10.1z M19.9,8.9c0.6-0.9,0.9-2.2,0.9-3.8c0-1.7-0.3-2.9-0.9-3.8
					C19.3,0.5,18.5,0,17.5,0c-1,0-1.8,0.4-2.4,1.3c-0.6,0.8-0.9,2.1-0.9,3.8c0,1.7,0.3,2.9,0.9,3.8c0.6,0.9,1.4,1.3,2.4,1.3
					C18.5,10.2,19.3,9.8,19.9,8.9L19.9,8.9z M16.8,8.7c-0.2-0.1-0.4-0.3-0.5-0.6c-0.1-0.3-0.3-0.7-0.3-1.2c-0.1-0.5-0.1-1.1-0.1-1.8
					c0-0.7,0-1.3,0.1-1.7c0.1-0.5,0.2-0.8,0.3-1.1c0.1-0.3,0.3-0.5,0.5-0.6c0.2-0.1,0.4-0.2,0.7-0.2c0.2,0,0.5,0.1,0.7,0.2
					c0.2,0.1,0.4,0.3,0.5,0.6c0.1,0.3,0.3,0.7,0.3,1.1c0.1,0.5,0.1,1,0.1,1.7c0,0.7,0,1.3-0.1,1.8c-0.1,0.5-0.2,0.9-0.3,1.2
					c-0.1,0.3-0.3,0.5-0.5,0.6c-0.2,0.1-0.4,0.2-0.7,0.2C17.3,8.8,17,8.8,16.8,8.7L16.8,8.7z M22.6,10.1h5.9V8.6h-1.9V0.2h-1.3
					c-0.3,0.2-0.6,0.3-1,0.5S23.5,0.9,23,1v1.1h1.8v6.5h-2.2V10.1z M31.9,6.3c0.2-0.3,0.5-0.6,0.8-0.8c0.3,0.1,0.6,0.3,0.9,0.4
					c0.3,0.1,0.5,0.3,0.7,0.4c0.2,0.1,0.4,0.3,0.5,0.5C34.9,7,35,7.2,35,7.5c0,0.5-0.2,0.8-0.5,1.1C34.2,8.8,33.9,9,33.4,9
					c-0.5,0-0.9-0.1-1.3-0.4c-0.4-0.3-0.5-0.7-0.5-1.2C31.6,7,31.7,6.6,31.9,6.3L31.9,6.3z M33.2,4.2c-0.2-0.1-0.4-0.2-0.6-0.4
					c-0.2-0.1-0.3-0.3-0.4-0.5S32,2.9,32,2.7c0-0.4,0.1-0.8,0.4-1c0.3-0.2,0.6-0.3,1-0.3c0.5,0,0.8,0.1,1.1,0.4
					c0.3,0.3,0.4,0.6,0.4,1.1c0,0.3-0.1,0.6-0.2,0.9S34.3,4.2,34,4.5C33.7,4.4,33.5,4.3,33.2,4.2L33.2,4.2z M30.3,8.6
					C30.4,9,30.7,9.2,31,9.5c0.3,0.2,0.6,0.4,1.1,0.6c0.4,0.1,0.9,0.2,1.3,0.2c0.5,0,0.9-0.1,1.4-0.2c0.4-0.1,0.8-0.3,1-0.6
					c0.3-0.2,0.5-0.5,0.7-0.9c0.2-0.3,0.2-0.7,0.2-1.1c0-0.3,0-0.6-0.1-0.9c-0.1-0.3-0.2-0.5-0.4-0.7c-0.2-0.2-0.3-0.4-0.5-0.5
					S35.2,5.1,35,5V5c0.2-0.1,0.3-0.2,0.5-0.4c0.2-0.2,0.3-0.3,0.4-0.5c0.1-0.2,0.2-0.4,0.3-0.6c0.1-0.2,0.1-0.5,0.1-0.7
					c0-0.4-0.1-0.8-0.2-1.1S35.8,1,35.5,0.8c-0.3-0.2-0.6-0.4-0.9-0.5C34.2,0.1,33.8,0,33.4,0c-0.4,0-0.8,0.1-1.2,0.2
					c-0.4,0.1-0.7,0.3-0.9,0.5C31,1,30.8,1.3,30.7,1.6c-0.1,0.3-0.2,0.7-0.2,1.1c0,0.5,0.1,1,0.4,1.3c0.3,0.4,0.6,0.7,1,1V5
					c-0.2,0.1-0.5,0.3-0.7,0.4c-0.2,0.2-0.4,0.3-0.6,0.6c-0.2,0.2-0.3,0.4-0.4,0.7C30.1,6.9,30,7.2,30,7.5C30,7.9,30.1,8.3,30.3,8.6
					L30.3,8.6z"/>
				<path id="Fill-12" class="st3" d="M0.6,1.5h0.9c0.1,0,0.2,0.1,0.3,0.1l2.3,3.1c0.2,0.3,0.2,0.8,0,1.1L1.9,8.9C1.9,9,1.8,9,1.6,9
					H0.7C0.4,9,0.2,8.7,0.4,8.5l2.4-3.3L0.4,2C0.1,1.8,0.3,1.5,0.6,1.5"/>
			</g>
		</g>
	</g>
</g>
<g>
	<path class="st4" d="M30.6,48.4L48,30.9l5.4,5.4L36,53.8L30.6,48.4z"/>
	<path class="st5" d="M30.7,49.1L29.2,56l6.9-1.5L30.7,49.1z"/>
	<polygon class="st4" points="30.3,54.9 30.7,52.8 32.4,54.4 	"/>
</g>
</svg>
