<?xml version="1.0" encoding="utf-8"?>
<!-- Generator: Adobe Illustrator 24.0.0, SVG Export Plug-In . SVG Version: 6.00 Build 0)  -->
<svg width="54px" height="60px" version="1.1" id="Ebene_1" xmlns="http://www.w3.org/2000/svg" xmlns:xlink="http://www.w3.org/1999/xlink" x="0px" y="0px"
	 viewBox="0 0 54 60" style="enable-background:new 0 0 54 60;" xml:space="preserve">
<style type="text/css">
	.st0{filter:url(#Adobe_OpacityMaskFilter);}
	.st1{fill-rule:evenodd;clip-rule:evenodd;fill:#FFFFFF;}
	.st2{mask:url(#mask-2_1_);fill-rule:evenodd;clip-rule:evenodd;fill:#D0DE66;}
	.st3{fill-rule:evenodd;clip-rule:evenodd;fill:#FEFEFE;}
	.st4{fill:#6A7800;}
	.st5{fill:#FEFEFE;}
</style>
<title>Group 15</title>
<desc>Created with Sketch.</desc>
<g id="Page-1">
	<g id="iPhone-8-Copy-3" transform="translate(-161.000000, -304.000000)">
		<g id="Group-15" transform="translate(161.000000, 304.000000)">
			<g id="Group-3">
				<g id="Clip-2">
				</g>
				<defs>
					<filter id="Adobe_OpacityMaskFilter" filterUnits="userSpaceOnUse" x="0" y="0" width="46.9" height="60">
						<feColorMatrix  type="matrix" values="1 0 0 0 0  0 1 0 0 0  0 0 1 0 0  0 0 0 1 0"/>
					</filter>
				</defs>
				<mask maskUnits="userSpaceOnUse" x="0" y="0" width="46.9" height="60" id="mask-2_1_">
					<g class="st0">
						<polygon id="path-1_1_" class="st1" points="0,0 46.9,0 46.9,60 0,60 						"/>
					</g>
				</mask>
				<path id="Fill-1" class="st2" d="M46.9,58.1c0,1.1-0.8,1.9-1.9,1.9H1.9C0.8,60,0,59.2,0,58.1V1.9C0,0.9,0.8,0,1.9,0H45
					c1.1,0,1.9,0.8,1.9,1.9L46.9,58.1z"/>
			</g>
			<polygon id="Fill-4" class="st3" points="7.6,33 39.3,33 39.3,30.3 7.6,30.3 			"/>
			<polygon id="Fill-5" class="st3" points="7.6,43.5 26.4,43.5 26.4,40.8 7.6,40.8 			"/>
			<g id="Group-14" transform="translate(4.000000, 10.000000)">
				<path id="Fill-10" class="st3" d="M7.2,10.1h6.6V8.5h-2.4c-0.2,0-0.5,0-0.8,0c-0.3,0-0.6,0-0.8,0.1c0.5-0.5,0.9-1,1.4-1.5
					c0.4-0.5,0.8-1,1.1-1.4c0.3-0.5,0.6-0.9,0.8-1.4c0.2-0.4,0.3-0.9,0.3-1.3c0-0.5-0.1-0.9-0.2-1.2c-0.1-0.4-0.4-0.7-0.6-0.9
					c-0.3-0.3-0.6-0.5-1-0.6C11.2,0.1,10.7,0,10.3,0C9.6,0,9,0.2,8.5,0.4C8,0.7,7.6,1.1,7.1,1.6l1,1C8.4,2.2,8.7,2,9,1.8
					s0.7-0.3,1-0.3c0.5,0,0.9,0.2,1.2,0.5c0.3,0.3,0.4,0.7,0.4,1.2c0,0.4-0.1,0.8-0.3,1.2c-0.2,0.4-0.5,0.9-0.9,1.3
					c-0.4,0.5-0.9,1-1.4,1.5C8.5,7.7,7.9,8.4,7.2,9V10.1z M20.9,8.9c0.6-0.9,0.9-2.2,0.9-3.8c0-1.7-0.3-2.9-0.9-3.8
					C20.3,0.5,19.5,0,18.5,0c-1,0-1.8,0.4-2.4,1.3c-0.6,0.8-0.9,2.1-0.9,3.8c0,1.7,0.3,2.9,0.9,3.8c0.6,0.9,1.4,1.3,2.4,1.3
					C19.5,10.2,20.3,9.8,20.9,8.9L20.9,8.9z M17.8,8.7c-0.2-0.1-0.4-0.3-0.5-0.6c-0.1-0.3-0.3-0.7-0.3-1.2c-0.1-0.5-0.1-1.1-0.1-1.8
					c0-0.7,0-1.3,0.1-1.7c0.1-0.5,0.2-0.8,0.3-1.1c0.1-0.3,0.3-0.5,0.5-0.6c0.2-0.1,0.4-0.2,0.7-0.2c0.2,0,0.5,0.1,0.7,0.2
					c0.2,0.1,0.4,0.3,0.5,0.6c0.1,0.3,0.3,0.7,0.3,1.1c0.1,0.5,0.1,1,0.1,1.7c0,0.7,0,1.3-0.1,1.8c-0.1,0.5-0.2,0.9-0.3,1.2
					c-0.1,0.3-0.3,0.5-0.5,0.6c-0.2,0.1-0.4,0.2-0.7,0.2C18.3,8.8,18,8.8,17.8,8.7L17.8,8.7z M23.6,10.1h5.9V8.6h-1.9V0.2h-1.3
					c-0.3,0.2-0.6,0.3-1,0.5S24.5,0.9,24,1v1.1h1.8v6.5h-2.2V10.1z M32.9,6.3c0.2-0.3,0.5-0.6,0.8-0.8c0.3,0.1,0.6,0.3,0.9,0.4
					c0.3,0.1,0.5,0.3,0.7,0.4c0.2,0.1,0.4,0.3,0.5,0.5C35.9,7,36,7.2,36,7.5c0,0.5-0.2,0.8-0.5,1.1C35.2,8.8,34.9,9,34.4,9
					c-0.5,0-0.9-0.1-1.3-0.4c-0.3-0.3-0.5-0.7-0.5-1.2C32.6,7,32.7,6.6,32.9,6.3L32.9,6.3z M34.2,4.2c-0.2-0.1-0.4-0.2-0.6-0.4
					c-0.2-0.1-0.3-0.3-0.4-0.5S33,2.9,33,2.7c0-0.4,0.1-0.8,0.4-1c0.3-0.2,0.6-0.3,1-0.3c0.5,0,0.8,0.1,1.1,0.4
					c0.3,0.3,0.4,0.6,0.4,1.1c0,0.3-0.1,0.6-0.2,0.9S35.3,4.2,35,4.5C34.7,4.4,34.5,4.3,34.2,4.2L34.2,4.2z M31.3,8.6
					C31.4,9,31.7,9.2,32,9.5c0.3,0.2,0.6,0.4,1.1,0.6c0.4,0.1,0.9,0.2,1.3,0.2c0.5,0,0.9-0.1,1.4-0.2c0.4-0.1,0.8-0.3,1-0.6
					c0.3-0.2,0.5-0.5,0.7-0.9c0.2-0.3,0.2-0.7,0.2-1.1c0-0.3,0-0.6-0.1-0.9c-0.1-0.3-0.2-0.5-0.4-0.7c-0.2-0.2-0.3-0.4-0.5-0.5
					S36.2,5.1,36,5V5c0.2-0.1,0.3-0.2,0.5-0.4c0.2-0.2,0.3-0.3,0.4-0.5c0.1-0.2,0.2-0.4,0.3-0.6c0.1-0.2,0.1-0.5,0.1-0.7
					c0-0.4-0.1-0.8-0.2-1.1S36.8,1,36.5,0.8c-0.3-0.2-0.6-0.4-0.9-0.5C35.2,0.1,34.8,0,34.4,0c-0.4,0-0.8,0.1-1.2,0.2
					c-0.4,0.1-0.7,0.3-0.9,0.5C32,1,31.8,1.3,31.7,1.6c-0.1,0.3-0.2,0.7-0.2,1.1c0,0.5,0.1,1,0.4,1.3c0.3,0.4,0.6,0.7,1,1V5
					c-0.2,0.1-0.5,0.3-0.7,0.4c-0.2,0.2-0.4,0.3-0.6,0.6c-0.2,0.2-0.3,0.4-0.4,0.7C31.1,6.9,31,7.2,31,7.5C31,7.9,31.1,8.3,31.3,8.6
					L31.3,8.6z"/>
				<path id="Fill-12" class="st3" d="M4.2,1.5H3.3C3.2,1.5,3.1,1.6,3,1.7L0.7,4.7C0.5,5,0.5,5.5,0.7,5.8l2.2,3.1C3,9,3.1,9,3.2,9
					h0.9c0.3,0,0.5-0.3,0.3-0.5L2.1,5.2L4.5,2C4.7,1.8,4.6,1.5,4.2,1.5"/>
			</g>
		</g>
	</g>
</g>
<g>
	<path class="st4" d="M31.4,48.4l17.5-17.5l5.4,5.4L36.8,53.8L31.4,48.4z"/>
	<path class="st5" d="M31.4,49.1L30,56l6.9-1.5L31.4,49.1z"/>
	<polygon class="st4" points="31.1,54.9 31.5,52.8 33.2,54.4 	"/>
</g>
</svg>
