<?xml version="1.0" encoding="utf-8"?>
<!-- Generator: Adobe Illustrator 24.0.0, SVG Export Plug-In . SVG Version: 6.00 Build 0)  -->
<svg width="60px" height="61px" version="1.1" id="Ebene_1" xmlns="http://www.w3.org/2000/svg" xmlns:xlink="http://www.w3.org/1999/xlink" x="0px" y="0px"
	 viewBox="0 0 60 61" style="enable-background:new 0 0 60 61;" xml:space="preserve">
<style type="text/css">
	.st0{fill:#D0DE66;}
	.st1{fill:#6A7800;}
	.st2{fill:#FFFFFF;}
	.st3{fill-rule:evenodd;clip-rule:evenodd;fill:#8DA000;}
</style>
<g>
	<g>
		<path class="st0" d="M30.1,4.2l-21.2,21v30.2h42.5V25.2L30.1,4.2z"/>
		<path class="st1" d="M56.8,26.3L32.4,2c-1.1-1.1-3.1-1.1-4.6,0L3.4,26.3c-1.1,1.1-1.1,3.1,0,4.5c1.1,1.1,3.1,1.1,4.6,0L30.1,8.5
			l22.1,22c0.5,0.5,1.5,0.8,2.3,0.8c0.8,0,1.7-0.3,2.3-0.8C58,29.3,58,27.5,56.8,26.3z"/>
	</g>
</g>
<title>Group 20</title>
<desc>Created with Sketch.</desc>
<g>
	<ellipse class="st2" cx="22.1" cy="36.6" rx="4.6" ry="4.5"/>
	<ellipse class="st2" cx="36.7" cy="36.6" rx="4.6" ry="4.5"/>
	<path class="st2" d="M23.1,54.3L23.1,54.3c0-2.2,1.1-4,2.7-5.2c-0.7-0.8-1.1-1.9-1.1-3c0-1.4,0.6-2.7,1.6-3.6
		c-1.2-0.8-2.6-1.3-4.2-1.3c-3.6,0-6.6,2.9-6.6,6.5c0,0,0,0.1,0,0.1l0,7.9l7.7,0L23.1,54.3z"/>
	<g transform="translate(53.812 28.945)">
		<ellipse class="st2" cx="-24.4" cy="17.7" rx="3.4" ry="3.3"/>
		<path class="st2" d="M-24.4,21c-2.7,0-4.9,2.1-4.9,4.8c0,0,0,0,0,0.1l0,3.4l10,0l-0.1-3.4C-19.3,23.1-21.6,21-24.4,21z"/>
	</g>
	<g transform="translate(53.812 28.945)">
		<ellipse class="st2" cx="-9.7" cy="17.7" rx="3.4" ry="3.3"/>
		<path class="st2" d="M-9.7,21c-2.7,0-4.9,2.1-4.9,4.8c0,0,0,0,0,0.1l0,3.9l10,0l-0.1-3.9C-4.7,23.1-6.9,21-9.7,21z"/>
	</g>
	<path class="st2" d="M40.9,42.5c-1.2-0.8-2.6-1.3-4.2-1.3c-1.5,0-2.9,0.5-4,1.3c1,0.9,1.7,2.2,1.7,3.6c0,1.1-0.4,2.2-1.1,3
		c1.7,1.1,2.7,3,2.7,5.2l0,1.4l1.7,0l0-1.4l0-0.1c0-2.1,1.1-3.9,2.7-5.1c-0.7-0.8-1.1-1.9-1.1-3C39.2,44.7,39.9,43.4,40.9,42.5z"/>
	<g>
		<path class="st2" d="M23.1,54.3L23.1,54.3c0-2.2,1.1-4,2.7-5.2c-0.7-0.8-1.1-1.9-1.1-3c0-1.4,0.6-2.7,1.6-3.6
			c-1.2-0.8-2.6-1.3-4.2-1.3c-3.6,0-6.6,2.9-6.6,6.5c0,0,0,0.1,0,0.1l0,7.9l7.7,0L23.1,54.3z"/>
	</g>
</g>
<path class="st3" d="M57.8,59.8H2.2c-1.2,0-2.1-1-2.1-2.2c0-1.3,1-2.2,2.1-2.2h55.5c1.2,0,2.1,1,2.1,2.2
	C59.9,58.8,58.9,59.8,57.8,59.8z"/>
</svg>
