<?xml version="1.0" encoding="utf-8"?>
<!-- Generator: Adobe Illustrator 24.0.0, SVG Export Plug-In . SVG Version: 6.00 Build 0)  -->
<svg width="60px" height="61px" version="1.1" id="Ebene_1" xmlns="http://www.w3.org/2000/svg" xmlns:xlink="http://www.w3.org/1999/xlink" x="0px" y="0px"
	 viewBox="0 0 60 61" style="enable-background:new 0 0 60 61;" xml:space="preserve">
<style type="text/css">
	.st0{fill:#D0DE66;}
	.st1{fill:#6A7800;}
	.st2{fill:#FFFFFF;}
	.st3{fill-rule:evenodd;clip-rule:evenodd;fill:#8DA000;}
</style>
<title>Group 12</title>
<desc>Created with Sketch.</desc>
<g>
	<g>
		<path class="st0" d="M30.1,4.2l-21.2,21v30.2h42.5V25.2L30.1,4.2z"/>
		<path class="st1" d="M56.8,26.3L32.4,2c-1.1-1.1-3.1-1.1-4.6,0L3.4,26.3c-1.1,1.1-1.1,3.1,0,4.5c1.1,1.1,3.1,1.1,4.6,0L30.1,8.5
			l22.1,22c0.5,0.5,1.5,0.8,2.3,0.8c0.8,0,1.7-0.3,2.3-0.8C58,29.3,58,27.5,56.8,26.3z"/>
	</g>
</g>
<g>
	<g transform="translate(53.812 28.945)">
		<ellipse class="st2" cx="-27" cy="7.5" rx="4.6" ry="4.5"/>
		<path class="st2" d="M-27,12c-3.6,0-6.6,2.9-6.6,6.5c0,0,0,0.1,0,0.1l0,7.9l13.6,0.1l-0.1-8C-20.2,14.8-23.2,12-27,12z"/>
	</g>
	<g transform="translate(53.812 28.945)">
		<ellipse class="st2" cx="-12.4" cy="7.5" rx="4.6" ry="4.5"/>
		<path class="st2" d="M-12.4,12c-3.6,0-6.6,2.9-6.6,6.5c0,0,0,0.1,0,0.1l0,7.9l13.6,0.1l-0.1-8C-5.5,14.8-8.6,12-12.4,12z"/>
	</g>
</g>
<path class="st3" d="M57.8,59.8H2.2c-1.2,0-2.1-1-2.1-2.2c0-1.3,1-2.2,2.1-2.2h55.5c1.2,0,2.1,1,2.1,2.2
	C59.9,58.8,58.9,59.8,57.8,59.8z"/>
</svg>
