<?xml version="1.0" encoding="utf-8"?>
<!-- Generator: Adobe Illustrator 24.0.0, SVG Export Plug-In . SVG Version: 6.00 Build 0)  -->
<svg width="60px" height="60px" version="1.1" id="Ebene_1" xmlns="http://www.w3.org/2000/svg" xmlns:xlink="http://www.w3.org/1999/xlink" x="0px" y="0px"
	 viewBox="0 0 60 60" style="enable-background:new 0 0 60 60;" xml:space="preserve">
<style type="text/css">
	.st0{fill:#D0DE66;}
	.st1{fill:#6A7800;}
	.st2{fill-rule:evenodd;clip-rule:evenodd;fill:#8DA000;}
	.st3{fill:#FFFFFF;}
</style>
<title>Group 16</title>
<desc>Created with Sketch.</desc>
<g>
	<g>
		<path class="st0" d="M30.1,3.8l-21.2,21v30.2h42.5V24.7L30.1,3.8z"/>
		<path class="st1" d="M56.8,25.8L32.4,1.5c-1.1-1.1-3.1-1.1-4.6,0L3.4,25.8c-1.1,1.1-1.1,3.1,0,4.5c1.1,1.1,3.1,1.1,4.6,0L30.1,8.1
			l22.1,22c0.5,0.5,1.5,0.8,2.3,0.8c0.8,0,1.7-0.3,2.3-0.8C58,28.9,58,27,56.8,25.8z"/>
	</g>
	<path class="st2" d="M57.8,59.4H2.2c-1.2,0-2.1-1-2.1-2.2c0-1.3,1-2.2,2.1-2.2h55.5c1.2,0,2.1,1,2.1,2.2
		C59.9,58.3,58.9,59.4,57.8,59.4z"/>
</g>
<g>
	<path class="st3" d="M28.9,32.6c1.5-0.3,3-0.3,4.5-0.3c0.4,0,0.8,0.1,1.2,0.1c0.4,0.1,0.8,0.1,1.2,0.2c0.4,0.1,0.8,0.2,1.1,0.3
		c0.4,0.2,0.8,0.3,1.2,0.5c0.1,0.1,0.2,0.1,0.3,0.2c0.3,0.2,0.6,0.5,0.8,0.8c0,0.1,0,0.2,0,0.3c0,0.1,0,0.2-0.1,0.3
		c-0.2,0.4-0.5,0.6-0.8,0.8c-0.1,0-0.2,0.1-0.3,0.1c-0.4,0.2-0.8,0.3-1.2,0.5c-0.6,0.2-1.3,0.3-1.9,0.4c-0.4,0.1-0.8,0.1-1.2,0.2
		c-0.1,0-0.2,0-0.3,0c-0.4,0-0.8,0-1.1,0c-0.4,0-0.8,0-1.2,0c0,0-0.1,0-0.1,0c-0.4,0-0.7-0.1-1.1-0.1c-0.4-0.1-0.8-0.1-1.1-0.2
		c-0.4-0.1-0.8-0.2-1.2-0.3c-0.4-0.1-0.8-0.3-1.1-0.4c-0.1-0.1-0.2-0.1-0.3-0.2c-0.3-0.2-0.6-0.4-0.8-0.8c0-0.1-0.1-0.2-0.1-0.3
		c0-0.1,0-0.2,0-0.2c0.2-0.4,0.5-0.6,0.8-0.9c0.1-0.1,0.2-0.1,0.3-0.2c0.4-0.1,0.8-0.3,1.1-0.4C28.1,32.8,28.5,32.7,28.9,32.6z"/>
	<path class="st3" d="M23.1,43.1c-0.5-0.2-1-0.4-1.4-0.7c-0.3-0.2-0.5-0.4-0.7-0.7c-0.4-0.6-0.3-1.2,0.1-1.7
		c0.5-0.6,1.1-0.9,1.8-1.2c0.1,0,0.1,0,0.2-0.1c0.4-0.1,0.8-0.2,1.1-0.3c0.4-0.1,0.8-0.1,1.2-0.2c0.4,0,0.7-0.1,1.1-0.1
		c0,0,0.1,0,0.1,0c0.4,0,0.8,0,1.1,0c0.8,0,1.5,0.1,2.3,0.2c0.4,0.1,0.8,0.1,1.1,0.2c0.4,0.1,0.8,0.2,1.2,0.4c0.1,0,0.1,0.1,0.2,0.1
		c0.6,0.3,1.3,0.6,1.7,1.1c0.4,0.5,0.5,1.1,0.1,1.7c-0.2,0.3-0.4,0.5-0.7,0.7c-0.4,0.3-0.9,0.5-1.4,0.7c-0.4,0.1-0.8,0.2-1.2,0.4
		c-0.4,0.1-0.8,0.1-1.1,0.2c-0.3,0-0.6,0.1-0.8,0.1c-0.1,0-0.2,0-0.3,0c-0.4,0-0.8,0-1.2,0c-0.4,0-0.8,0-1.1,0
		c-0.8-0.1-1.6-0.2-2.3-0.3C23.8,43.4,23.5,43.2,23.1,43.1z"/>
	<path class="st3" d="M21.9,43.9c0.4,0.2,0.7,0.4,1.1,0.5c0.4,0.2,0.7,0.2,1.1,0.3c0.4,0.1,0.8,0.2,1.2,0.2c0.4,0.1,0.8,0.1,1.1,0.1
		c0.4,0.1,0.8,0,1.1,0c0.4,0,0.8,0,1.2,0c0.4,0,0.8,0,1.1-0.1c0.4,0,0.8-0.1,1.1-0.2c0.4-0.1,0.8-0.2,1.2-0.3
		c0.4-0.1,0.7-0.2,1.1-0.4c0,0,0.1,0,0.1,0c0.4-0.1,0.7-0.4,1-0.6c0.1,0,0.1-0.1,0.2-0.1c0,0.2,0,0.4,0,0.7c0,0.4,0,0.8,0,1.1
		c0,0.1,0,0.2,0,0.3c-0.2,0.4-0.5,0.7-0.9,0.9c-0.1,0-0.2,0.1-0.2,0.1c-0.4,0.2-0.8,0.3-1.2,0.5c-0.4,0.1-0.8,0.2-1.1,0.3
		c-0.8,0.1-1.5,0.2-2.3,0.3c-0.4,0-0.8,0-1.2,0c-0.4,0-0.8,0-1.1,0c-0.2,0-0.3,0-0.5,0c-0.2-0.1-0.4,0-0.6-0.1
		c-0.4-0.1-0.8-0.1-1.2-0.2c-0.4-0.1-0.8-0.2-1.1-0.3c-0.4-0.1-0.8-0.3-1.2-0.5c-0.2-0.1-0.4-0.3-0.6-0.4c-0.3-0.2-0.5-0.5-0.5-0.9
		c0-0.4,0-0.8,0-1.1c0-0.2,0-0.5,0-0.7c0.3,0.2,0.6,0.4,0.9,0.6C21.8,43.8,21.8,43.8,21.9,43.9z"/>
	<path class="st3" d="M39.2,40c0,0.1,0,0.2,0,0.4c0,0.4,0,0.8,0,1.1c0,0.1,0,0.2-0.1,0.3c-0.1,0.2-0.2,0.4-0.3,0.5
		c-0.2,0.1-0.4,0.3-0.5,0.4c-0.1,0-0.1,0.1-0.2,0.1c-0.4,0.2-0.8,0.3-1.2,0.5c-0.4,0.1-0.8,0.2-1.1,0.3c0-0.3,0-0.6,0-0.8
		c0-0.4,0-0.8,0-1.2c0-0.1,0-0.2,0-0.3c0.4-0.1,0.8-0.1,1.1-0.3c0,0,0.1,0,0.1,0C37.8,40.8,38.6,40.4,39.2,40z"/>
	<path class="st3" d="M38.4,39.2c-0.1,0.1-0.2,0.1-0.3,0.2c-0.4,0.1-0.8,0.3-1.1,0.4c-0.4,0.1-0.8,0.2-1.1,0.3c-0.2,0-0.2,0-0.3-0.2
		c-0.1-0.3-0.2-0.5-0.4-0.7c-0.1-0.2-0.3-0.3-0.4-0.4c-0.3-0.3-0.7-0.6-1.2-0.7c0,0,0,0,0,0c0,0,0,0,0,0c0.4,0,0.8,0,1.1-0.1
		c0.4,0,0.8-0.1,1.2-0.2c0.4,0,0.8-0.1,1.1-0.3c0.4-0.1,0.8-0.2,1.2-0.4c0.1,0,0.3-0.1,0.4-0.2c0.2-0.1,0.4-0.2,0.5-0.3
		c0.1,0,0.1-0.1,0.2-0.1c0,0.1,0,0.2,0,0.4c0,0.4,0,0.8,0,1.1c0,0.1,0,0.2-0.1,0.3C39,38.7,38.7,39,38.4,39.2z"/>
</g>
</svg>
