<?xml version="1.0" encoding="utf-8"?>
<!-- Generator: Adobe Illustrator 24.0.0, SVG Export Plug-In . SVG Version: 6.00 Build 0)  -->
<svg width="60px" height="60px" version="1.1" id="Ebene_1" xmlns="http://www.w3.org/2000/svg" xmlns:xlink="http://www.w3.org/1999/xlink" x="0px" y="0px"
	 viewBox="0 0 60 60" style="enable-background:new 0 0 60 60;" xml:space="preserve">
<style type="text/css">
	.st0{fill:#D0DE66;}
	.st1{fill:#6A7800;}
	.st2{fill-rule:evenodd;clip-rule:evenodd;fill:#8DA000;}
	.st3{fill:#FFFFFF;}
</style>
<title>Group 32</title>
<desc>Created with Sketch.</desc>
<g>
	<g>
		<path class="st0" d="M30.1,3.7l-21.2,21v30.2h42.5V24.7L30.1,3.7z"/>
		<path class="st1" d="M56.8,25.8L32.4,1.5c-1.1-1.1-3.1-1.1-4.6,0L3.4,25.8c-1.1,1.1-1.1,3.1,0,4.5c1.1,1.1,3.1,1.1,4.6,0L30.1,8
			l22.1,22c0.5,0.5,1.5,0.8,2.3,0.8c0.8,0,1.7-0.3,2.3-0.8C58,28.8,58,27,56.8,25.8z"/>
	</g>
	<path class="st2" d="M57.8,59.3H2.2c-1.2,0-2.1-1-2.1-2.2c0-1.3,1-2.2,2.1-2.2h55.5c1.2,0,2.1,1,2.1,2.2
		C59.9,58.3,58.9,59.3,57.8,59.3z"/>
</g>
<g>
	<path class="st3" d="M28.9,23.7c1.5-0.3,3-0.3,4.5-0.3c0.4,0,0.8,0.1,1.2,0.1c0.4,0.1,0.8,0.1,1.2,0.2c0.4,0.1,0.8,0.2,1.1,0.3
		c0.4,0.2,0.8,0.3,1.2,0.5c0.1,0.1,0.2,0.1,0.3,0.2c0.3,0.2,0.6,0.5,0.8,0.8c0,0.1,0,0.2,0,0.3c0,0.1,0,0.2-0.1,0.3
		c-0.2,0.4-0.5,0.6-0.8,0.8c-0.1,0-0.2,0.1-0.3,0.1c-0.4,0.2-0.8,0.3-1.2,0.5c-0.6,0.2-1.3,0.3-1.9,0.4c-0.4,0.1-0.8,0.1-1.2,0.2
		c-0.1,0-0.2,0-0.3,0c-0.4,0-0.8,0-1.1,0c-0.4,0-0.8,0-1.2,0c0,0-0.1,0-0.1,0c-0.4,0-0.7-0.1-1.1-0.1c-0.4-0.1-0.8-0.1-1.1-0.2
		c-0.4-0.1-0.8-0.2-1.2-0.3c-0.4-0.1-0.8-0.3-1.1-0.4c-0.1-0.1-0.2-0.1-0.3-0.2c-0.3-0.2-0.6-0.4-0.8-0.8c0-0.1-0.1-0.2-0.1-0.3
		c0-0.1,0-0.2,0-0.2c0.2-0.4,0.5-0.6,0.8-0.9c0.1-0.1,0.2-0.1,0.3-0.2c0.4-0.1,0.8-0.3,1.1-0.4C28.1,23.9,28.5,23.8,28.9,23.7z"/>
	<path class="st3" d="M24.2,41.6c-0.4-0.1-0.8-0.2-1.1-0.3c-0.4-0.1-0.8-0.3-1.2-0.5c-0.1-0.1-0.2-0.1-0.3-0.2
		c-0.3-0.2-0.6-0.5-0.8-0.8c0-0.1,0-0.2-0.1-0.3c0-0.4,0-0.8,0-1.1c0-0.1,0-0.2,0-0.3c0.1,0,0.2,0.1,0.2,0.1
		c0.7,0.4,1.4,0.7,2.1,0.8c0.4,0.1,0.8,0.2,1.1,0.2c0.4,0.1,0.8,0.1,1.2,0.2c0.4,0.1,0.8,0.1,1.1,0.1c0.4,0,0.8,0,1.1,0
		c0.4,0,0.8,0,1.2,0c0.4,0,0.8,0,1.1-0.1c0.4,0,0.8-0.1,1.1-0.2c0.4-0.1,0.8-0.1,1.2-0.3c0.4-0.1,0.8-0.2,1.1-0.4
		c0.2,0,0.3-0.1,0.5-0.2c0.2-0.1,0.5-0.2,0.7-0.4c0,0.1,0,0.2,0,0.4c0,0.4,0,0.8,0,1.2c0,0.1,0,0.2-0.1,0.3
		c-0.1,0.2-0.2,0.3-0.3,0.4c-0.2,0.2-0.4,0.3-0.6,0.4c-0.1,0-0.2,0.1-0.3,0.2c-0.4,0.1-0.7,0.3-1.1,0.4c-0.4,0.1-0.8,0.2-1.2,0.3
		c-0.8,0.1-1.6,0.2-2.4,0.3c-0.9,0-1.8,0-2.8,0c-0.2,0-0.4,0-0.6-0.1C25,41.7,24.6,41.6,24.2,41.6z"/>
	<path class="st3" d="M24.3,44.9c-0.4-0.1-0.8-0.2-1.1-0.3c-0.4-0.1-0.8-0.3-1.2-0.5c-0.1-0.1-0.2-0.1-0.3-0.2
		c-0.3-0.2-0.6-0.5-0.8-0.8c0-0.1,0-0.2-0.1-0.3c0-0.4,0-0.8,0-1.1c0-0.1,0-0.2,0-0.3c0.1,0,0.2,0.1,0.2,0.1
		c0.7,0.4,1.4,0.7,2.1,0.8c0.4,0.1,0.8,0.2,1.1,0.2c0.4,0.1,0.8,0.1,1.2,0.2c0.4,0.1,0.8,0.1,1.1,0.1c0.4,0,0.8,0,1.1,0
		c0.4,0,0.8,0,1.2,0c0.4,0,0.8,0,1.1-0.1c0.4,0,0.8-0.1,1.1-0.2c0.4-0.1,0.8-0.1,1.2-0.3c0.4-0.1,0.8-0.2,1.1-0.4
		c0.2,0,0.3-0.1,0.5-0.2c0.2-0.1,0.5-0.2,0.7-0.4c0,0.1,0,0.2,0,0.4c0,0.4,0,0.8,0,1.2c0,0.1,0,0.2-0.1,0.3
		c-0.1,0.2-0.2,0.3-0.3,0.4c-0.2,0.2-0.4,0.3-0.6,0.4c-0.1,0-0.2,0.1-0.3,0.2c-0.4,0.1-0.7,0.3-1.1,0.4c-0.4,0.1-0.8,0.2-1.2,0.3
		c-0.8,0.1-1.6,0.2-2.4,0.3c-0.9,0-1.8,0-2.8,0c-0.2,0-0.4,0-0.6-0.1C25.1,45,24.7,44.9,24.3,44.9z"/>
	<path class="st3" d="M24.3,48.3c-0.4-0.1-0.8-0.2-1.1-0.3c-0.4-0.1-0.8-0.3-1.2-0.5c-0.1-0.1-0.2-0.1-0.3-0.2
		c-0.3-0.2-0.6-0.5-0.8-0.8c0-0.1,0-0.2-0.1-0.3c0-0.4,0-0.8,0-1.1c0-0.1,0-0.2,0-0.3c0.1,0,0.2,0.1,0.2,0.1
		c0.7,0.4,1.4,0.7,2.1,0.8c0.4,0.1,0.8,0.2,1.1,0.2c0.4,0.1,0.8,0.1,1.2,0.2c0.4,0.1,0.8,0.1,1.1,0.1c0.4,0,0.8,0,1.1,0
		c0.4,0,0.8,0,1.2,0c0.4,0,0.8,0,1.1-0.1c0.4,0,0.8-0.1,1.1-0.2c0.4-0.1,0.8-0.1,1.2-0.3c0.4-0.1,0.8-0.2,1.1-0.4
		c0.2,0,0.3-0.1,0.5-0.2c0.2-0.1,0.5-0.2,0.7-0.4c0,0.1,0,0.2,0,0.4c0,0.4,0,0.8,0,1.2c0,0.1,0,0.2-0.1,0.3
		c-0.1,0.2-0.2,0.3-0.3,0.4c-0.2,0.2-0.4,0.3-0.6,0.4c-0.1,0-0.2,0.1-0.3,0.2c-0.4,0.1-0.7,0.3-1.1,0.4c-0.4,0.1-0.8,0.2-1.2,0.3
		c-0.8,0.1-1.6,0.2-2.4,0.3c-0.9,0-1.8,0-2.8,0c-0.2,0-0.4,0-0.6-0.1C25.1,48.4,24.7,48.3,24.3,48.3z"/>
	<path class="st3" d="M23.1,34.2c-0.5-0.2-1-0.4-1.4-0.7c-0.3-0.2-0.5-0.4-0.7-0.7c-0.4-0.6-0.3-1.2,0.1-1.7
		c0.5-0.6,1.1-0.9,1.8-1.2c0.1,0,0.1,0,0.2-0.1c0.4-0.1,0.8-0.2,1.1-0.3c0.4-0.1,0.8-0.1,1.2-0.2c0.4,0,0.7-0.1,1.1-0.1
		c0,0,0.1,0,0.1,0c0.4,0,0.8,0,1.1,0c0.8,0,1.5,0.1,2.3,0.2c0.4,0.1,0.8,0.1,1.1,0.2c0.4,0.1,0.8,0.2,1.2,0.4c0.1,0,0.1,0.1,0.2,0.1
		c0.6,0.3,1.3,0.6,1.7,1.1c0.4,0.5,0.5,1.1,0.1,1.7c-0.2,0.3-0.4,0.5-0.7,0.7c-0.4,0.3-0.9,0.5-1.4,0.7c-0.4,0.1-0.8,0.2-1.2,0.4
		c-0.4,0.1-0.8,0.1-1.1,0.2c-0.3,0-0.6,0.1-0.8,0.1c-0.1,0-0.2,0-0.3,0c-0.4,0-0.8,0-1.2,0c-0.4,0-0.8,0-1.1,0
		c-0.8-0.1-1.6-0.2-2.3-0.3C23.8,34.5,23.5,34.3,23.1,34.2z"/>
	<path class="st3" d="M21.9,35c0.4,0.2,0.7,0.4,1.1,0.5c0.4,0.2,0.7,0.2,1.1,0.3c0.4,0.1,0.8,0.2,1.2,0.2c0.4,0.1,0.8,0.1,1.1,0.1
		c0.4,0.1,0.8,0,1.1,0c0.4,0,0.8,0,1.2,0c0.4,0,0.8,0,1.1-0.1c0.4,0,0.8-0.1,1.1-0.2c0.4-0.1,0.8-0.2,1.2-0.3
		c0.4-0.1,0.7-0.2,1.1-0.4c0,0,0.1,0,0.1,0c0.4-0.1,0.7-0.4,1-0.6c0.1,0,0.1-0.1,0.2-0.1c0,0.2,0,0.4,0,0.7c0,0.4,0,0.8,0,1.1
		c0,0.1,0,0.2,0,0.3c-0.2,0.4-0.5,0.7-0.9,0.9c-0.1,0-0.2,0.1-0.2,0.1c-0.4,0.2-0.8,0.3-1.2,0.5c-0.4,0.1-0.8,0.2-1.1,0.3
		c-0.8,0.1-1.5,0.2-2.3,0.3c-0.4,0-0.8,0-1.2,0c-0.4,0-0.8,0-1.1,0c-0.2,0-0.3,0-0.5,0c-0.2-0.1-0.4,0-0.6-0.1
		c-0.4-0.1-0.8-0.1-1.2-0.2c-0.4-0.1-0.8-0.2-1.1-0.3c-0.4-0.1-0.8-0.3-1.2-0.5c-0.2-0.1-0.4-0.3-0.6-0.4c-0.3-0.2-0.5-0.5-0.5-0.9
		c0-0.4,0-0.8,0-1.1c0-0.2,0-0.5,0-0.7c0.3,0.2,0.6,0.4,0.9,0.6C21.8,34.9,21.8,34.9,21.9,35z"/>
	<path class="st3" d="M39.2,31.1c0,0.1,0,0.2,0,0.4c0,0.4,0,0.8,0,1.1c0,0.1,0,0.2-0.1,0.3c-0.1,0.2-0.2,0.4-0.3,0.5
		c-0.2,0.1-0.4,0.3-0.5,0.4c-0.1,0-0.1,0.1-0.2,0.1c-0.4,0.2-0.8,0.3-1.2,0.5c-0.4,0.1-0.8,0.2-1.1,0.3c0-0.3,0-0.6,0-0.8
		c0-0.4,0-0.8,0-1.2c0-0.1,0-0.2,0-0.3c0.4-0.1,0.8-0.1,1.1-0.3c0,0,0.1,0,0.1,0C37.8,31.9,38.6,31.5,39.2,31.1z"/>
	<path class="st3" d="M39.2,34.4c0,0.1,0,0.2,0,0.4c0,0.4,0,0.8,0,1.1c0,0.1,0,0.2-0.1,0.3c-0.1,0.2-0.2,0.4-0.3,0.5
		c-0.2,0.1-0.4,0.3-0.5,0.4c-0.1,0-0.1,0.1-0.2,0.1c-0.4,0.2-0.8,0.3-1.2,0.5c-0.4,0.1-0.8,0.2-1.1,0.3c0-0.3,0-0.6,0-0.8
		c0-0.4,0-0.8,0-1.2c0-0.1,0-0.2,0-0.3c0.4-0.1,0.8-0.1,1.1-0.3c0,0,0.1,0,0.1,0C37.8,35.1,38.6,34.8,39.2,34.4z"/>
	<path class="st3" d="M39.2,37.8c0,0.1,0,0.2,0,0.4c0,0.4,0,0.8,0,1.1c0,0.1,0,0.2-0.1,0.3c-0.1,0.2-0.2,0.4-0.3,0.5
		c-0.2,0.1-0.4,0.3-0.5,0.4c-0.1,0-0.1,0.1-0.2,0.1c-0.4,0.2-0.8,0.3-1.2,0.5c-0.4,0.1-0.8,0.2-1.1,0.3c0-0.3,0-0.6,0-0.8
		c0-0.4,0-0.8,0-1.2c0-0.1,0-0.2,0-0.3c0.4-0.1,0.8-0.1,1.1-0.3c0,0,0.1,0,0.1,0C37.8,38.5,38.6,38.2,39.2,37.8z"/>
	<path class="st3" d="M38.4,30.3c-0.1,0.1-0.2,0.1-0.3,0.2c-0.4,0.1-0.8,0.3-1.1,0.4c-0.4,0.1-0.8,0.2-1.1,0.3c-0.2,0-0.2,0-0.3-0.2
		c-0.1-0.3-0.2-0.5-0.4-0.7c-0.1-0.2-0.3-0.3-0.4-0.4c-0.3-0.3-0.7-0.6-1.2-0.7c0,0,0,0,0,0c0,0,0,0,0,0c0.4,0,0.8,0,1.1-0.1
		c0.4,0,0.8-0.1,1.2-0.2c0.4,0,0.8-0.1,1.1-0.3c0.4-0.1,0.8-0.2,1.2-0.4c0.1,0,0.3-0.1,0.4-0.2c0.2-0.1,0.4-0.2,0.5-0.3
		c0.1,0,0.1-0.1,0.2-0.1c0,0.1,0,0.2,0,0.4c0,0.4,0,0.8,0,1.1c0,0.1,0,0.2-0.1,0.3C39,29.8,38.7,30.1,38.4,30.3z"/>
</g>
</svg>
