<?xml version="1.0" encoding="utf-8"?>
<!-- Generator: Adobe Illustrator 24.0.0, SVG Export Plug-In . SVG Version: 6.00 Build 0)  -->
<svg width="78px" height="75px" version="1.1" id="Ebene_1" xmlns="http://www.w3.org/2000/svg" xmlns:xlink="http://www.w3.org/1999/xlink" x="0px" y="0px"
	 viewBox="0 0 78 75" style="enable-background:new 0 0 78 75;" xml:space="preserve">
<style type="text/css">
	.st0{fill:#D0DE66;}
	.st1{fill:#6A7800;}
	.st2{fill-rule:evenodd;clip-rule:evenodd;fill:#8DA000;}
	.st3{fill:#8DA000;}
	.st4{fill-rule:evenodd;clip-rule:evenodd;fill:#FEFEFE;}
</style>
<title>Group 21</title>
<desc>Created with Sketch.</desc>
<g>
	<g>
		<g>
			<path class="st0" d="M34.3,4.1L10.8,27.4v33.6H58V27.4L34.3,4.1z"/>
			<path class="st1" d="M64,28.6l-27.1-27c-1.2-1.2-3.4-1.2-5.1,0l-27.1,27c-1.2,1.2-1.2,3.4,0,5c1.2,1.2,3.4,1.2,5.1,0L34.3,8.8
				l24.6,24.4c0.6,0.6,1.7,0.9,2.6,0.9c0.9,0,1.9-0.3,2.6-0.9C65.3,31.9,65.3,29.9,64,28.6z"/>
		</g>
	</g>
	<path class="st2" d="M65.1,65.8H3.3C2,65.8,1,64.7,1,63.4c0-1.4,1.1-2.4,2.3-2.4H65c1.3,0,2.3,1.1,2.3,2.4
		C67.4,64.7,66.3,65.8,65.1,65.8z"/>
</g>
<path class="st3" d="M71.8,73.1c-1.1,0.7-2.2,1.1-3.5,1.2c-1.5,0-2.8-0.4-4-1.2c-0.4-0.4-0.9-0.8-1.3-1.3c-0.6-0.8-1-1.8-1.2-2.7
	c0-0.7,0-1.4,0-2.1c0.1-0.1,0.1-0.2-0.1-0.2c-0.8,0-1.7,0-2.5,0c-0.8,0-1.7,0-2.5,0c-0.9,0-1.7,0-2.6,0c-0.8,0-1.7,0-2.5,0
	c-0.8,0-1.5,0-2.3,0c-0.3,0-0.4,0.1-0.3,0.4c0,0.4,0.1,0.9,0.1,1.3c-0.1,1.2-0.5,2.3-1.2,3.3c-0.4,0.5-0.9,1-1.4,1.4
	c-1.4,0.9-2.9,1.3-4.6,1.2c-0.1-0.1-0.3-0.1-0.5-0.1c-0.9-0.2-1.7-0.6-2.4-1.1c-0.4-0.4-0.9-0.7-1.2-1.2c-0.1-0.1-0.2-0.1-0.2,0
	c-0.3,0.5-0.8,0.8-1.2,1.2c-0.7,0.5-1.6,0.9-2.4,1.1c-0.2,0-0.4,0-0.5,0.1c-1,0-2.1,0-3.1-0.4c-0.5-0.2-1-0.5-1.5-0.8
	c-0.5-0.4-1-0.9-1.4-1.4c-0.9-1.3-1.2-2.8-1.2-4.4c0-8.5,0-17,0-25.4c0-1,0.2-1.9,1-2.5c0.3-0.2,0.6-0.3,0.9-0.5
	c0.2,0,0.4,0,0.6-0.1c0.8,0,32,0,32.9,0c0.2,0,0.5,0.1,0.7,0.1c0.9,0.3,1.5,0.9,1.8,1.9c0,0.2,0.1,0.4,0.1,0.6c0,0.9,0,1.7,0,2.6
	c0,0.8,0,1.7,0,2.5c0,0.7,0,1.5,0,2.2c0,0.2,0.1,0.3,0.3,0.3c0.7,0,1.5,0,2.2,0c1.4,0,2.8,0.4,3.9,1.3c0.4,0.4,0.8,0.8,1.2,1.2
	c0,0,0.1,0.1,0.1,0.1c0.8,0.8,1.6,1.6,2.4,2.4c0,0,0.1,0.1,0.1,0.1c0.7,0.8,1.6,1.5,2.1,2.5c0.6,1.7,0.4,3.5,0.4,5.2
	c0,0.8,0,1.5,0,2.3c0,0.6,0,1.3-0.1,1.9c-0.2,0.2-0.4,0.5-0.7,0.7c-0.6,0.1-1.2,0-1.8,0.1c-0.1,0.1-0.1,0.1,0,0.2
	c0.2,1.8-0.2,3.4-1.2,4.8C72.7,72.3,72.3,72.7,71.8,73.1z M70.2,66.7c-0.2-0.4-0.5-0.7-0.8-0.9c-0.9-0.5-1.7-0.5-2.6,0
	c-0.4,0.2-0.7,0.5-0.9,0.9c-0.5,0.8-0.5,1.7,0,2.5c0.2,0.4,0.4,0.7,0.9,0.9c0.9,0.5,1.7,0.5,2.6,0c0.4-0.2,0.7-0.5,0.8-0.9
	C70.8,68.4,70.8,67.6,70.2,66.7z M30.5,69.3c0.2,0.4,0.5,0.7,0.9,0.9c0.8,0.5,1.7,0.5,2.5,0c0.4-0.2,0.7-0.5,0.9-0.9
	c0.5-0.8,0.5-1.7,0-2.5c-0.2-0.4-0.5-0.7-0.9-0.9c-0.8-0.5-1.7-0.5-2.5,0c-0.4,0.2-0.7,0.5-0.9,0.9C30,67.4,30,68.6,30.5,69.3z
	 M44.9,69.3c0.5-0.8,0.5-1.7,0-2.5c-0.2-0.4-0.5-0.7-0.9-0.9c-0.8-0.5-1.7-0.5-2.5,0c-0.4,0.2-0.7,0.5-0.9,0.9
	c-0.5,0.8-0.5,1.7,0,2.5c0.2,0.4,0.5,0.7,0.9,0.9c0.8,0.5,1.7,0.5,2.5,0C44.4,69.9,44.7,69.7,44.9,69.3z M66.8,52.8
	c-0.4,0-0.9,0-1.3,0c-1.3,0-1.3,0-1.2,1.3c0,0.7,0,1.4,0,2.2c0,0.3,0.1,0.4,0.3,0.3c0.7,0,1.4,0,2.2,0c0.9,0,1.7,0,2.6,0
	c0.7,0,1.4,0,2,0c-0.7-0.7-1.3-1.4-2-2.1c-0.1-0.2-0.2-0.3-0.4-0.4c-0.2-0.2-0.5-0.5-0.7-0.7C67.9,52.9,67.4,52.7,66.8,52.8z"/>
<path id="Fill-17" class="st4" d="M41.3,46.8h-0.9c-0.1,0-0.2,0.1-0.3,0.1L37.8,50c-0.2,0.3-0.2,0.8,0,1.1l2.2,3.1
	c0.1,0.1,0.2,0.1,0.3,0.1h0.9c0.3,0,0.5-0.3,0.3-0.5l-2.4-3.3l2.4-3.3C41.8,47,41.6,46.8,41.3,46.8"/>
<path id="Fill-19" class="st4" d="M46.4,53.5c-0.3-0.4-0.5-1-0.6-1.9c0.3-0.4,0.6-0.7,0.9-0.9c0.3-0.2,0.6-0.3,0.9-0.3
	c0.5,0,0.9,0.1,1.1,0.4c0.3,0.3,0.4,0.7,0.4,1.3c0,0.6-0.1,1.1-0.4,1.4c-0.3,0.3-0.6,0.5-1,0.5C47.2,54.1,46.8,53.9,46.4,53.5
	L46.4,53.5z M50.6,46.4c-0.3-0.3-0.7-0.6-1.1-0.8c-0.4-0.2-0.9-0.3-1.5-0.3c-0.5,0-1,0.1-1.5,0.3c-0.5,0.2-0.9,0.5-1.2,1
	c-0.4,0.4-0.6,1-0.9,1.7c-0.2,0.7-0.3,1.5-0.3,2.5c0,0.8,0.1,1.5,0.3,2.1c0.2,0.6,0.4,1.1,0.8,1.5c0.3,0.4,0.7,0.7,1.1,0.9
	c0.4,0.2,0.9,0.3,1.4,0.3c0.4,0,0.8-0.1,1.2-0.2c0.4-0.2,0.7-0.4,1-0.6s0.5-0.6,0.7-1c0.2-0.4,0.2-0.8,0.2-1.3c0-0.5-0.1-1-0.2-1.3
	s-0.3-0.7-0.6-1c-0.3-0.3-0.6-0.4-0.9-0.6c-0.4-0.1-0.7-0.2-1.2-0.2c-0.4,0-0.7,0.1-1.1,0.3c-0.4,0.2-0.7,0.5-1,0.8
	c0-0.7,0.1-1.3,0.2-1.7c0.1-0.5,0.3-0.8,0.5-1.1c0.2-0.3,0.4-0.5,0.7-0.6c0.3-0.1,0.6-0.2,0.9-0.2c0.3,0,0.6,0.1,0.9,0.2
	s0.5,0.3,0.7,0.5L50.6,46.4z"/>
</svg>
