<?xml version="1.0" encoding="utf-8"?>
<!-- Generator: Adobe Illustrator 24.0.0, SVG Export Plug-In . SVG Version: 6.00 Build 0)  -->
<svg width="61px" height="61px" version="1.1" id="Ebene_1" xmlns="http://www.w3.org/2000/svg" xmlns:xlink="http://www.w3.org/1999/xlink" x="0px" y="0px"
	 viewBox="0 0 61 61" style="enable-background:new 0 0 61 61;" xml:space="preserve">
<style type="text/css">
	.st0{fill:#D0DE66;}
	.st1{fill:#6A7800;}
	.st2{fill-rule:evenodd;clip-rule:evenodd;fill:#8DA000;}
	.st3{fill-rule:evenodd;clip-rule:evenodd;fill:#FEFEFE;}
</style>
<title>Group 5</title>
<desc>Created with Sketch.</desc>
<g>
	<g>
		<g>
			<path class="st0" d="M30.5,4.2l-21.2,21v30.2h42.5V25.2L30.5,4.2z"/>
			<path class="st1" d="M57.2,26.3L32.8,2c-1.1-1.1-3.1-1.1-4.6,0L3.8,26.3c-1.1,1.1-1.1,3.1,0,4.5c1.1,1.1,3.1,1.1,4.6,0L30.5,8.5
				l22.1,22c0.5,0.5,1.5,0.8,2.3,0.8s1.7-0.3,2.3-0.8C58.4,29.3,58.4,27.5,57.2,26.3z"/>
		</g>
	</g>
	<path class="st2" d="M58.3,59.8H2.7c-1.2,0-2.1-1-2.1-2.2c0-1.3,1-2.2,2.1-2.2h55.5c1.2,0,2.1,1,2.1,2.2
		C60.4,58.8,59.4,59.8,58.3,59.8z"/>
</g>
<g id="Page-1">
	<g id="iPhone-8-Copy" transform="translate(-157.000000, -303.000000)">
		<g id="Group-5" transform="translate(157.000000, 302.000000)">
			<polygon id="Fill-4" class="st3" points="42.2,30.3 38,25.9 30.2,34 22.4,25.9 18.2,30.3 26,38.5 18.2,46.6 22.4,51 30.2,42.9
				38,51 42.2,46.6 34.4,38.5 			"/>
		</g>
	</g>
</g>
</svg>
