<?xml version="1.0" encoding="utf-8"?>
<!-- Generator: Adobe Illustrator 21.1.0, SVG Export Plug-In . SVG Version: 6.00 Build 0)  -->
<svg version="1.1" id="Ebene_1" xmlns="http://www.w3.org/2000/svg" xmlns:xlink="http://www.w3.org/1999/xlink" x="0px" y="0px"
	 viewBox="0 0 374 78" style="enable-background:new 0 0 374 78;" xml:space="preserve">
<style type="text/css">
	.st0{fill:#FFFFFF;}
	.st1{fill:#1B618C;}
</style>
<title>kfw-ipex_logo_320@2x</title>
<g id="Ebene_2">
	<rect x="0.3" y="-1" class="st0" width="374" height="78"/>
</g>
<g id="Ebene_1-2_1_">
	<path class="st1" d="M248,51.3c0.1,0,0.1-0.1,0.1-0.2c0.8-3.2,7.6-26.8,10.1-35.5c0.2-0.6,0.7-2.5,0.8-2.7c0.3-0.9,1.1-1.5,2-1.5
		c0.4-0.1,0.9-0.1,1.3-0.1h4.9c0.5,0,0.9,0,1.4,0.2c1.3,0.4,2,1.7,1.6,3c0,0,0,0,0,0l0,0c-1,3.8-16.5,52.3-16.8,52.9
		c-0.5,1.1-1.6,1.8-2.9,1.8h-5.4c-0.3,0-0.5,0-0.8-0.1c-0.8-0.2-1.5-0.7-1.9-1.4c-0.4-0.7-0.8-1.4-1-2.2c0,0-16-50.6-16.2-51
		c-0.4-1.2,0.3-2.6,1.5-3c0,0,0,0,0,0l0,0c0.4-0.1,0.8-0.2,1.2-0.2h5.8c0.4,0,0.7,0,1.1,0.1c0.6,0.1,1.2,0.5,1.5,1.1
		C236.5,12.9,248,51.1,248,51.3z"/>
	<path class="st1" d="M158.6,26.4c0-1.7,0.2-3.4,0.5-5c0.5-2.2,1.5-4.3,3-6c1.6-1.8,3.6-3.1,5.9-3.6c1.2-0.3,2.3-0.5,3.5-0.5h17.8
		c0.5,0,1,0.1,1.4,0.2c1,0.2,1.8,1,2.1,2c0.2,0.6,0.3,1.3,0.3,1.9v3.6c0,0.7-0.1,1.4-0.3,2.1c-0.3,0.9-1,1.5-1.9,1.7
		c-0.5,0.1-1,0.2-1.5,0.2h-13.8c-1.7-0.1-3.3,0.9-4.1,2.4c-0.4,0.7-0.6,1.4-0.6,2.1V65c0,0.6,0,1.2-0.1,1.8
		c-0.1,1.2-1.1,2.2-2.3,2.4c-0.6,0.1-1.2,0.2-1.8,0.2h-4.4c-0.6,0-1.2-0.1-1.8-0.3c-0.8-0.3-1.4-1-1.6-1.8c-0.1-0.5-0.2-1-0.2-1.5
		v-1.8C158.6,57.5,158.6,32.7,158.6,26.4z"/>
	<path class="st1" d="M220.6,51c0.4-2.1,1-4.1,1.5-6.1c0.6-2.4,1.3-4.8,2-7.2c0.1-0.4,0.4-0.9,0.7-1.2c0.4-0.4,0.9-0.6,1.4-0.5
		c0.2,0,0.4,0.1,0.5,0.2c0.5,0.2,0.8,0.6,1,1.1c1,3.2,3.7,11,3.7,11c0.4,0.7,0.5,1.5,0.3,2.3c-0.1,0.5-5.4,16.8-5.5,17.1
		c-0.3,0.7-1,1.3-1.7,1.4c-0.6,0.1-1.3,0.2-1.9,0.2h-4.7c-0.3,0-0.7-0.1-1-0.1c-0.8-0.2-1.5-0.6-1.9-1.3c-0.4-0.7-0.8-1.4-1-2.2
		l-3-9.4L199.3,19c-0.3-1-0.6-1.8-0.9-2.8c-0.2-0.7-0.4-1.4-0.5-2.1c-0.2-0.8,0.1-1.7,0.8-2.2c0.5-0.3,1-0.5,1.6-0.6
		c0.4-0.1,0.7-0.1,1.1-0.1h4.8c0.4,0,0.9,0,1.3,0.1c0.6,0.1,1.2,0.5,1.6,1c0.5,0.7,0.8,1.4,1.1,2.2c2.5,8.5,5,17,7.4,25.5
		c1,3.4,1.9,6.9,2.9,10.3L220.6,51c0,0,0,0,0,0.1l0,0L220.6,51L220.6,51z"/>
	<path class="st1" d="M141.5,69.3c-0.5,0-1-0.1-1.4-0.2c-1-0.2-1.9-0.8-2.5-1.7c-0.4-0.6-0.8-1.2-1.2-1.7l-13.6-19.2
		c-0.5-0.6-1-1.2-1.4-1.8c-0.7-1-1.2-2.1-1.3-3.3c-0.1-0.8-0.1-1.7-0.1-2.5c0.1-1.5,0.7-2.9,1.7-4c0.9-1.1,1.8-2.2,2.6-3.4
		l11.5-16.1c0.4-0.6,0.8-1.1,1.2-1.6c0.6-0.8,1.4-1.5,2.3-1.9c0.6-0.3,1.3-0.4,2-0.4h6.3c0.5,0,1,0.1,1.5,0.2
		c0.8,0.2,1.4,0.9,1.4,1.7c-0.1,1.1-0.4,2.2-1,3.2c-0.1,0.1-0.1,0.2-0.2,0.3L133,39.2c-0.1,0.2-0.2,0.4-0.4,0.4s-0.1,0.1,0,0.2
		l0.1,0.2l17.6,24.3c0.1,0.2,0.3,0.4,0.5,0.6c0.7,0.8,1,1.9,0.8,2.9c-0.1,0.5-0.4,0.9-0.9,1.1c-0.4,0.2-0.8,0.3-1.2,0.3L141.5,69.3z
		"/>
	<path class="st1" d="M104.3,15.7c0-0.7,0-1.3,0.2-2c0.2-1,0.9-1.7,1.9-2c0.6-0.2,1.2-0.3,1.8-0.4h4.3c0.7,0,1.3,0.1,1.9,0.3
		c0.9,0.3,1.6,1,1.9,1.9c0.1,0.5,0.2,0.9,0.2,1.4v49.9c0,0.7,0,1.3-0.2,2c-0.2,1-0.9,1.7-1.9,2c-0.4,0.2-0.9,0.3-1.4,0.4
		c-1.8,0.1-3.6,0.1-5.4,0c-0.5,0-0.9-0.1-1.4-0.2c-0.9-0.2-1.6-1-1.8-1.9c-0.1-0.7-0.2-1.4-0.2-2.1V15.7z"/>
	<path class="st1" d="M182.3,36h3.7c0.5,0,1,0.1,1.4,0.2c0.8,0.2,1.5,0.8,1.8,1.6c0.2,0.5,0.3,1,0.3,1.5c0,0.6,0,1.2,0,1.8v2.6
		c0,0.5-0.1,0.9-0.2,1.4c-0.3,1.1-1.1,1.8-2.2,2c-0.4,0.1-0.8,0.1-1.2,0.1h-7.1c-0.5,0-1-0.1-1.5-0.2c-1-0.2-1.7-0.9-2-1.8
		c-0.2-0.5-0.2-0.9-0.3-1.4c-0.1-1.5-0.1-3,0-4.5c0-0.4,0.1-0.8,0.2-1.1c0.2-1.1,1-1.9,2.1-2.1c0.4-0.1,0.8-0.1,1.3-0.1H182.3z"/>
	<path class="st1" d="M220.6,51v0.1h-0.1C220.5,51.1,220.5,51,220.6,51L220.6,51z"/>
</g>
</svg>
