<?xml version="1.0" encoding="UTF-8"?>
<svg xmlns="http://www.w3.org/2000/svg" version="1.1" id="Ebene_1" x="0px" y="0px" viewBox="0 0 271 78" xml:space="preserve" width="271" height="78">
  <style type="text/css">
	.st0{fill:#FFFFFF;}
	.st1{fill:#1B618C;}
</style>
<g id="Ebene_2" transform="matrix(0.72459893,0,0,1,-0.21737969,1)"><rect x="0.30000001" y="-1" class="st0" width="374" height="78" /></g><g transform="translate(-103,1)"><path class="st1" d="m 248,51.3 c 0.1,0 0.1,-0.1 0.1,-0.2 0.8,-3.2 7.6,-26.8 10.1,-35.5 0.2,-0.6 0.7,-2.5 0.8,-2.7 0.3,-0.9 1.1,-1.5 2,-1.5 0.4,-0.1 0.9,-0.1 1.3,-0.1 h 4.9 c 0.5,0 0.9,0 1.4,0.2 1.3,0.4 2,1.7 1.6,3 0,0 0,0 0,0 v 0 c -1,3.8 -16.5,52.3 -16.8,52.9 -0.5,1.1 -1.6,1.8 -2.9,1.8 h -5.4 c -0.3,0 -0.5,0 -0.8,-0.1 -0.8,-0.2 -1.5,-0.7 -1.9,-1.4 -0.4,-0.7 -0.8,-1.4 -1,-2.2 0,0 -16,-50.6 -16.2,-51 -0.4,-1.2 0.3,-2.6 1.5,-3 0,0 0,0 0,0 v 0 c 0.4,-0.1 0.8,-0.2 1.2,-0.2 h 5.8 c 0.4,0 0.7,0 1.1,0.1 0.6,0.1 1.2,0.5 1.5,1.1 0.2,0.4 11.7,38.6 11.7,38.8 z" /><path class="st1" d="m 158.6,26.4 c 0,-1.7 0.2,-3.4 0.5,-5 0.5,-2.2 1.5,-4.3 3,-6 1.6,-1.8 3.6,-3.1 5.9,-3.6 1.2,-0.3 2.3,-0.5 3.5,-0.5 h 17.8 c 0.5,0 1,0.1 1.4,0.2 1,0.2 1.8,1 2.1,2 0.2,0.6 0.3,1.3 0.3,1.9 V 19 c 0,0.7 -0.1,1.4 -0.3,2.1 -0.3,0.9 -1,1.5 -1.9,1.7 -0.5,0.1 -1,0.2 -1.5,0.2 h -13.8 c -1.7,-0.1 -3.3,0.9 -4.1,2.4 -0.4,0.7 -0.6,1.4 -0.6,2.1 V 65 c 0,0.6 0,1.2 -0.1,1.8 -0.1,1.2 -1.1,2.2 -2.3,2.4 -0.6,0.1 -1.2,0.2 -1.8,0.2 h -4.4 c -0.6,0 -1.2,-0.1 -1.8,-0.3 -0.8,-0.3 -1.4,-1 -1.6,-1.8 -0.1,-0.5 -0.2,-1 -0.2,-1.5 V 64 c -0.1,-6.5 -0.1,-31.3 -0.1,-37.6 z" /><path class="st1" d="m 220.6,51 c 0.4,-2.1 1,-4.1 1.5,-6.1 0.6,-2.4 1.3,-4.8 2,-7.2 0.1,-0.4 0.4,-0.9 0.7,-1.2 0.4,-0.4 0.9,-0.6 1.4,-0.5 0.2,0 0.4,0.1 0.5,0.2 0.5,0.2 0.8,0.6 1,1.1 1,3.2 3.7,11 3.7,11 0.4,0.7 0.5,1.5 0.3,2.3 -0.1,0.5 -5.4,16.8 -5.5,17.1 -0.3,0.7 -1,1.3 -1.7,1.4 -0.6,0.1 -1.3,0.2 -1.9,0.2 h -4.7 c -0.3,0 -0.7,-0.1 -1,-0.1 -0.8,-0.2 -1.5,-0.6 -1.9,-1.3 -0.4,-0.7 -0.8,-1.4 -1,-2.2 L 211,56.3 199.3,19 c -0.3,-1 -0.6,-1.8 -0.9,-2.8 -0.2,-0.7 -0.4,-1.4 -0.5,-2.1 -0.2,-0.8 0.1,-1.7 0.8,-2.2 0.5,-0.3 1,-0.5 1.6,-0.6 0.4,-0.1 0.7,-0.1 1.1,-0.1 h 4.8 c 0.4,0 0.9,0 1.3,0.1 0.6,0.1 1.2,0.5 1.6,1 0.5,0.7 0.8,1.4 1.1,2.2 2.5,8.5 5,17 7.4,25.5 1,3.4 1.9,6.9 2.9,10.3 l 0.1,0.7 c 0,0 0,0 0,0.1 v 0 z" /><path class="st1" d="m 141.5,69.3 c -0.5,0 -1,-0.1 -1.4,-0.2 -1,-0.2 -1.9,-0.8 -2.5,-1.7 -0.4,-0.6 -0.8,-1.2 -1.2,-1.7 L 122.8,46.5 c -0.5,-0.6 -1,-1.2 -1.4,-1.8 -0.7,-1 -1.2,-2.1 -1.3,-3.3 -0.1,-0.8 -0.1,-1.7 -0.1,-2.5 0.1,-1.5 0.7,-2.9 1.7,-4 0.9,-1.1 1.8,-2.2 2.6,-3.4 l 11.5,-16.1 c 0.4,-0.6 0.8,-1.1 1.2,-1.6 0.6,-0.8 1.4,-1.5 2.3,-1.9 0.6,-0.3 1.3,-0.4 2,-0.4 h 6.3 c 0.5,0 1,0.1 1.5,0.2 0.8,0.2 1.4,0.9 1.4,1.7 -0.1,1.1 -0.4,2.2 -1,3.2 -0.1,0.1 -0.1,0.2 -0.2,0.3 L 133,39.2 c -0.1,0.2 -0.2,0.4 -0.4,0.4 -0.2,0 -0.1,0.1 0,0.2 l 0.1,0.2 17.6,24.3 c 0.1,0.2 0.3,0.4 0.5,0.6 0.7,0.8 1,1.9 0.8,2.9 -0.1,0.5 -0.4,0.9 -0.9,1.1 -0.4,0.2 -0.8,0.3 -1.2,0.3 z" /><path class="st1" d="m 104.3,15.7 c 0,-0.7 0,-1.3 0.2,-2 0.2,-1 0.9,-1.7 1.9,-2 0.6,-0.2 1.2,-0.3 1.8,-0.4 h 4.3 c 0.7,0 1.3,0.1 1.9,0.3 0.9,0.3 1.6,1 1.9,1.9 0.1,0.5 0.2,0.9 0.2,1.4 v 49.9 c 0,0.7 0,1.3 -0.2,2 -0.2,1 -0.9,1.7 -1.9,2 -0.4,0.2 -0.9,0.3 -1.4,0.4 -1.8,0.1 -3.6,0.1 -5.4,0 -0.5,0 -0.9,-0.1 -1.4,-0.2 -0.9,-0.2 -1.6,-1 -1.8,-1.9 -0.1,-0.7 -0.2,-1.4 -0.2,-2.1 V 15.7 Z" /><path class="st1" d="m 182.3,36 h 3.7 c 0.5,0 1,0.1 1.4,0.2 0.8,0.2 1.5,0.8 1.8,1.6 0.2,0.5 0.3,1 0.3,1.5 0,0.6 0,1.2 0,1.8 v 2.6 c 0,0.5 -0.1,0.9 -0.2,1.4 -0.3,1.1 -1.1,1.8 -2.2,2 -0.4,0.1 -0.8,0.1 -1.2,0.1 h -7.1 c -0.5,0 -1,-0.1 -1.5,-0.2 -1,-0.2 -1.7,-0.9 -2,-1.8 -0.2,-0.5 -0.2,-0.9 -0.3,-1.4 -0.1,-1.5 -0.1,-3 0,-4.5 0,-0.4 0.1,-0.8 0.2,-1.1 0.2,-1.1 1,-1.9 2.1,-2.1 0.4,-0.1 0.8,-0.1 1.3,-0.1 z" /><path class="st1" d="m 220.6,51 v 0.1 h -0.1 c 0,0 0,-0.1 0.1,-0.1 z" /></g></svg>