<?xml version="1.0" encoding="utf-8"?>
<!-- Generator: Adobe Illustrator 20.0.0, SVG Export Plug-In . SVG Version: 6.00 Build 0)  -->
<!DOCTYPE svg PUBLIC "-//W3C//DTD SVG 1.1//EN" "http://www.w3.org/Graphics/SVG/1.1/DTD/svg11.dtd">
<svg version="1.1" id="Layer_1" xmlns="http://www.w3.org/2000/svg" xmlns:xlink="http://www.w3.org/1999/xlink" x="0px" y="0px"
	 viewBox="0 0 928 371" xml:space="preserve">
    <g class="logo bfd">
        <path fill="#B1C800" d="M58.733,245.082c7.941,0,14.072,2.796,18.392,8.385c4.318,5.592,6.479,13.396,6.479,23.416
          c0,10.172-2.196,18.031-6.588,23.585c-4.393,5.553-10.486,8.329-18.282,8.329c-4.062,0-7.687-0.749-10.87-2.244
          s-5.783-3.721-7.796-6.674h-0.77c-1.135,4.486-1.812,7.086-2.03,7.796h-7.082v-87.271h9.882v21.2c0,4.226-0.185,8.451-0.549,12.676
          h0.549C44.13,248.148,50.352,245.082,58.733,245.082z M57.086,253.438c-6.076,0-10.431,1.759-13.065,5.271
          c-2.636,3.516-3.953,9.46-3.953,17.835v0.449c0,8.413,1.345,14.424,4.035,18.031c2.689,3.609,7.091,5.412,13.204,5.412
          c5.416,0,9.45-2.027,12.104-6.085c2.653-4.058,3.98-9.918,3.98-17.583c0-7.776-1.336-13.609-4.008-17.499
          C66.712,255.384,62.612,253.438,57.086,253.438z"/>
        <path fill="#B1C800" d="M136.582,307.675l-1.921-8.749h-0.438c-3.001,3.852-5.994,6.459-8.977,7.822
          c-2.982,1.365-6.744,2.049-11.282,2.049c-5.929,0-10.577-1.59-13.944-4.769c-3.368-3.178-5.052-7.664-5.052-13.461
          c0-12.487,9.645-19.031,28.933-19.63l10.211-0.394v-3.646c0-4.674-0.988-8.123-2.964-10.349c-1.978-2.225-5.144-3.337-9.498-3.337
          c-3.185,0-6.195,0.486-9.031,1.458c-2.837,0.974-5.5,2.058-7.988,3.253l-3.02-7.57c3.037-1.646,6.349-2.937,9.937-3.87
          c3.587-0.936,7.138-1.402,10.651-1.402c7.283,0,12.7,1.646,16.25,4.937c3.549,3.291,5.325,8.524,5.325,15.704v41.952
          L136.582,307.675L136.582,307.675z M116.213,300.663c5.526,0,9.873-1.522,13.039-4.571c3.165-3.047,4.749-7.375,4.749-12.982
          v-5.553l-8.894,0.393c-6.917,0.262-11.959,1.384-15.125,3.365s-4.749,5.104-4.749,9.366c0,3.217,0.961,5.685,2.882,7.402
          C110.037,299.804,112.736,300.663,116.213,300.663z"/>
        <path fill="#B1C800" d="M171.772,246.092v39.652c0,4.974,1.088,8.665,3.267,11.077c2.177,2.412,5.553,3.617,10.129,3.617
          c6.186,0,10.688-1.757,13.505-5.271c2.818-3.515,4.229-9.179,4.229-16.994v-32.081h9.937v61.583h-8.125l-1.427-8.134h-0.494
          c-1.794,2.954-4.337,5.235-7.631,6.844c-3.294,1.607-7.119,2.412-11.474,2.412c-7.247,0-12.709-1.775-16.389-5.328
          c-3.678-3.553-5.517-9.235-5.517-17.052v-40.325H171.772z"/>
        <path fill="#5D767B" d="M259.722,253.943h-15.208v53.73h-9.883v-53.73h-10.541v-4.711l10.541-3.479v-3.532
          c0-7.479,1.602-13.086,4.805-16.825c3.202-3.739,8.134-5.609,14.795-5.609c3.843,0,7.741,0.692,11.693,2.075l-2.635,7.908
          c-3.403-1.121-6.387-1.684-8.949-1.684c-3.331,0-5.801,1.122-7.41,3.365c-1.611,2.243-2.416,5.796-2.416,10.656v3.981h15.208
          V253.943z"/>
        <path fill="#5D767B" d="M323.022,276.771c0,10.059-2.489,17.911-7.466,23.556c-4.979,5.646-11.858,8.471-20.644,8.471
          c-5.454,0-10.285-1.3-14.494-3.898s-7.447-6.328-9.717-11.189c-2.27-4.858-3.404-10.506-3.404-16.938
          c0-10.021,2.452-17.825,7.357-23.416c4.904-5.589,11.784-8.385,20.642-8.385c8.491,0,15.235,2.852,20.231,8.554
          C320.524,259.226,323.022,266.975,323.022,276.771z M277.51,276.771c0,7.74,1.49,13.62,4.475,17.639
          c2.981,4.021,7.384,6.029,13.203,6.029c5.746,0,10.12-2.009,13.121-6.029c3.001-4.019,4.502-9.897,4.502-17.639
          c0-7.739-1.51-13.563-4.529-17.472c-3.02-3.905-7.438-5.86-13.258-5.86C283.347,253.438,277.51,261.217,277.51,276.771z"/>
        <path fill="#5D767B" d="M364.307,308.797c-9.041,0-16.133-2.795-21.274-8.386c-5.143-5.59-7.713-13.283-7.713-23.08
          c0-9.871,2.396-17.73,7.192-23.584c4.794-5.851,11.271-8.776,19.435-8.776c7.576,0,13.615,2.495,18.117,7.486
          c4.502,4.992,6.753,11.75,6.753,20.275v6.113h-41.285c0.183,6.991,1.921,12.302,5.216,15.929c3.294,3.627,7.96,5.44,14,5.44
          c3.22,0,6.276-0.29,9.168-0.87c2.892-0.579,6.277-1.711,10.157-3.394v8.861c-3.331,1.458-6.46,2.487-9.388,3.085
          C371.754,308.496,368.295,308.797,364.307,308.797z M361.836,253.215c-4.721,0-8.455,1.553-11.198,4.655
          c-2.745,3.104-4.374,7.422-4.887,12.955h30.689c-0.074-5.757-1.373-10.132-3.898-13.124
          C370.016,254.711,366.448,253.215,361.836,253.215z"/>
        <path fill="#5D767B" d="M430.187,244.97c2.671,0,5.032,0.225,7.082,0.673l-1.208,9.311c-2.233-0.522-4.411-0.785-6.533-0.785
          c-3.184,0-6.14,0.897-8.866,2.692s-4.857,4.271-6.396,7.432c-1.537,3.159-2.307,6.665-2.307,10.517v32.866h-9.882v-61.583h8.125
          l1.099,11.273h0.438c2.306-4.075,5.032-7.16,8.18-9.255C423.068,246.018,426.49,244.97,430.187,244.97z"/>
        <path fill="#5D767B" d="M468.781,308.797c-7.832,0-13.908-2.768-18.227-8.302c-4.318-5.533-6.479-13.367-6.479-23.5
          c0-10.058,2.168-17.91,6.506-23.557c4.339-5.646,10.439-8.469,18.31-8.469c8.088,0,14.311,3.028,18.666,9.086h0.715
          c-0.111-0.747-0.258-2.252-0.438-4.516c-0.185-2.262-0.275-3.786-0.275-4.57v-24.565h9.883v87.271h-7.961l-1.482-8.244h-0.438
          C483.348,305.675,477.091,308.797,468.781,308.797z M470.373,300.438c6.003,0,10.386-1.673,13.148-5.021
          c2.764-3.346,4.145-8.833,4.145-16.461v-1.851c0-8.562-1.397-14.667-4.198-18.312c-2.799-3.646-7.201-5.468-13.203-5.468
          c-5.088,0-9.023,2.066-11.803,6.197c-2.783,4.132-4.175,10.03-4.175,17.694c0,7.628,1.382,13.404,4.146,17.33
          C461.195,298.476,465.177,300.438,470.373,300.438z"/>
        <path fill="#5D767B" d="M542.238,308.797c-9.041,0-16.133-2.795-21.273-8.386c-5.144-5.59-7.714-13.283-7.714-23.08
          c0-9.871,2.396-17.73,7.191-23.584c4.794-5.851,11.272-8.776,19.436-8.776c7.575,0,13.614,2.495,18.116,7.486
          c4.502,4.992,6.753,11.75,6.753,20.275v6.113h-41.284c0.183,6.991,1.922,12.302,5.216,15.929s7.96,5.44,13.999,5.44
          c3.221,0,6.276-0.29,9.169-0.87c2.891-0.579,6.275-1.711,10.156-3.394v8.861c-3.331,1.458-6.461,2.487-9.389,3.085
          C549.686,308.496,546.227,308.797,542.238,308.797z M539.768,253.215c-4.722,0-8.455,1.553-11.2,4.655
          c-2.745,3.104-4.374,7.422-4.886,12.955h30.688c-0.073-5.757-1.372-10.132-3.897-13.124
          C547.947,254.711,544.38,253.215,539.768,253.215z"/>
        <path fill="#5D767B" d="M608.117,244.97c2.672,0,5.032,0.225,7.082,0.673l-1.207,9.311c-2.232-0.522-4.411-0.785-6.532-0.785
          c-3.186,0-6.142,0.897-8.866,2.692c-2.729,1.795-4.859,4.271-6.396,7.432s-2.306,6.665-2.306,10.517v32.866h-9.882v-61.583h8.125
          l1.098,11.273h0.439c2.306-4.075,5.031-7.16,8.181-9.255C600.998,246.018,604.421,244.97,608.117,244.97z"/>
        <path fill="#5D767B" d="M650.994,308.797c-9.041,0-16.133-2.795-21.273-8.386c-5.144-5.59-7.713-13.283-7.713-23.08
          c0-9.871,2.396-17.73,7.19-23.584c4.794-5.851,11.272-8.776,19.436-8.776c7.576,0,13.614,2.495,18.117,7.486
          c4.502,4.992,6.753,11.75,6.753,20.275v6.113h-41.285c0.183,6.991,1.922,12.302,5.216,15.929s7.96,5.44,13.999,5.44
          c3.221,0,6.277-0.29,9.169-0.87c2.891-0.579,6.276-1.711,10.156-3.394v8.861c-3.331,1.458-6.46,2.487-9.389,3.085
          C658.441,308.496,654.982,308.797,650.994,308.797z M648.523,253.215c-4.722,0-8.455,1.553-11.2,4.655
          c-2.745,3.104-4.374,7.422-4.886,12.955h30.689c-0.074-5.757-1.373-10.132-3.898-13.124
          C656.703,254.711,653.135,253.215,648.523,253.215z"/>
        <path fill="#5D767B" d="M716.873,244.97c2.673,0,5.032,0.225,7.082,0.673l-1.207,9.311c-2.232-0.522-4.41-0.785-6.532-0.785
          c-3.186,0-6.142,0.897-8.866,2.692c-2.729,1.795-4.859,4.271-6.396,7.432s-2.306,6.665-2.306,10.517v32.866h-9.882v-61.583h8.125
          l1.098,11.273h0.439c2.306-4.075,5.031-7.16,8.181-9.255C709.755,246.018,713.177,244.97,716.873,244.97z"/>
        <path fill="#5D767B" d="M733.728,301.448c0-2.468,0.595-4.365,1.784-5.692c1.188-1.326,2.882-1.99,5.078-1.99
          c2.231,0,3.971,0.664,5.216,1.99c1.244,1.327,1.866,3.226,1.866,5.692c0,2.432-0.622,4.348-1.866,5.749
          c-1.245,1.402-2.983,2.104-5.216,2.104c-2.16,0-3.844-0.692-5.052-2.075C734.331,305.843,733.728,303.916,733.728,301.448z"/>
        <path fill="#5D767B" d="M786.706,308.797c-7.833,0-13.908-2.768-18.228-8.302c-4.318-5.533-6.479-13.367-6.479-23.5
          c0-10.058,2.169-17.91,6.506-23.557c4.338-5.646,10.439-8.469,18.31-8.469c8.088,0,14.31,3.028,18.666,9.086h0.714
          c-0.11-0.747-0.257-2.252-0.438-4.516c-0.185-2.262-0.274-3.786-0.274-4.57v-24.565h9.882v87.271h-7.96l-1.481-8.244h-0.439
          C801.272,305.675,795.014,308.797,786.706,308.797z M788.299,300.438c6.002,0,10.385-1.673,13.147-5.021
          c2.764-3.346,4.146-8.833,4.146-16.461v-1.851c0-8.562-1.399-14.667-4.199-18.312c-2.8-3.645-7.201-5.468-13.204-5.468
          c-5.087,0-9.021,2.066-11.803,6.197c-2.782,4.132-4.173,10.03-4.173,17.694c0,7.628,1.381,13.404,4.146,17.33
          C779.12,298.476,783.101,300.438,788.299,300.438z"/>
        <path fill="#5D767B" d="M860.162,308.797c-9.041,0-16.133-2.795-21.273-8.386c-5.144-5.59-7.713-13.283-7.713-23.08
          c0-9.871,2.396-17.73,7.19-23.584c4.794-5.851,11.272-8.776,19.436-8.776c7.576,0,13.614,2.495,18.117,7.486
          c4.502,4.992,6.753,11.75,6.753,20.275v6.113h-41.285c0.183,6.991,1.922,12.302,5.216,15.929s7.96,5.44,13.999,5.44
          c3.221,0,6.277-0.29,9.169-0.87c2.891-0.579,6.276-1.711,10.156-3.394v8.861c-3.331,1.458-6.46,2.487-9.389,3.085
          C867.609,308.496,864.15,308.797,860.162,308.797z M857.691,253.215c-4.722,0-8.455,1.553-11.2,4.655
          c-2.745,3.104-4.374,7.422-4.886,12.955h30.689c-0.074-5.757-1.373-10.132-3.898-13.124
          C865.871,254.711,862.303,253.215,857.691,253.215z"/>
    </g>
    <rect x="0" y="0" fill="#B1C800" width="927.405" height="184.765"/>
    <polygon fill="#FFFFFF" points="23.085,137.972 55.737,157.409 463.653,49.738 873.896,156.996 904.09,137.972 463.653,22.605 "/>
    <rect x="0" y="346.701" fill="#B1C800" width="928.402" height="24.66"/>
    <rect x="145.882" y="62.057" fill="#FFFFFF" width="28.479" height="47.249"/>
</svg>
