<svg xmlns="http://www.w3.org/2000/svg" xmlns:xlink="http://www.w3.org/1999/xlink" width="1920" height="740" viewBox="0 0 1920 740">
    <defs>
        <path id="a" d="M0 .009h1920v740H0z"/>
        <path id="c" d="M0 0h86v199.116H0z"/>
        <path id="e" d="M0 0h133v143.641H0z"/>
        <path id="g" d="M0 0h178v192.182H0z"/>
        <path id="i" d="M0 0h59v151.566H0z"/>
        <path id="k" d="M0 0h59v151.566H0z"/>
        <path id="m" d="M0 0h72v181.285H0z"/>
        <path id="o" d="M0 0h55v55.475H0z"/>
    </defs>
    <g fill="none" fill-rule="evenodd">
        <mask id="b" fill="#fff">
            <use xlink:href="#a"/>
        </mask>
        <use fill="#BDD0D7" xlink:href="#a"/>
        <path fill="#5D767B" d="M1818.144 392.299c-232.056 17.793-410.1 31.855-534.129 42.187-186.045 15.497-62.966 45.631 64.04 54.24 127.006 8.61 78.019 31.856 326.079 31.856s315.05 36.161 490.093 36.161c116.695 0 100.358-54.815-49.012-164.444h-297.071z" mask="url(#b)"/>
        <g mask="url(#b)">
            <path fill="#93B1BC" d="M0 481.297c228 32.01 396.333 11.026 505-62.95 163-110.964 227 73.18 594 42.61 244.667-20.379 541.667-7.19 891 39.565l77 215.027H0V481.297z"/>
            <path fill="#E5F5F5" d="M1510 414.092v51.513h36.462v-17.448h2.726V422.15h11.245v26.006h2.385v3.296h5.112v2.93h5.452v1.465h5.112v9.757H1617v-51.513h-107zm9.541 26.006h15.676V423.25h-15.676v16.85zm62.36-2.197h11.927v-12.82h-11.927v12.82z"/>
            <path fill="#4A5E62" d="M1502 411.45v2.642h123v-2.641l-57.762-21.134h-8.495z"/>
            <g transform="translate(279 297.198)">
                <mask id="d" fill="#fff">
                    <use xlink:href="#c"/>
                </mask>
                <path fill="#5D767B" d="M50.028 49.483l-.24.128c.003-3.4-1.827-6.38-4.566-8.02l.517-.438 1.709-8.136L40.9 2.896 35.55 0l.558 41.26c-2.909 1.469-4.943 4.39-5.137 7.814l-7.816 2.502L0 72.126l.11 6.043L35.453 57.58c.91.555 1.92.96 2.998 1.185l-4.379 140.351h14.477L42.017 58.814a9.455 9.455 0 0 0 3.167-1.175l.018.109 6.142 5.655 29.392 10.004L86 70.362 50.028 49.483z" mask="url(#d)"/>
            </g>
        </g>
        <g mask="url(#b)">
            <path fill="#FFF" d="M-36 602.312c212-32.516 433-36.773 663-12.769 345 36.006 684-78.369 927-78.369h618v330.87l-2198-4.953-10-234.78z"/>
            <g transform="translate(220 442.82)">
                <mask id="f" fill="#fff">
                    <use xlink:href="#e"/>
                </mask>
                <path fill="#FFF" d="M79.7 86.706c.376-.89.753-1.778 1.145-2.663.13 0 .262 0 .393-.002 0-.306.007-.614.018-.922 1.074-2.376 2.246-4.7 3.563-6.92 1.677 1.46 3.425 2.772 5.287 3.841a42.211 42.211 0 0 1-10.407 6.666M48.476 71.37l.139-.051c.897-.338 2.463.05 3.27.67 1.14.874 2.217 1.828 3.27 2.797.022.083.023.16.049.243l4.826 15.92a86.62 86.62 0 0 1 .76 7.975c-8.323-6.756-12.875-16.787-12.314-27.554m75.597-26.584c-3.215-2.297-5.53-5.901-5.125-9.435 1.43-12.473-6.314-23.127-18.833-25.07-2.223-.347-4.436-1.289-6.44-2.348-3.778-1.999-7.714-2.735-11.784-1.614-2.198.606-3.55.336-5.297-1.225-9.965-8.906-25.583-5.723-30.465 6.365-1.402 3.471-3.475 5.498-6.724 6.818-.726.295-1.521.628-2.037 1.173-1.622 1.715-3.168 1.292-5.133.466C19.549 14.582 5.887 23.36 5.358 36.931c-.075 1.938-.89 4.044-1.943 5.715-3.771 5.99-4.438 11.998-1.907 18.223-1.822 4.496-.233 10.1 4.258 13.351 4.927 3.57 10.61 1.707 14.963-1.747a19.23 19.23 0 0 0 3.767-.75c2.56-.775 4.87-1.7 7.029-.668.342.25.693.473 1.05.68.095.077.19.15.285.238l.035-.054c.711.378 1.448.665 2.203.883 4.187 14.607 13.188 27.402 25.549 36.47-.754 8.935-3.163 17.695-7.652 26.279-5.011 3.024-11.124.836-16.372-.598-4.639-1.268-9.155-1.735-13.786-.277-.958.302-1.405 1.05-1.452 1.826-.005.022-.015.039-.02.062l-1.054 4.468c-.328 1.394.689 2.348 1.791 2.536.172.043.355.073.558.073h85.708c.752 0 1.286-.326 1.618-.788.493-.381.82-.964.82-1.62v-3.095c0-.916-.635-1.7-1.486-1.962-.325-.27-.755-.445-1.302-.445H82.121a233.289 233.289 0 0 0-3.949-4.415c-3.763-4.078-5.422-8.618-3.73-14.11a34.305 34.305 0 0 0 1.254-5.87c.723-5.868 1.398-11.762 2.082-17.742 8.692-.817 16.553-4.476 22.654-10.682 2.532-.007 4.804-.748 6.699-2.005l.76-.234c4.13 3.29 10.5 3.629 15.312 1.875 4.459-1.625 8.315-6.027 8.45-10.867.012-.453-.011-.902-.05-1.347 3.47-8.824.296-19.954-7.53-25.549" mask="url(#f)"/>
            </g>
            <g transform="matrix(-1 0 0 1 287 404.186)">
                <mask id="h" fill="#fff">
                    <use xlink:href="#g"/>
                </mask>
                <path fill="#FFF" d="M106.665 116.007c.505-1.19 1.009-2.38 1.534-3.564.174 0 .35 0 .526-.002 0-.41.01-.821.024-1.234 1.437-3.178 3.005-6.287 4.768-9.258 2.245 1.954 4.584 3.708 7.076 5.14a56.495 56.495 0 0 1-13.928 8.918m-41.787-20.52l.185-.069c1.202-.451 3.296.067 4.378.896 1.524 1.17 2.966 2.446 4.377 3.743.028.11.029.213.064.326l6.458 21.3c.514 3.578.84 7.133 1.018 10.669-11.138-9.038-17.231-22.46-16.48-36.865M166.052 59.92c-4.303-3.074-7.401-7.896-6.859-12.624 1.915-16.689-8.45-30.943-25.204-33.543-2.976-.463-5.938-1.723-8.62-3.14-5.056-2.674-10.323-3.66-15.77-2.16-2.942.81-4.752.449-7.09-1.64C89.172-5.1 68.27-.843 61.736 15.33c-1.876 4.645-4.65 7.356-8.998 9.123-.972.395-2.037.84-2.726 1.57-2.172 2.294-4.24 1.728-6.87.623C26.162 19.51 7.877 31.252 7.17 49.411c-.1 2.594-1.19 5.41-2.6 7.646-5.047 8.014-5.94 16.053-2.552 24.382-2.44 6.014-.313 13.513 5.698 17.863 6.594 4.775 14.199 2.283 20.025-2.339a25.743 25.743 0 0 0 5.042-1.002c3.426-1.037 6.519-2.275 9.407-.895.458.336.928.634 1.405.91.127.104.255.202.382.319l.047-.073c.952.506 1.937.89 2.948 1.183 5.604 19.543 17.65 36.662 34.193 48.793-1.008 11.955-4.233 23.675-10.24 35.16-6.707 4.046-14.889 1.119-21.911-.8-6.209-1.696-12.253-2.321-18.451-.37-1.282.404-1.88 1.405-1.943 2.442-.008.03-.021.052-.028.083l-1.41 5.978c-.44 1.865.922 3.142 2.397 3.393a3 3 0 0 0 .747.098h114.707c1.006 0 1.72-.436 2.165-1.054.66-.51 1.097-1.29 1.097-2.168v-4.141c0-1.226-.85-2.275-1.988-2.625-.435-.361-1.01-.595-1.742-.595h-34.66a312.168 312.168 0 0 0-5.284-5.907c-5.036-5.457-7.258-11.53-4.994-18.879a45.885 45.885 0 0 0 1.68-7.854c.967-7.85 1.87-15.736 2.787-23.737 11.632-1.092 22.152-5.988 30.318-14.292 3.388-.008 6.43-1 8.965-2.682l1.018-.313c5.526 4.402 14.052 4.855 20.492 2.509 5.967-2.175 11.128-8.065 11.308-14.54a15.763 15.763 0 0 0-.066-1.802c4.645-11.805.396-26.698-10.078-34.182" mask="url(#h)"/>
            </g>
            <g transform="translate(1650 377.44)">
                <mask id="j" fill="#fff">
                    <use xlink:href="#i"/>
                </mask>
                <path fill="#FFF" d="M53.001 74.307c1.875-3.058 3-6.946 3-11.182 0-6.648-2.767-12.442-6.866-15.503 2.677-3.255 4.355-7.914 4.355-13.09 0-7.643-3.655-14.159-8.788-16.689v-.027C44.703 7.976 38.646 0 31.175 0c-7.473 0-13.53 7.976-13.53 17.816 0 .518.02 1.03.054 1.537-4.94 2.654-8.422 9.04-8.422 16.498 0 2.143.287 4.196.813 6.098-3.759 3.165-6.253 8.706-6.253 15.017 0 5.061 1.605 9.626 4.178 12.87C3.151 74.605 0 82.236 0 90.837c0 12.31 6.455 22.63 15.151 25.423 3.147 3.078 7.009 4.957 11.197 5.133l-1.241 29.05s2.51 2.2 6.695.44v-30.255a16.977 16.977 0 0 0 3.844-1.825c1.13.263 2.29.407 3.478.407C50.101 119.211 59 107.493 59 93.038c0-7.344-2.3-13.978-5.999-18.731" mask="url(#j)"/>
            </g>
            <g transform="translate(1747 377.44)">
                <mask id="l" fill="#fff">
                    <use xlink:href="#k"/>
                </mask>
                <path fill="#FFF" d="M53.001 74.307c1.875-3.058 3-6.946 3-11.182 0-6.648-2.767-12.442-6.866-15.503 2.677-3.255 4.355-7.914 4.355-13.09 0-7.643-3.655-14.159-8.788-16.689v-.027C44.703 7.976 38.646 0 31.175 0c-7.473 0-13.53 7.976-13.53 17.816 0 .518.02 1.03.054 1.537-4.94 2.654-8.422 9.04-8.422 16.498 0 2.143.287 4.196.813 6.098-3.759 3.165-6.253 8.706-6.253 15.017 0 5.061 1.605 9.626 4.178 12.87C3.151 74.605 0 82.236 0 90.837c0 12.31 6.455 22.63 15.151 25.423 3.147 3.078 7.009 4.957 11.197 5.133l-1.241 29.05s2.51 2.2 6.695.44v-30.255a16.977 16.977 0 0 0 3.844-1.825c1.13.263 2.29.407 3.478.407C50.101 119.211 59 107.493 59 93.038c0-7.344-2.3-13.978-5.999-18.731" mask="url(#l)"/>
            </g>
            <g transform="translate(1708 347.72)">
                <mask id="n" fill="#fff">
                    <use xlink:href="#m"/>
                </mask>
                <path fill="#FFF" d="M64.68 88.877c2.288-3.657 3.66-8.308 3.66-13.375 0-7.951-3.377-14.881-8.379-18.542 3.267-3.893 5.315-9.466 5.315-15.657 0-9.141-4.46-16.935-10.724-19.96v-.034C54.552 9.54 47.161 0 38.042 0c-9.118 0-16.51 9.54-16.51 21.31 0 .619.025 1.231.066 1.837C15.57 26.322 11.32 33.96 11.32 42.881c0 2.562.35 5.018.993 7.294C7.725 53.96 4.68 60.587 4.68 68.136c0 6.053 1.96 11.513 5.1 15.392C3.844 89.235 0 98.362 0 108.65c0 14.725 7.878 27.069 18.49 30.409 3.84 3.681 8.553 5.929 13.663 6.138l-1.514 34.747s3.063 2.63 8.17.526v-36.187a20.907 20.907 0 0 0 4.69-2.184c1.38.315 2.797.488 4.246.488C61.141 142.586 72 128.57 72 111.28c0-8.783-2.806-16.718-7.32-22.403" mask="url(#n)"/>
            </g>
            <path fill="#E5F5F5" d="M1014.715 606.274h13.664V449.08H1054v-8.451l-134.936-62.54H748.258l-92.235-42.256L545 388.23l23.913 27.044 54.657 33.805h391.145z"/>
            <path fill="#FFF" d="M813.077 536.924h37.587v-57.51h-37.587v57.51zm0 25.372h37.587V545.38h-37.587v16.915zm-46.129-25.372h37.587v-57.51h-37.587v57.51zm0 25.372h37.587V545.38h-37.587v16.915zm-75.173-81.191h51.255v-11.84h-51.255v11.84zm-90.55 81.19h29.044v-82.882h-29.044v82.883zm-92.258 0h83.716v-82.882h-83.716v82.883zm-37.587 0h29.044v-82.882H471.38v82.883zm44.42-108.254h71.757v-10.149h-71.756v10.149zm34.17-47.362c10.38 0 18.794 8.331 18.794 18.607h-37.587c0-10.276 8.414-18.607 18.793-18.607zm124.87 42.288l-.15-15.224 11.96-8.457-134.971-67.66L415 423.595l11.96 8.458v174.222h264.815V499.711h51.255v106.563H878V448.967H674.84z"/>
            <g fill="#7D9195">
                <path d="M712 386.355l57.49 25.059h37.944l-58.64-25.06zM667 386.355l57.49 25.059h37.944l-58.64-25.06zM755.794 385.913l58.64 25.06h34.495l-58.64-25.06zM796.038 385.913l58.64 25.06h34.494l-58.64-25.06zM837.43 385.913l58.641 25.06h34.494l-58.64-25.06zM877.674 385.913l58.64 25.06h34.495l-58.64-25.06zM774 413.102l57.49 25.059h37.944l-58.64-25.06zM729 413.102l57.49 25.059h37.944l-58.64-25.06zM817.884 413.25l58.64 25.059h34.495l-58.64-25.059zM858.127 413.25l58.64 25.059h34.495l-58.64-25.059zM899.52 413.25l58.64 25.059h34.495l-58.64-25.059zM939.764 413.25l58.64 25.059h34.494l-58.64-25.059z"/>
            </g>
            <g transform="translate(895 550.8)">
                <mask id="p" fill="#fff">
                    <use xlink:href="#o"/>
                </mask>
                <path fill="#FFF" d="M41.258 28.13c-1.799 1.631-4.188 2.37-6.61 2.728a59.13 59.13 0 0 0 3.221-4.682c1.255.897 2.872 1.212 4.419.85-.302.38-.64.75-1.03 1.104M9.638 39.56l-.596-.655c-.427-1.297-.548-2.674-.47-4.082.643.032 1.308-.031 2.027-.105a40.971 40.971 0 0 0-.96 4.842m41.41-32.802c.117-1.286-.258-2.66-1.186-3.862-1.447-1.873-3.45-2.002-5.426-1.39-2.175-2.26-5.947-1.895-7.848.554-1.575-.034-3.268.716-4.45 2.007-2.253 2.462-2.186 6.238-.565 8.985-1.649 1.67-2.288 4.122-1.426 6.438.765 2.057 2.697 3.288 4.755 3.538-4.273 8.873-11.82 15.964-20.883 19.632a21.673 21.673 0 0 1 1.724-7.915c1.512-.398 2.618-1.335 3.468-2.718 2.052.86 3.986.813 5.55-.891 1.237-1.348 1.032-2.91.255-4.485 1.562-.989 2.759-2.179 2.823-4.16.063-1.968-1.081-3.217-2.508-4.257 2.684-3.764 1.342-6.301-3.681-7.413-.315-1.047-.435-2.136-.938-2.999-1.698-2.917-6.18-3.227-8.535-.72a4.525 4.525 0 0 1-1.667 1.097c-2.184.812-3.4 2.615-3.234 4.956.019.261.003.524.003.835-1.682.337-3.14.976-4.07 2.473-.89 1.429-.73 2.879-.182 4.298-1.57.314-2.68 1.746-2.748 3.363-.836 2.117.253 4.564 2.565 5.698.393.192.897.567.973.937.272 1.322.848 2.31 1.69 2.987-.423 4.115.316 8.135 3.759 11.195a39.967 39.967 0 0 0 .14 3.714c-.088 1.877.064 3.778.551 5.701.038.149.1.27.172.373.227.558.787.849 1.634.713 1.398-.224 2.764-.66 4.196-1.016a7.349 7.349 0 0 0-.075-.098c.383-.302.606-.831.33-1.393a21.67 21.67 0 0 1-1.762-5.19c6.562-3.319 12.435-7.885 17.31-13.373a40.55 40.55 0 0 0 1.728-.14 16.15 16.15 0 0 0 14.594-8.682 6.674 6.674 0 0 0 1.093-.543c1.541-.949 2.262-2.644 2.13-4.26 2.07-1.486 3.393-3.854 3.66-6.558.297-3.023-1.496-5.799-3.919-7.43" mask="url(#p)"/>
            </g>
            <g>
                <path fill="#C5EDFF" d="M1228.016 455.699H1236v3.962h-22V455.7h9.071l16.94-49.504 2.898-47.578H1228v6.935h-4v-7.102h.337v-.274h.509c.228-.328.66-.55 1.154-.55.021 0 .043 0 .063.002v-.001H1226v-.496l4.455-1.316 12.856-3.8.986-16.182H1222v6.934h-4v-7.101h.337v-.275h.509c.228-.327.66-.549 1.154-.549.203 0 .396.037.568.104l.49-.104h-2.655v-.602H1218l.403-.073v-.614l25.678-4.655h.639l1.147-18.822H1231v6.935h-4v-7.101h.337v-.275h.509c.044-.063.096-.123.154-.178v-.743l16.874-4.48.37-.101h.985l.058-.95a.315.315 0 0 1 .006-.047l3.401-16.567a.334.334 0 0 1 .326-.268h.003c.07 0 .137.022.191.06a.837.837 0 0 1 1.128.595l3.663 16.305c.01.044.016.09.02.134l.044.738h.542L1273 308.59v.496h-.154v.007c.05-.005.102-.007.154-.007.495 0 .927.221 1.154.549h.508v.275h.338v7.1h-4v-6.934h-15.57l1.146 18.822h.535l.049.009 25.84 4.645v1.29h-2.079l.505.106c.174-.068.369-.106.574-.106.495 0 .927.222 1.154.55h.508v.274h.338v7.101h-4v-6.934h-23.002l.964 15.85h.163l.075.022 18.737 5.584v.654l.03.025.033.01h-.022c.067.06.127.126.176.198h.509v.274h.337v7.102h-4v-6.935h-15.616l2.912 47.854 15.386 49.228H1286v3.962h-22V455.7h7.318l-21.201-30.032-22.101 30.032zm28.939-120.576h21.863l-1.334-.281h-20.546l.017.281zm-12.614 0l.017-.281h-19.898l-1.32.281h21.2zM1273 313.992v.038h.025v-.02l-.025-.018zm0 .961v.038h.025v-.02l-.025-.018zm-53 25.756v.039h.025v-.02l-.025-.019zm0 .962v.038h.025v-.02l-.025-.018zm62 .038v-.038l-.004-.003-.01.007v.034h.014zm0-.961v-.038l-.005-.003-.01.007v.034h.015zm-56 22.784v-.038l-.005-.003-.01.007v.034h.015zm0-.961v-.038l-.005-.003-.01.006v.035h.015zm-.014-2.884h.04v-.02l-.03-.022-.01.007v.035zm0 .961h.04v-.02l-.03-.021-.01.006v.035zm0 .962h.04v-.021l-.03-.021-.01.007v.035zm0 2.884h.04v-.02l-.03-.022-.01.008v.034zm50 0h.04v-.02l-.03-.022-.01.008v.034zm6-27.592h.04v-.02l-.03-.021-.01.007v.034zm0 .962h.04v-.021l-.03-.02-.01.006v.035zm0 .961h.04v-.02l-.03-.021-.01.007v.034zm0 .961h.04v-.02l-.03-.02-.01.006v.034zm-62-2.884h.04v-.02l-.03-.021-.01.006v.035zm0 .962h.04v-.021l-.03-.02-.01.006v.035zm0 .961h.04v-.02l-.03-.022-.01.007v.035zm0 .961h.04v-.02l-.03-.02-.01.006v.034zm9-23.833h.04v-.02l-.03-.022-.01.007v.035zm44-4.807h.04v-.021l-.03-.02-.01.007v.034zm0 .961h.04v-.02l-.03-.021-.01.007v.034zm0 .962h.04v-.021l-.03-.02-.01.006v.035zm0 2.884h.04v-.02l-.03-.022-.01.008v.034zm5.388 17.986h1.657l-1.625-.292-.032.292z"/>
            </g>
        </g>
        <path fill="#9EBED7" d="M242.897 340.383c.001-.056.005-.113.005-.17 0-4.946-3.997-8.955-8.927-8.955a8.86 8.86 0 0 0-4.82 1.42c-1.725-3.417-5.256-5.761-9.335-5.761a10.434 10.434 0 0 0-8.373 4.203 7.696 7.696 0 0 0-3.71-.947c-3.835 0-7.018 2.795-7.64 6.464a11.439 11.439 0 0 0-1.736-.133c-6.275 0-11.361 5.103-11.361 11.397 0 6.294 5.086 11.397 11.36 11.397.508 0 1.005-.037 1.494-.102.842 3.384 3.89 5.89 7.523 5.89 1.189 0 2.315-.27 3.322-.749a9.983 9.983 0 0 0 16.31-.073 12.371 12.371 0 0 0 4.892 1.003c4.953 0 9.23-2.903 11.232-7.104.309.032.623.05.94.05 4.93 0 8.927-4.01 8.927-8.955 0-4.946-3.996-8.955-8.926-8.955a8.92 8.92 0 0 0-1.177.08z" mask="url(#b)"/>
        <path fill="#D7F0FF" d="M463.03 260.928c-.064 0-.127.004-.19.004-.69-2.79-3.227-4.865-6.26-4.865-.208 0-.413.012-.615.03v-.03c0-6.032-4.936-10.922-11.031-10.936a10.753 10.753 0 0 0-9.853-6.38c-4.856 0-8.958 3.185-10.291 7.558a16.193 16.193 0 0 0-2.915-.267 16.01 16.01 0 0 0-10.192 3.636 23.964 23.964 0 0 0-8.39-1.51c-9.38 0-17.49 5.37-21.367 13.169a16.003 16.003 0 0 0-13.35 4.767c-8.092.248-14.576 6.81-14.576 14.874 0 8.221 6.738 14.886 15.05 14.886a15.16 15.16 0 0 0 5.163-.9c.941 4.011 4.472 7.04 8.756 7.265a8.296 8.296 0 0 0 7.579 4.875c3.75 0 6.919-2.464 7.943-5.844 1.158.438 2.414.68 3.728.68 3.077 0 5.843-1.318 7.754-3.413a16.047 16.047 0 0 0 6.988 1.59 15.983 15.983 0 0 0 14.451-9.071 15.992 15.992 0 0 0 13.804 7.856 16 16 0 0 0 13.284-7.028c1.437.42 2.955.648 4.53.648 8.82 0 15.97-7.072 15.97-15.797 0-8.725-7.15-15.797-15.97-15.797" mask="url(#b)" opacity=".424"/>
        <path fill="#78929C" d="M1652.33 316.161c-.055 0-.11.003-.164.004-.589-2.387-2.761-4.16-5.358-4.16-.177 0-.353.01-.526.026v-.026c0-5.158-4.226-9.34-9.443-9.351a9.205 9.205 0 0 0-8.434-5.456c-4.156 0-7.668 2.724-8.809 6.463a13.876 13.876 0 0 0-2.495-.229 13.713 13.713 0 0 0-8.724 3.11 20.533 20.533 0 0 0-7.182-1.291c-8.03 0-14.971 4.59-18.29 11.26a13.706 13.706 0 0 0-11.427 4.076c-6.928.212-12.478 5.823-12.478 12.718 0 7.03 5.767 12.729 12.882 12.729a12.99 12.99 0 0 0 4.42-.77c.806 3.43 3.828 6.02 7.495 6.213a7.102 7.102 0 0 0 6.488 4.168c3.21 0 5.923-2.107 6.8-4.997a9.016 9.016 0 0 0 3.19.581 8.963 8.963 0 0 0 6.638-2.918c1.807.87 3.836 1.36 5.981 1.36a13.683 13.683 0 0 0 12.371-7.757 13.692 13.692 0 0 0 11.816 6.718 13.7 13.7 0 0 0 11.371-6.01c1.23.359 2.53.555 3.877.555 7.55 0 13.671-6.048 13.671-13.508 0-7.46-6.12-13.508-13.67-13.508" mask="url(#b)"/>
        <path fill="#D7F0FF" d="M1724.174 225.506a3.912 3.912 0 0 0-4.18-2.943l.001-.019c0-3.671-3.002-6.648-6.707-6.656a6.538 6.538 0 0 0-5.99-3.884 6.53 6.53 0 0 0-6.258 4.6 9.834 9.834 0 0 0-1.772-.162 9.727 9.727 0 0 0-6.197 2.213 14.555 14.555 0 0 0-5.1-.919 14.484 14.484 0 0 0-12.992 8.016 9.725 9.725 0 0 0-8.117 2.902c-4.92.15-8.862 4.145-8.862 9.054 0 5.004 4.097 9.06 9.15 9.06 1.103 0 2.16-.193 3.14-.547.572 2.441 2.718 4.284 5.323 4.422a5.044 5.044 0 0 0 4.608 2.967c2.28 0 4.207-1.5 4.83-3.557a6.391 6.391 0 0 0 2.266.414 6.36 6.36 0 0 0 4.715-2.078 9.747 9.747 0 0 0 4.248.968 9.717 9.717 0 0 0 8.787-5.521 9.721 9.721 0 0 0 8.392 4.782 9.725 9.725 0 0 0 8.077-4.278 9.795 9.795 0 0 0 2.754.394c5.363 0 9.71-4.305 9.71-9.615 0-5.31-4.347-9.616-9.71-9.616-.039 0-.077.002-.116.003z" mask="url(#b)" opacity=".563"/>
        <g fill="#9F9F9F" mask="url(#b)">
            <path d="M1355 652.834h35.475c7.989 0 14.525-6.475 14.525-14.389v-35.142h-14v31.57c0 2.25-1.859 4.092-4.131 4.092H1355v13.869zM1147 660.759v35.143c0 7.914 6.536 14.388 14.525 14.388H1197v-13.868h-31.869c-2.272 0-4.131-1.842-4.131-4.093v-31.57h-14z"/>
            <path d="M1367 638.965h-35.475c-7.989 0-14.525 6.475-14.525 14.39v35.142h14v-31.57c0-2.251 1.859-4.093 4.131-4.093H1367v-13.869zM1161 688.497v-35.143c0-7.914-6.536-14.389-14.525-14.389H1111v13.869h31.869c2.272 0 4.131 1.842 4.131 4.092v31.57h14zM833 603.303v35.142c0 7.914 6.536 14.389 14.525 14.389H883v-13.869h-31.869c-2.272 0-4.131-1.841-4.131-4.092v-31.57h-14z"/>
            <path d="M1281 710.29h35.475c7.989 0 14.525-6.474 14.525-14.388v-35.143h-14v31.57c0 2.251-1.859 4.093-4.131 4.093H1281v13.868zM1111 572.593h35.475c7.989 0 14.525-6.475 14.525-14.389v-35.142h-14v31.57c0 2.25-1.859 4.092-4.131 4.092H1111v13.869z"/>
            <path d="M1197 494.333h-35.475c-7.989 0-14.525 6.475-14.525 14.39v35.142h14v-31.57c0-2.251 1.859-4.093 4.131-4.093H1197v-13.869zM1207 508.202h35.475c7.989 0 14.525-6.475 14.525-14.389v-35.142h-14v31.57c0 2.25-1.859 4.092-4.131 4.092H1207v13.87zM833 426.97v178.314h14V426.97zM1111 467.586V645.9h14V467.586zM1391 547.827v67.363h14v-67.363z"/>
            <path d="M1128 638.965H866v13.869h262zM1306 696.422h-123v13.868h123zM1232 494.333h-60v13.87h60z"/>
        </g>
    </g>
</svg>
